<svg width="127" height="44" viewBox="0 0 127 44" fill="none" xmlns="http://www.w3.org/2000/svg">
<path fill-rule="evenodd" clip-rule="evenodd" d="M29 42H0V0H29V42ZM9.69434 8.14844V9.17676H13.1221V23.6494C13.1221 27.3818 12.8047 29.6035 12.1699 30.3145C11.8652 30.6191 11.5098 30.7715 11.1035 30.7715C10.4434 30.7715 10.0117 30.3652 9.80859 29.5527L9.69434 28.8672C9.5166 27.6738 9.17383 26.8994 8.66602 26.5439C8.25977 26.29 7.73926 26.1631 7.10449 26.1631C6.11426 26.1631 5.4668 26.6074 5.16211 27.4961C5.08594 27.75 5.04785 28.0039 5.04785 28.2578C5.04785 29.4258 5.70801 30.3398 7.02832 31C8.01855 31.5078 9.2373 31.7617 10.6846 31.7617C14.1123 31.7617 16.4229 30.4541 17.6162 27.8389C18.1748 26.5947 18.4541 25.1221 18.4541 23.4209V9.17676H21.3105V8.14844H9.69434Z" fill="#E10643"/>
<path d="M33 13H64V44H33V13Z" fill="#EE537D"/>
<path d="M43.7881 27.3428C39.7002 27.3428 37.6562 24.7847 37.6562 19.6685V12.4893H35.1997V7.34766L46.7778 6.20508V19.6685C46.7778 20.1636 46.9619 20.6206 47.3301 21.0396C47.6982 21.4458 48.1299 21.6489 48.625 21.6489C49.1963 21.6489 49.6406 21.4585 49.958 21.0776C50.2881 20.6841 50.4531 20.2017 50.4531 19.6304V12.4893H48.625V7.34766L59.5747 6.20508V21.2681H62.0312V27H50.4531V24.0293C49.7803 25.0703 48.8789 25.8828 47.749 26.4668C46.6318 27.0508 45.3115 27.3428 43.7881 27.3428Z" fill="#0E0E0E"/>
<path d="M45.0312 26.2812C41.6771 26.2812 40 24.1823 40 19.9844V14.0938H37.9844V9.875L47.4844 8.9375V19.9844C47.4844 20.3906 47.6354 20.7656 47.9375 21.1094C48.2396 21.4427 48.5938 21.6094 49 21.6094C49.4688 21.6094 49.8333 21.4531 50.0938 21.1406C50.3646 20.8177 50.5 20.4219 50.5 19.9531V14.0938H49V9.875L57.9844 8.9375V21.2969H60V26H50.5V23.5625C49.9479 24.4167 49.2083 25.0833 48.2812 25.5625C47.3646 26.0417 46.2812 26.2812 45.0312 26.2812Z" fill="#4FCFE5"/>
<path d="M30.544 21.968C28.594 23.216 27.06 24.607 25.942 26.141C24.824 27.675 24.265 29.482 24.265 31.562C24.265 32.732 24.512 33.915 25.006 35.111C25.5 36.281 26.241 37.256 27.229 38.036C28.217 38.816 29.4 39.206 30.778 39.206C31.896 39.206 32.884 38.946 33.742 38.426C34.626 37.906 35.302 37.204 35.77 36.32C36.264 35.436 36.511 34.461 36.511 33.395C36.511 32.173 36.134 30.925 35.38 29.651C34.652 28.377 33.69 27.298 32.494 26.414C31.298 25.53 30.076 25.036 28.828 24.932C29.348 24.412 29.972 23.866 30.7 23.294C31.428 22.722 32.169 22.163 32.923 21.617C34.717 22.215 36.134 23.359 37.174 25.049C38.214 26.713 38.734 28.572 38.734 30.626C38.734 32.446 38.357 34.201 37.603 35.891C36.875 37.555 35.796 38.92 34.366 39.986C32.936 41.026 31.246 41.546 29.296 41.546C27.736 41.546 26.293 41.169 24.967 40.415C23.667 39.635 22.64 38.582 21.886 37.256C21.132 35.93 20.755 34.461 20.755 32.849C20.755 30.015 21.587 27.558 23.251 25.478C24.941 23.398 27.138 21.955 29.842 21.149L30.544 21.968Z" fill="#FFA600"/>
<path d="M66 10H86V30H66V10Z" fill="#DA9797"/>
<path d="M70.32 26.224C70.7253 25.2 71.2587 23.92 71.92 22.384C72.6027 20.848 73.3707 19.0987 74.224 17.136C74.3947 16.7093 74.5547 16.368 74.704 16.112C74.8747 15.856 75.024 15.6533 75.152 15.504C75.4293 15.184 75.8027 15.056 76.272 15.12L76.944 15.216C77.0933 15.2373 77.2213 15.2587 77.328 15.28C77.456 15.28 77.5627 15.2693 77.648 15.248C77.2213 15.4613 76.72 16.0693 76.144 17.072C75.5893 18.0533 74.9707 19.3973 74.288 21.104C74.5227 20.8053 74.8213 20.4107 75.184 19.92C75.5467 19.408 76.0053 18.8213 76.56 18.16C77.1787 17.4347 77.8187 16.7627 78.48 16.144C79.1413 15.5253 79.7813 15.216 80.4 15.216C80.8907 15.216 81.2427 15.376 81.456 15.696C81.6693 16.016 81.776 16.3787 81.776 16.784C81.776 17.2747 81.584 17.712 81.2 18.096C80.816 18.48 80.4427 18.672 80.08 18.672C79.9307 18.672 79.7707 18.64 79.6 18.576C79.4507 18.512 79.376 18.416 79.376 18.288C79.376 18.1813 79.3973 18.0853 79.44 18C79.4827 17.8933 79.504 17.776 79.504 17.648C79.504 17.328 79.3547 17.168 79.056 17.168C78.9493 17.168 78.8 17.2 78.608 17.264C78.4373 17.3067 78.2027 17.4773 77.904 17.776C77.3067 18.3307 76.656 19.0027 75.952 19.792C75.2693 20.56 74.6187 21.424 74 22.384C73.4027 23.344 72.912 24.4 72.528 25.552C72.4213 25.872 72.1013 26.0427 71.568 26.064C70.8427 26.1067 70.4267 26.16 70.32 26.224Z" fill="#E10643"/>
<path d="M106 10H127V43H106V10Z" fill="#45283C"/>
<path d="M113.16 13.96L113.244 13.876H113.664C115.587 13.9693 117.967 13.9787 120.804 13.904C121.476 13.8853 121.849 13.9413 121.924 14.072C121.943 14.128 121.915 14.3427 121.84 14.716C121.728 15.0893 121.653 15.304 121.616 15.36L121.532 15.444H120.412C119.199 15.4627 118.508 15.5467 118.34 15.696C118.284 15.7333 117.612 18.3467 116.324 23.536C115.036 28.688 114.392 31.292 114.392 31.348C114.392 31.3853 114.448 31.404 114.56 31.404H117.528C118.517 31.292 119.404 30.956 120.188 30.396C120.617 30.0973 120.963 29.7613 121.224 29.388C121.803 28.6227 122.353 27.4653 122.876 25.916C123.063 25.4307 123.184 25.1693 123.24 25.132C123.296 25.0947 123.511 25.076 123.884 25.076C124.257 25.076 124.463 25.0947 124.5 25.132C124.612 25.1693 124.668 25.2533 124.668 25.384L122.092 32.86C122.055 32.9347 121.784 32.972 121.28 32.972C120.739 32.9907 118.732 33 115.26 33H108.624L108.512 32.916C108.456 32.8227 108.428 32.748 108.428 32.692C108.428 32.3933 108.521 32.0293 108.708 31.6C108.932 31.488 109.287 31.432 109.772 31.432C110.612 31.4133 111.088 31.376 111.2 31.32C111.293 31.264 111.368 31.152 111.424 30.984C111.555 30.6107 112.199 28.0907 113.356 23.424C114.644 18.272 115.288 15.6773 115.288 15.64C115.288 15.584 115.269 15.556 115.232 15.556C115.12 15.5187 114.681 15.4813 113.916 15.444C113.263 15.444 112.899 15.3787 112.824 15.248C112.805 15.192 112.833 14.9773 112.908 14.604C113.001 14.2493 113.085 14.0347 113.16 13.96Z" fill="#E9B7B7"/>
<path d="M100.18 30.5844L94.388 33.2175L92.3852 31.8865L91.1808 30.0057C92.2405 23.0274 92.3087 12.2449 92.601 11.863C92.8933 11.481 96.5076 10.3775 98.3931 9.22972L102.426 9.38883L109.138 28.2551L107.108 29.4269L100.18 30.5844Z" fill="#5E73FC"/>
<path d="M96.8774 30.0867C96.7019 30.116 96.4795 30.1488 96.2102 30.1849C95.95 30.2194 95.6754 30.252 95.3861 30.2826C95.0983 30.3218 94.8236 30.3543 94.5621 30.3802C94.302 30.4148 94.0827 30.4381 93.9043 30.4502C93.9216 29.9853 93.9455 29.3329 93.9761 28.4927C94.0159 27.651 94.07 26.6959 94.1384 25.6274C94.2053 24.5502 94.2782 23.4232 94.3569 22.2463C94.4357 21.0694 94.5205 19.9004 94.6114 18.7393C94.7101 17.5679 94.8065 16.4681 94.9006 15.4397C94.9946 14.4112 95.0841 13.5257 95.1689 12.7831C95.7194 12.6112 96.39 12.4192 97.1807 12.2072C97.9807 11.9936 98.801 11.8166 99.6416 11.6761C100.002 11.616 100.377 11.5621 100.768 11.5146C101.159 11.467 101.534 11.4355 101.892 11.4201C102.195 12.1513 102.522 13.0294 102.873 14.0544C103.234 15.0779 103.615 16.2758 104.015 17.648C104.424 19.0187 104.861 20.5803 105.325 22.3328C105.796 24.0752 106.3 26.0386 106.836 28.2232C106.629 28.2933 106.352 28.3706 106.006 28.4552C105.66 28.5484 105.3 28.6353 104.924 28.7158C104.557 28.7949 104.217 28.8606 103.903 28.9131C103.842 28.6655 103.769 28.3402 103.683 27.9371C103.596 27.534 103.498 27.0885 103.388 26.6005C103.277 26.1039 103.166 25.6116 103.056 25.1236C102.945 24.627 102.84 24.1693 102.741 23.7505C102.643 23.3316 102.562 22.9898 102.499 22.725C102.205 22.783 101.846 22.8562 101.424 22.9444C101.002 23.0327 100.559 23.1335 100.093 23.2468C99.6357 23.3498 99.1927 23.4549 98.7643 23.562C98.3452 23.6676 97.9814 23.7639 97.6731 23.8509C97.3648 23.938 97.1613 23.9986 97.0625 24.0329C97.019 24.7952 96.9815 25.5655 96.95 26.3436C96.9172 27.113 96.8941 27.8276 96.8808 28.4871C96.8661 29.1381 96.865 29.6713 96.8774 30.0867ZM97.0642 21.7407C97.3944 21.6145 97.8547 21.471 98.4451 21.3101C99.0447 21.1478 99.6688 20.9902 100.317 20.8374C100.975 20.6831 101.548 20.5564 102.034 20.4573C101.971 20.1925 101.867 19.7701 101.723 19.1902C101.579 18.6102 101.416 17.9757 101.234 17.2864C101.052 16.5972 100.877 15.9469 100.709 15.3355C100.548 14.7139 100.406 14.2356 100.284 13.9007C100.071 13.9362 99.7687 14.0001 99.3758 14.0924C98.9907 14.1745 98.6163 14.2637 98.2526 14.36C97.8966 14.4461 97.6462 14.5102 97.5013 14.5521C97.4834 14.7861 97.4573 15.1413 97.4229 15.6179C97.3872 16.0858 97.3481 16.6475 97.3056 17.3031C97.2618 17.95 97.2181 18.6547 97.1745 19.4171C97.1388 20.1692 97.102 20.9438 97.0642 21.7407Z" fill="white"/>
<path d="M84.9062 20.0312C84.8438 20.2188 84.8125 20.4479 84.8125 20.7188C84.75 20.9896 84.7083 21.1667 84.6875 21.25C84.6667 21.3333 84.6562 21.4583 84.6562 21.625C84.6562 21.7917 84.6458 21.8958 84.625 21.9375C84.6042 21.9583 84.5938 22 84.5938 22.0625C84.6146 22.1875 84.6146 22.2708 84.5938 22.3125C84.5729 22.3333 84.5625 22.3646 84.5625 22.4062C84.5625 22.5104 84.5625 22.6042 84.5625 22.6875C84.5833 22.7708 84.5729 22.8542 84.5312 22.9375C84.6979 22.8542 84.7917 22.7917 84.8125 22.75C84.8333 22.7083 84.8542 22.6562 84.875 22.5938C85 22.3854 85.0833 22.2604 85.125 22.2188C85.25 22.0938 85.3333 22.0104 85.375 21.9688C85.4167 21.9271 85.4583 21.8854 85.5 21.8438C85.625 21.6979 85.6979 21.5938 85.7188 21.5312C85.7604 21.4479 85.8438 21.4167 85.9688 21.4375C86.0938 21.2083 86.2083 21.0729 86.3125 21.0312C86.4375 20.9896 86.5104 20.9167 86.5312 20.8125C86.6771 20.7708 86.7708 20.7396 86.8125 20.7188C86.875 20.6979 86.9479 20.6667 87.0312 20.625C87.2396 20.5625 87.3646 20.5208 87.4062 20.5C87.4479 20.4792 87.5 20.4583 87.5625 20.4375C87.7917 20.375 87.9271 20.3333 87.9688 20.3125C88.0312 20.2917 88.0938 20.2708 88.1562 20.25C88.3438 20.2708 88.4688 20.2708 88.5312 20.25C88.6146 20.2083 88.6771 20.2292 88.7188 20.3125C88.8854 20.3125 88.9896 20.3125 89.0312 20.3125C89.0729 20.3125 89.1042 20.3229 89.125 20.3438C89.2917 20.3229 89.4479 20.3229 89.5938 20.3438C89.7396 20.3646 89.8854 20.375 90.0312 20.375C90.0729 20.375 90.125 20.375 90.1875 20.375C90.2708 20.3542 90.3333 20.375 90.375 20.4375C90.5 20.3958 90.6042 20.3958 90.6875 20.4375C90.7917 20.4792 90.875 20.5208 90.9375 20.5625C91.125 20.6458 91.2708 20.6979 91.375 20.7188C91.4792 20.7188 91.5417 20.7708 91.5625 20.875C91.6875 20.8542 91.7708 20.8646 91.8125 20.9062C91.8542 20.9479 91.9271 20.9583 92.0312 20.9375C92.2604 21.0625 92.3958 21.1771 92.4375 21.2812C92.5625 21.2396 92.6458 21.2604 92.6875 21.3438C92.7292 21.4062 92.8021 21.4375 92.9062 21.4375C92.9688 21.5625 93.0208 21.6354 93.0625 21.6562C93.1042 21.6771 93.1458 21.7083 93.1875 21.75C93.2292 21.875 93.2604 21.9896 93.2812 22.0938C93.3646 22.3229 93.4167 22.4375 93.4375 22.4375C93.4792 22.4375 93.5 22.4583 93.5 22.5L93.6562 22.875C93.6354 23.0417 93.6562 23.1771 93.7188 23.2812C93.7812 23.3646 93.8333 23.4896 93.875 23.6562C93.8958 23.8854 93.9271 24.0521 93.9688 24.1562C94.0104 24.2604 94.0312 24.3646 94.0312 24.4688V25.8125C94.0521 25.9583 94.0521 26.0938 94.0312 26.2188C94.0104 26.3438 94.0104 26.4583 94.0312 26.5625C94.0312 26.6458 94.0417 26.7188 94.0625 26.7812C94.0833 26.8438 94.0521 26.8958 93.9688 26.9375C94.0521 27.1667 94.0833 27.3125 94.0625 27.375C94.0417 27.4375 94.0104 27.5 93.9688 27.5625C94.0104 27.6458 94.0417 27.7292 94.0625 27.8125C94.1042 27.8958 94.1146 28.0104 94.0938 28.1562C94.0729 28.2188 94.0521 28.2917 94.0312 28.375C94.0104 28.4375 94 28.5 94 28.5625C94.0208 28.7708 94.0208 28.9167 94 29C94 29.0833 94 29.1667 94 29.25C94.0208 29.4792 94.0312 29.6458 94.0312 29.75C94.0312 29.8542 94.0521 29.9688 94.0938 30.0938C94.0729 30.1562 94.0521 30.2083 94.0312 30.25C94.0104 30.2917 93.9896 30.3542 93.9688 30.4375C94.0104 30.6458 94.0208 30.7604 94 30.7812C93.9792 30.8021 93.9688 30.8333 93.9688 30.875C93.9896 31.0417 93.9896 31.1458 93.9688 31.1875C93.9688 31.2292 93.9688 31.2708 93.9688 31.3125C93.9688 31.3958 93.9792 31.4688 94 31.5312C94.0417 31.5938 94.0625 31.6667 94.0625 31.75C94.0417 31.9583 94.0312 32.0938 94.0312 32.1562C94.0521 32.1979 94.0625 32.2604 94.0625 32.3438C94.0625 32.5729 94.0625 32.7188 94.0625 32.7812C94.0833 32.8438 94.0938 32.9062 94.0938 32.9688C94.0938 33.0104 94.0833 33.0729 94.0625 33.1562C94.0625 33.2188 94.0833 33.2708 94.125 33.3125C94.0625 33.375 94.0521 33.4583 94.0938 33.5625C94.1354 33.6667 94.1562 33.7708 94.1562 33.875C94.1562 34.0208 94.1667 34.1562 94.1875 34.2812C94.2292 34.3854 94.25 34.4896 94.25 34.5938C94.2708 34.7188 94.2812 34.8333 94.2812 34.9375C94.3021 35.0208 94.3646 35.0938 94.4688 35.1562C94.7812 35.1146 94.9896 35.125 95.0938 35.1875C95.1979 35.2292 95.2708 35.3229 95.3125 35.4688C95.6042 35.6771 95.7292 35.8333 95.6875 35.9375C95.6458 36.0417 95.5729 36.1146 95.4688 36.1562C95.3646 36.2188 95.2396 36.25 95.0938 36.25C94.9688 36.25 94.8646 36.2083 94.7812 36.125C94.5521 36.1875 94.3958 36.2083 94.3125 36.1875C94.25 36.1667 94.1979 36.1458 94.1562 36.125C93.9271 36 93.8021 35.9583 93.7812 36C93.7812 36.0417 93.75 36.0521 93.6875 36.0312C93.5833 35.9896 93.4688 35.9688 93.3438 35.9688C93.2396 35.9688 93.1042 35.9688 92.9375 35.9688C92.8125 35.9688 92.6875 35.9583 92.5625 35.9375C92.4375 35.9167 92.3021 35.9062 92.1562 35.9062C91.7812 35.9271 91.5104 35.9583 91.3438 36C91.1979 36.0417 91 36.0729 90.75 36.0938C90.6667 36.1354 90.5521 36.1667 90.4062 36.1875C90.3021 36.2083 90.2083 36.2292 90.125 36.25C90.0625 36.2708 89.9792 36.2812 89.875 36.2812C89.8333 36.2604 89.7708 36.2083 89.6875 36.125C89.6042 36.0417 89.5625 35.9688 89.5625 35.9062C89.5625 35.7812 89.6146 35.6771 89.7188 35.5938C89.8438 35.5104 89.9271 35.4167 89.9688 35.3125H90.375C90.5625 35.1667 90.6667 35.0833 90.6875 35.0625C90.7292 35.0417 90.7708 35.0312 90.8125 35.0312C90.7708 34.7812 90.8333 34.6562 91 34.6562C90.9375 34.6146 90.9062 34.5625 90.9062 34.5C90.9271 34.4375 90.9375 34.375 90.9375 34.3125C90.9375 34.1458 90.9375 34.0417 90.9375 34C90.9583 33.9583 90.9688 33.9271 90.9688 33.9062C90.9688 33.6771 90.9688 33.5625 90.9688 33.5625C90.9896 33.5417 91.0104 33.5104 91.0312 33.4688C91.0312 33.1979 91.0104 33.0625 90.9688 33.0625C90.9479 33.0417 90.9271 33.0104 90.9062 32.9688C90.9479 32.8854 90.9688 32.8229 90.9688 32.7812C90.9688 32.7188 90.9896 32.6042 91.0312 32.4375C91.0312 32.2083 91 32 90.9375 31.8125C90.8958 31.625 90.9062 31.4792 90.9688 31.375C90.9479 31.3125 90.9375 31.2396 90.9375 31.1562C90.9583 31.0521 90.9896 30.9792 91.0312 30.9375C90.9896 30.8958 90.9792 30.8438 91 30.7812C91.0417 30.7188 91.0521 30.6458 91.0312 30.5625C90.9688 30.375 90.9479 30.25 90.9688 30.1875C91.0104 30.1042 91.0312 30.0104 91.0312 29.9062C91.0312 29.8646 91.0312 29.8125 91.0312 29.75C91.0521 29.6875 91.0417 29.625 91 29.5625C91.0417 29.3125 91.0625 29.1667 91.0625 29.125C91.0833 29.0833 91.0938 29.0312 91.0938 28.9688C91.0729 28.8854 91.0625 28.8229 91.0625 28.7812C91.0833 28.7396 91.1042 28.6875 91.125 28.625C91.1458 28.375 91.1354 28.25 91.0938 28.25C91.0521 28.2292 91.0417 28.1979 91.0625 28.1562C91.1667 28.0104 91.1979 27.8333 91.1562 27.625C91.1354 27.3958 91.1562 27.1771 91.2188 26.9688C91.2188 26.8229 91.2083 26.7292 91.1875 26.6875C91.1667 26.625 91.1667 26.5729 91.1875 26.5312C91.2292 26.3438 91.25 26.1771 91.25 26.0312C91.2708 25.8646 91.2812 25.7396 91.2812 25.6562C91.3021 25.3646 91.2917 25.1354 91.25 24.9688V24.0312C91.2292 23.8854 91.2292 23.7812 91.25 23.7188C91.2708 23.6354 91.2396 23.5729 91.1562 23.5312C91.1979 23.3854 91.1875 23.2917 91.125 23.25C91.0833 23.1875 91.0729 23.0833 91.0938 22.9375C91.0312 22.7292 90.9792 22.6146 90.9375 22.5938C90.8958 22.5521 90.8646 22.5104 90.8438 22.4688C90.6771 22.0938 90.5 21.8229 90.3125 21.6562C90.2708 21.6146 90.2188 21.5833 90.1562 21.5625C90.0938 21.5208 90.0521 21.4688 90.0312 21.4062C89.9062 21.4271 89.8021 21.4167 89.7188 21.375C89.6354 21.3333 89.5521 21.3021 89.4688 21.2812C89.3854 21.2396 89.3021 21.2083 89.2188 21.1875C89.1354 21.1667 89.0417 21.1771 88.9375 21.2188C88.5833 21.1771 88.3438 21.1771 88.2188 21.2188C88.0938 21.2396 87.9792 21.2083 87.875 21.125C87.8333 21.1667 87.7708 21.1875 87.6875 21.1875C87.6042 21.1875 87.5521 21.2188 87.5312 21.2812C87.3438 21.3229 87.1667 21.375 87 21.4375C86.8333 21.5 86.7083 21.6146 86.625 21.7812C86.375 21.9062 86.2396 21.9896 86.2188 22.0312C86.2188 22.0729 86.1979 22.1146 86.1562 22.1562C85.9896 22.3021 85.9062 22.3854 85.9062 22.4062C85.9271 22.4271 85.9167 22.4479 85.875 22.4688C85.7708 22.5521 85.7188 22.625 85.7188 22.6875C85.7188 22.7292 85.6875 22.75 85.625 22.75C85.5208 23 85.4479 23.1562 85.4062 23.2188C85.3854 23.2812 85.3542 23.3646 85.3125 23.4688C85.2708 23.5312 85.25 23.5938 85.25 23.6562C85.25 23.6979 85.2396 23.75 85.2188 23.8125C85.0729 24.0625 84.9479 24.2188 84.8438 24.2812C84.8229 24.4271 84.8125 24.5521 84.8125 24.6562C84.8333 24.7604 84.8021 24.8021 84.7188 24.7812C84.7188 24.8854 84.6875 24.9688 84.625 25.0312C84.5833 25.0729 84.5417 25.1146 84.5 25.1562C84.5208 25.4062 84.5208 25.5625 84.5 25.625C84.5 25.6875 84.5104 25.7396 84.5312 25.7812C84.5729 26.0312 84.5833 26.1771 84.5625 26.2188C84.5625 26.2396 84.5625 26.2708 84.5625 26.3125C84.5625 26.3958 84.5729 26.4792 84.5938 26.5625C84.6146 26.625 84.6146 26.6875 84.5938 26.75C84.5312 26.9167 84.5104 27.0312 84.5312 27.0938C84.5521 27.1354 84.5312 27.1771 84.4688 27.2188C84.5312 27.3438 84.5729 27.4375 84.5938 27.5C84.6354 27.5417 84.6562 27.5938 84.6562 27.6562C84.6354 27.8021 84.6354 27.8854 84.6562 27.9062C84.6771 27.9271 84.6875 27.9583 84.6875 28C84.7083 28.1042 84.6979 28.2188 84.6562 28.3438C84.6354 28.4688 84.625 28.5938 84.625 28.7188C84.6458 28.9896 84.6667 29.1458 84.6875 29.1875C84.7083 29.2292 84.7188 29.2708 84.7188 29.3125C84.7396 29.4167 84.75 29.5729 84.75 29.7812C84.75 29.8438 84.7396 29.9062 84.7188 29.9688C84.7188 30.0312 84.7292 30.0938 84.75 30.1562C84.7708 30.2812 84.7917 30.3646 84.8125 30.4062C84.8333 30.4479 84.8438 30.4896 84.8438 30.5312C84.8438 30.8438 84.8333 31.0521 84.8125 31.1562C84.8125 31.2604 84.8125 31.375 84.8125 31.5C84.875 31.7917 84.8958 32 84.875 32.125C84.875 32.25 84.8854 32.3646 84.9062 32.4688C84.9271 32.5521 84.9479 32.6458 84.9688 32.75C85.0104 32.8333 85.0417 32.9167 85.0625 33C85.0208 33.1458 85 33.25 85 33.3125C85 33.3542 85.0312 33.3854 85.0938 33.4062C85.0521 33.6146 85.0312 33.7396 85.0312 33.7812C85.0312 33.8021 85.0312 33.8333 85.0312 33.875C85.0312 34.0833 85.0417 34.1979 85.0625 34.2188C85.0833 34.2396 85.0938 34.2708 85.0938 34.3125C85.1354 34.5833 85.1771 34.75 85.2188 34.8125C85.2812 34.8542 85.3333 34.9167 85.375 35C85.5833 35.1042 85.6875 35.1667 85.6875 35.1875C85.6875 35.2083 85.7083 35.2188 85.75 35.2188C85.8542 35.2396 85.9375 35.2396 86 35.2188C86.0833 35.1979 86.1771 35.1771 86.2812 35.1562C86.4896 35.1146 86.6458 35.0833 86.75 35.0625C86.875 35.0208 86.9896 35.0104 87.0938 35.0312C87.1979 35.0521 87.2812 35.0938 87.3438 35.1562C87.4062 35.2188 87.4896 35.2396 87.5938 35.2188C87.5938 35.3229 87.625 35.4062 87.6875 35.4688C87.75 35.5312 87.8021 35.5833 87.8438 35.625C87.8021 35.7083 87.75 35.7917 87.6875 35.875C87.6458 35.9375 87.6667 36.0208 87.75 36.125C87.6458 36.1667 87.5625 36.1771 87.5 36.1562C87.4375 36.1354 87.3646 36.125 87.2812 36.125C87.1354 36.1042 86.9896 36.0833 86.8438 36.0625C86.6979 36.0625 86.5521 36.0729 86.4062 36.0938C86.3229 36.0938 86.25 36.0938 86.1875 36.0938C86.125 36.1146 86.0521 36.1354 85.9688 36.1562H85.625C85.4583 36.1354 85.3229 36.1458 85.2188 36.1875C85.1354 36.2292 85.0417 36.2292 84.9375 36.1875C84.75 36.25 84.6146 36.2812 84.5312 36.2812C84.4896 36.3229 84.4271 36.3438 84.3438 36.3438C84.2812 36.3438 84.2292 36.3646 84.1875 36.4062C84.0417 36.3854 83.9375 36.375 83.875 36.375C83.8333 36.3958 83.8021 36.375 83.7812 36.3125C83.7396 36.3542 83.6875 36.375 83.625 36.375C83.5625 36.3958 83.5104 36.4271 83.4688 36.4688C83.2396 36.4688 83.0521 36.4792 82.9062 36.5C82.7604 36.5208 82.5833 36.5104 82.375 36.4688C82.1667 36.5729 82.0312 36.6146 81.9688 36.5938C81.9062 36.5729 81.8438 36.5729 81.7812 36.5938C81.6979 36.6146 81.6354 36.6458 81.5938 36.6875C81.5521 36.75 81.5 36.8021 81.4375 36.8438C81.2083 36.9062 81.0312 36.9271 80.9062 36.9062C80.8021 36.9062 80.7083 36.9583 80.625 37.0625C80.5208 37.0208 80.4271 37.0208 80.3438 37.0625C80.2604 37.125 80.1667 37.1562 80.0625 37.1562C79.9792 37.1562 79.8958 37.1354 79.8125 37.0938C79.75 37.0521 79.6667 37.0104 79.5625 36.9688C79.5 36.8021 79.4688 36.6979 79.4688 36.6562C79.4896 36.6146 79.5 36.5729 79.5 36.5312C79.7917 36.3229 80 36.1875 80.125 36.125C80.25 36.0833 80.4062 36.0521 80.5938 36.0312C80.6771 35.9896 80.7604 35.9479 80.8438 35.9062C80.9271 35.8646 81.0208 35.8229 81.125 35.7812C81.2083 35.7396 81.2812 35.6979 81.3438 35.6562C81.4062 35.5938 81.4896 35.5521 81.5938 35.5312C81.6354 35.4688 81.6667 35.4062 81.6875 35.3438C81.7292 35.2812 81.7812 35.2396 81.8438 35.2188C81.8646 35.1146 81.8958 35.0312 81.9375 34.9688C82 34.8854 82.0417 34.7917 82.0625 34.6875C82.0417 34.5208 82.0417 34.4271 82.0625 34.4062C82.1042 34.3646 82.125 34.3229 82.125 34.2812C82.1458 34.1979 82.1458 34.125 82.125 34.0625C82.1042 33.9792 82.0938 33.9062 82.0938 33.8438C82.1354 33.6146 82.1458 33.5 82.125 33.5C82.125 33.4792 82.125 33.4583 82.125 33.4375C82.0833 33.2292 82.0729 33.0938 82.0938 33.0312C82.1146 32.9479 82.1146 32.875 82.0938 32.8125C82.0521 32.6458 82.0312 32.5625 82.0312 32.5625C82.0521 32.5417 82.0625 32.5104 82.0625 32.4688C82.0625 32.3854 82.0417 32.3125 82 32.25C81.9792 32.1667 81.9688 32.0833 81.9688 32C81.9688 31.75 81.9688 31.5729 81.9688 31.4688C81.9896 31.3438 82 31.2396 82 31.1562C82 31.0938 81.9792 31.0208 81.9375 30.9375C81.9167 30.8542 81.9479 30.7917 82.0312 30.75C81.9896 30.4792 81.9583 30.2812 81.9375 30.1562C81.9167 30.0312 81.8958 29.9062 81.875 29.7812C81.875 29.5312 81.8854 29.3854 81.9062 29.3438C81.9271 29.3021 81.9375 29.2604 81.9375 29.2188C81.9167 29.0312 81.9062 28.9271 81.9062 28.9062C81.9271 28.8646 81.9375 28.8333 81.9375 28.8125C81.9375 28.7083 81.9167 28.6042 81.875 28.5C81.8542 28.3958 81.8438 28.2812 81.8438 28.1562C81.8646 28.0938 81.875 28.0104 81.875 27.9062C81.875 27.8021 81.8854 27.7292 81.9062 27.6875C81.9479 27.6458 81.9583 27.5312 81.9375 27.3438C81.9167 27.1562 81.9062 27.0208 81.9062 26.9375C81.9062 26.8125 81.9167 26.6875 81.9375 26.5625C81.9583 26.4375 81.9271 26.3229 81.8438 26.2188C81.8854 25.9271 81.9167 25.6979 81.9375 25.5312C81.9792 25.3646 81.9896 25.1667 81.9688 24.9375C81.9688 24.875 81.9583 24.8125 81.9375 24.75C81.9167 24.6875 81.9062 24.6146 81.9062 24.5312C81.9062 24.3646 81.9062 24.2396 81.9062 24.1562C81.9062 24.0729 81.875 23.9896 81.8125 23.9062C81.8958 23.8021 81.9062 23.6667 81.8438 23.5C81.7812 23.25 81.7292 23.0833 81.6875 23C81.5417 22.7083 81.4375 22.5 81.375 22.375C81.3125 22.25 81.2396 22.1458 81.1562 22.0625C81.0521 22.0833 80.9792 22.0833 80.9375 22.0625C80.9167 22.0417 80.875 22 80.8125 21.9375C80.6667 22.0208 80.5208 22.0625 80.375 22.0625C80.2292 22.0417 80.0729 22.0104 79.9062 21.9688C79.8854 21.9062 79.8333 21.875 79.75 21.875C79.6667 21.875 79.6042 21.8438 79.5625 21.7812C79.4167 21.7188 79.3229 21.6875 79.2812 21.6875C79.2604 21.6875 79.2292 21.6667 79.1875 21.625C79.1875 21.5208 79.1771 21.4375 79.1562 21.375C79.1354 21.2917 79.1458 21.2188 79.1875 21.1562C79.3333 20.9896 79.4688 20.9062 79.5938 20.9062C79.6771 20.9062 79.75 20.9062 79.8125 20.9062C79.875 20.8854 79.9271 20.8854 79.9688 20.9062C80.0938 20.9271 80.1979 20.9479 80.2812 20.9688C80.3646 20.9896 80.4688 21 80.5938 21C80.6979 21 80.8021 20.9896 80.9062 20.9688C81.0312 20.9271 81.1458 20.9479 81.25 21.0312L81.5938 20.9062C81.7396 20.8438 81.8438 20.8229 81.9062 20.8438C81.9896 20.8438 82.0521 20.8021 82.0938 20.7188C82.1354 20.7396 82.25 20.7292 82.4375 20.6875C82.6458 20.5833 82.7917 20.5208 82.875 20.5C83.0208 20.4167 83.1354 20.3542 83.2188 20.3125C83.4271 20.2292 83.5938 20.1667 83.7188 20.125C83.8646 20.0417 83.9479 19.9896 83.9688 19.9688C83.9896 19.9479 84.0208 19.9167 84.0625 19.875C84.1458 19.8125 84.2188 19.7812 84.2812 19.7812C84.3438 19.7812 84.3958 19.7604 84.4375 19.7188C84.7083 19.8646 84.8646 19.9688 84.9062 20.0312Z" fill="#FFA600"/>
</svg>
