<?xml version="1.0" encoding="UTF-8" standalone="no"?><svg xmlns="http://www.w3.org/2000/svg" id="arrow-right" width="32" height="32" viewBox="0 0 32 32" preserveAspectRatio="xMidYMid meet" rendering="crispEdges"><rect id="19-4" x="18" y="3" width="1" height="1" shape-rendering="crispEdges" style="fill:#2c0f30;opacity:255;"></rect><rect id="20-4" x="19" y="3" width="1" height="1" shape-rendering="crispEdges" style="fill:#2c0f30;opacity:255;"></rect><rect id="19-5" x="18" y="4" width="1" height="1" shape-rendering="crispEdges" style="fill:#2c0f30;opacity:255;"></rect><rect id="20-5" x="19" y="4" width="1" height="1" shape-rendering="crispEdges" style="fill:#2c0f30;opacity:255;"></rect><rect id="21-5" x="20" y="4" width="1" height="1" shape-rendering="crispEdges" style="fill:#2c0f30;opacity:255;"></rect><rect id="19-6" x="18" y="5" width="1" height="1" shape-rendering="crispEdges" style="fill:#2c0f30;opacity:255;"></rect><rect id="20-6" x="19" y="5" width="1" height="1" shape-rendering="crispEdges" style="fill:#2c0f30;opacity:255;"></rect><rect id="21-6" x="20" y="5" width="1" height="1" shape-rendering="crispEdges" style="fill:#2c0f30;opacity:255;"></rect><rect id="22-6" x="21" y="5" width="1" height="1" shape-rendering="crispEdges" style="fill:#2c0f30;opacity:255;"></rect><rect id="19-7" x="18" y="6" width="1" height="1" shape-rendering="crispEdges" style="fill:#2c0f30;opacity:255;"></rect><rect id="20-7" x="19" y="6" width="1" height="1" shape-rendering="crispEdges" style="fill:#2c0f30;opacity:255;"></rect><rect id="21-7" x="20" y="6" width="1" height="1" shape-rendering="crispEdges" style="fill:#2c0f30;opacity:255;"></rect><rect id="22-7" x="21" y="6" width="1" height="1" shape-rendering="crispEdges" style="fill:#2c0f30;opacity:255;"></rect><rect id="23-7" x="22" y="6" width="1" height="1" shape-rendering="crispEdges" style="fill:#2c0f30;opacity:255;"></rect><rect id="19-8" x="18" y="7" width="1" height="1" shape-rendering="crispEdges" style="fill:#2c0f30;opacity:255;"></rect><rect id="20-8" x="19" y="7" width="1" height="1" shape-rendering="crispEdges" style="fill:#2c0f30;opacity:255;"></rect><rect id="21-8" x="20" y="7" width="1" height="1" shape-rendering="crispEdges" style="fill:#2c0f30;opacity:255;"></rect><rect id="22-8" x="21" y="7" width="1" height="1" shape-rendering="crispEdges" style="fill:#2c0f30;opacity:255;"></rect><rect id="23-8" x="22" y="7" width="1" height="1" shape-rendering="crispEdges" style="fill:#2c0f30;opacity:255;"></rect><rect id="24-8" x="23" y="7" width="1" height="1" shape-rendering="crispEdges" style="fill:#2c0f30;opacity:255;"></rect><rect id="14-9" x="13" y="8" width="1" height="1" shape-rendering="crispEdges" style="fill:#2c0f30;opacity:255;"></rect><rect id="15-9" x="14" y="8" width="1" height="1" shape-rendering="crispEdges" style="fill:#2c0f30;opacity:255;"></rect><rect id="16-9" x="15" y="8" width="1" height="1" shape-rendering="crispEdges" style="fill:#2c0f30;opacity:255;"></rect><rect id="17-9" x="16" y="8" width="1" height="1" shape-rendering="crispEdges" style="fill:#2c0f30;opacity:255;"></rect><rect id="18-9" x="17" y="8" width="1" height="1" shape-rendering="crispEdges" style="fill:#2c0f30;opacity:255;"></rect><rect id="19-9" x="18" y="8" width="1" height="1" shape-rendering="crispEdges" style="fill:#2c0f30;opacity:255;"></rect><rect id="20-9" x="19" y="8" width="1" height="1" shape-rendering="crispEdges" style="fill:#2c0f30;opacity:255;"></rect><rect id="21-9" x="20" y="8" width="1" height="1" shape-rendering="crispEdges" style="fill:#2c0f30;opacity:255;"></rect><rect id="22-9" x="21" y="8" width="1" height="1" shape-rendering="crispEdges" style="fill:#2c0f30;opacity:255;"></rect><rect id="23-9" x="22" y="8" width="1" height="1" shape-rendering="crispEdges" style="fill:#2c0f30;opacity:255;"></rect><rect id="24-9" x="23" y="8" width="1" height="1" shape-rendering="crispEdges" style="fill:#2c0f30;opacity:255;"></rect><rect id="25-9" x="24" y="8" width="1" height="1" shape-rendering="crispEdges" style="fill:#2c0f30;opacity:255;"></rect><rect id="11-10" x="10" y="9" width="1" height="1" shape-rendering="crispEdges" style="fill:#2c0f30;opacity:255;"></rect><rect id="12-10" x="11" y="9" width="1" height="1" shape-rendering="crispEdges" style="fill:#2c0f30;opacity:255;"></rect><rect id="13-10" x="12" y="9" width="1" height="1" shape-rendering="crispEdges" style="fill:#2c0f30;opacity:255;"></rect><rect id="14-10" x="13" y="9" width="1" height="1" shape-rendering="crispEdges" style="fill:#2c0f30;opacity:255;"></rect><rect id="15-10" x="14" y="9" width="1" height="1" shape-rendering="crispEdges" style="fill:#2c0f30;opacity:255;"></rect><rect id="16-10" x="15" y="9" width="1" height="1" shape-rendering="crispEdges" style="fill:#2c0f30;opacity:255;"></rect><rect id="17-10" x="16" y="9" width="1" height="1" shape-rendering="crispEdges" style="fill:#2c0f30;opacity:255;"></rect><rect id="18-10" x="17" y="9" width="1" height="1" shape-rendering="crispEdges" style="fill:#2c0f30;opacity:255;"></rect><rect id="19-10" x="18" y="9" width="1" height="1" shape-rendering="crispEdges" style="fill:#2c0f30;opacity:255;"></rect><rect id="20-10" x="19" y="9" width="1" height="1" shape-rendering="crispEdges" style="fill:#2c0f30;opacity:255;"></rect><rect id="21-10" x="20" y="9" width="1" height="1" shape-rendering="crispEdges" style="fill:#2c0f30;opacity:255;"></rect><rect id="22-10" x="21" y="9" width="1" height="1" shape-rendering="crispEdges" style="fill:#2c0f30;opacity:255;"></rect><rect id="23-10" x="22" y="9" width="1" height="1" shape-rendering="crispEdges" style="fill:#2c0f30;opacity:255;"></rect><rect id="24-10" x="23" y="9" width="1" height="1" shape-rendering="crispEdges" style="fill:#2c0f30;opacity:255;"></rect><rect id="25-10" x="24" y="9" width="1" height="1" shape-rendering="crispEdges" style="fill:#2c0f30;opacity:255;"></rect><rect id="26-10" x="25" y="9" width="1" height="1" shape-rendering="crispEdges" style="fill:#2c0f30;opacity:255;"></rect><rect id="9-11" x="8" y="10" width="1" height="1" shape-rendering="crispEdges" style="fill:#2c0f30;opacity:255;"></rect><rect id="10-11" x="9" y="10" width="1" height="1" shape-rendering="crispEdges" style="fill:#2c0f30;opacity:255;"></rect><rect id="11-11" x="10" y="10" width="1" height="1" shape-rendering="crispEdges" style="fill:#2c0f30;opacity:255;"></rect><rect id="12-11" x="11" y="10" width="1" height="1" shape-rendering="crispEdges" style="fill:#2c0f30;opacity:255;"></rect><rect id="13-11" x="12" y="10" width="1" height="1" shape-rendering="crispEdges" style="fill:#2c0f30;opacity:255;"></rect><rect id="14-11" x="13" y="10" width="1" height="1" shape-rendering="crispEdges" style="fill:#2c0f30;opacity:255;"></rect><rect id="15-11" x="14" y="10" width="1" height="1" shape-rendering="crispEdges" style="fill:#2c0f30;opacity:255;"></rect><rect id="16-11" x="15" y="10" width="1" height="1" shape-rendering="crispEdges" style="fill:#2c0f30;opacity:255;"></rect><rect id="17-11" x="16" y="10" width="1" height="1" shape-rendering="crispEdges" style="fill:#2c0f30;opacity:255;"></rect><rect id="18-11" x="17" y="10" width="1" height="1" shape-rendering="crispEdges" style="fill:#2c0f30;opacity:255;"></rect><rect id="19-11" x="18" y="10" width="1" height="1" shape-rendering="crispEdges" style="fill:#2c0f30;opacity:255;"></rect><rect id="20-11" x="19" y="10" width="1" height="1" shape-rendering="crispEdges" style="fill:#2c0f30;opacity:255;"></rect><rect id="21-11" x="20" y="10" width="1" height="1" shape-rendering="crispEdges" style="fill:#2c0f30;opacity:255;"></rect><rect id="22-11" x="21" y="10" width="1" height="1" shape-rendering="crispEdges" style="fill:#2c0f30;opacity:255;"></rect><rect id="23-11" x="22" y="10" width="1" height="1" shape-rendering="crispEdges" style="fill:#2c0f30;opacity:255;"></rect><rect id="24-11" x="23" y="10" width="1" height="1" shape-rendering="crispEdges" style="fill:#2c0f30;opacity:255;"></rect><rect id="25-11" x="24" y="10" width="1" height="1" shape-rendering="crispEdges" style="fill:#2c0f30;opacity:255;"></rect><rect id="26-11" x="25" y="10" width="1" height="1" shape-rendering="crispEdges" style="fill:#2c0f30;opacity:255;"></rect><rect id="27-11" x="26" y="10" width="1" height="1" shape-rendering="crispEdges" style="fill:#2c0f30;opacity:255;"></rect><rect id="8-12" x="7" y="11" width="1" height="1" shape-rendering="crispEdges" style="fill:#2c0f30;opacity:255;"></rect><rect id="9-12" x="8" y="11" width="1" height="1" shape-rendering="crispEdges" style="fill:#2c0f30;opacity:255;"></rect><rect id="10-12" x="9" y="11" width="1" height="1" shape-rendering="crispEdges" style="fill:#2c0f30;opacity:255;"></rect><rect id="11-12" x="10" y="11" width="1" height="1" shape-rendering="crispEdges" style="fill:#2c0f30;opacity:255;"></rect><rect id="12-12" x="11" y="11" width="1" height="1" shape-rendering="crispEdges" style="fill:#2c0f30;opacity:255;"></rect><rect id="13-12" x="12" y="11" width="1" height="1" shape-rendering="crispEdges" style="fill:#2c0f30;opacity:255;"></rect><rect id="14-12" x="13" y="11" width="1" height="1" shape-rendering="crispEdges" style="fill:#2c0f30;opacity:255;"></rect><rect id="15-12" x="14" y="11" width="1" height="1" shape-rendering="crispEdges" style="fill:#2c0f30;opacity:255;"></rect><rect id="16-12" x="15" y="11" width="1" height="1" shape-rendering="crispEdges" style="fill:#2c0f30;opacity:255;"></rect><rect id="17-12" x="16" y="11" width="1" height="1" shape-rendering="crispEdges" style="fill:#2c0f30;opacity:255;"></rect><rect id="18-12" x="17" y="11" width="1" height="1" shape-rendering="crispEdges" style="fill:#2c0f30;opacity:255;"></rect><rect id="19-12" x="18" y="11" width="1" height="1" shape-rendering="crispEdges" style="fill:#2c0f30;opacity:255;"></rect><rect id="20-12" x="19" y="11" width="1" height="1" shape-rendering="crispEdges" style="fill:#2c0f30;opacity:255;"></rect><rect id="21-12" x="20" y="11" width="1" height="1" shape-rendering="crispEdges" style="fill:#2c0f30;opacity:255;"></rect><rect id="22-12" x="21" y="11" width="1" height="1" shape-rendering="crispEdges" style="fill:#2c0f30;opacity:255;"></rect><rect id="23-12" x="22" y="11" width="1" height="1" shape-rendering="crispEdges" style="fill:#2c0f30;opacity:255;"></rect><rect id="24-12" x="23" y="11" width="1" height="1" shape-rendering="crispEdges" style="fill:#2c0f30;opacity:255;"></rect><rect id="25-12" x="24" y="11" width="1" height="1" shape-rendering="crispEdges" style="fill:#2c0f30;opacity:255;"></rect><rect id="26-12" x="25" y="11" width="1" height="1" shape-rendering="crispEdges" style="fill:#2c0f30;opacity:255;"></rect><rect id="27-12" x="26" y="11" width="1" height="1" shape-rendering="crispEdges" style="fill:#2c0f30;opacity:255;"></rect><rect id="28-12" x="27" y="11" width="1" height="1" shape-rendering="crispEdges" style="fill:#2c0f30;opacity:255;"></rect><rect id="7-13" x="6" y="12" width="1" height="1" shape-rendering="crispEdges" style="fill:#2c0f30;opacity:255;"></rect><rect id="8-13" x="7" y="12" width="1" height="1" shape-rendering="crispEdges" style="fill:#2c0f30;opacity:255;"></rect><rect id="9-13" x="8" y="12" width="1" height="1" shape-rendering="crispEdges" style="fill:#2c0f30;opacity:255;"></rect><rect id="10-13" x="9" y="12" width="1" height="1" shape-rendering="crispEdges" style="fill:#2c0f30;opacity:255;"></rect><rect id="11-13" x="10" y="12" width="1" height="1" shape-rendering="crispEdges" style="fill:#2c0f30;opacity:255;"></rect><rect id="12-13" x="11" y="12" width="1" height="1" shape-rendering="crispEdges" style="fill:#2c0f30;opacity:255;"></rect><rect id="13-13" x="12" y="12" width="1" height="1" shape-rendering="crispEdges" style="fill:#2c0f30;opacity:255;"></rect><rect id="14-13" x="13" y="12" width="1" height="1" shape-rendering="crispEdges" style="fill:#2c0f30;opacity:255;"></rect><rect id="15-13" x="14" y="12" width="1" height="1" shape-rendering="crispEdges" style="fill:#2c0f30;opacity:255;"></rect><rect id="16-13" x="15" y="12" width="1" height="1" shape-rendering="crispEdges" style="fill:#2c0f30;opacity:255;"></rect><rect id="17-13" x="16" y="12" width="1" height="1" shape-rendering="crispEdges" style="fill:#2c0f30;opacity:255;"></rect><rect id="18-13" x="17" y="12" width="1" height="1" shape-rendering="crispEdges" style="fill:#2c0f30;opacity:255;"></rect><rect id="19-13" x="18" y="12" width="1" height="1" shape-rendering="crispEdges" style="fill:#2c0f30;opacity:255;"></rect><rect id="20-13" x="19" y="12" width="1" height="1" shape-rendering="crispEdges" style="fill:#2c0f30;opacity:255;"></rect><rect id="21-13" x="20" y="12" width="1" height="1" shape-rendering="crispEdges" style="fill:#2c0f30;opacity:255;"></rect><rect id="22-13" x="21" y="12" width="1" height="1" shape-rendering="crispEdges" style="fill:#2c0f30;opacity:255;"></rect><rect id="23-13" x="22" y="12" width="1" height="1" shape-rendering="crispEdges" style="fill:#2c0f30;opacity:255;"></rect><rect id="24-13" x="23" y="12" width="1" height="1" shape-rendering="crispEdges" style="fill:#2c0f30;opacity:255;"></rect><rect id="25-13" x="24" y="12" width="1" height="1" shape-rendering="crispEdges" style="fill:#2c0f30;opacity:255;"></rect><rect id="26-13" x="25" y="12" width="1" height="1" shape-rendering="crispEdges" style="fill:#2c0f30;opacity:255;"></rect><rect id="27-13" x="26" y="12" width="1" height="1" shape-rendering="crispEdges" style="fill:#2c0f30;opacity:255;"></rect><rect id="28-13" x="27" y="12" width="1" height="1" shape-rendering="crispEdges" style="fill:#2c0f30;opacity:255;"></rect><rect id="29-13" x="28" y="12" width="1" height="1" shape-rendering="crispEdges" style="fill:#2c0f30;opacity:255;"></rect><rect id="7-14" x="6" y="13" width="1" height="1" shape-rendering="crispEdges" style="fill:#2c0f30;opacity:255;"></rect><rect id="8-14" x="7" y="13" width="1" height="1" shape-rendering="crispEdges" style="fill:#2c0f30;opacity:255;"></rect><rect id="9-14" x="8" y="13" width="1" height="1" shape-rendering="crispEdges" style="fill:#2c0f30;opacity:255;"></rect><rect id="10-14" x="9" y="13" width="1" height="1" shape-rendering="crispEdges" style="fill:#2c0f30;opacity:255;"></rect><rect id="11-14" x="10" y="13" width="1" height="1" shape-rendering="crispEdges" style="fill:#2c0f30;opacity:255;"></rect><rect id="12-14" x="11" y="13" width="1" height="1" shape-rendering="crispEdges" style="fill:#2c0f30;opacity:255;"></rect><rect id="13-14" x="12" y="13" width="1" height="1" shape-rendering="crispEdges" style="fill:#2c0f30;opacity:255;"></rect><rect id="14-14" x="13" y="13" width="1" height="1" shape-rendering="crispEdges" style="fill:#2c0f30;opacity:255;"></rect><rect id="15-14" x="14" y="13" width="1" height="1" shape-rendering="crispEdges" style="fill:#2c0f30;opacity:255;"></rect><rect id="16-14" x="15" y="13" width="1" height="1" shape-rendering="crispEdges" style="fill:#2c0f30;opacity:255;"></rect><rect id="17-14" x="16" y="13" width="1" height="1" shape-rendering="crispEdges" style="fill:#2c0f30;opacity:255;"></rect><rect id="18-14" x="17" y="13" width="1" height="1" shape-rendering="crispEdges" style="fill:#2c0f30;opacity:255;"></rect><rect id="19-14" x="18" y="13" width="1" height="1" shape-rendering="crispEdges" style="fill:#2c0f30;opacity:255;"></rect><rect id="20-14" x="19" y="13" width="1" height="1" shape-rendering="crispEdges" style="fill:#2c0f30;opacity:255;"></rect><rect id="21-14" x="20" y="13" width="1" height="1" shape-rendering="crispEdges" style="fill:#2c0f30;opacity:255;"></rect><rect id="22-14" x="21" y="13" width="1" height="1" shape-rendering="crispEdges" style="fill:#2c0f30;opacity:255;"></rect><rect id="23-14" x="22" y="13" width="1" height="1" shape-rendering="crispEdges" style="fill:#2c0f30;opacity:255;"></rect><rect id="24-14" x="23" y="13" width="1" height="1" shape-rendering="crispEdges" style="fill:#2c0f30;opacity:255;"></rect><rect id="25-14" x="24" y="13" width="1" height="1" shape-rendering="crispEdges" style="fill:#2c0f30;opacity:255;"></rect><rect id="26-14" x="25" y="13" width="1" height="1" shape-rendering="crispEdges" style="fill:#2c0f30;opacity:255;"></rect><rect id="27-14" x="26" y="13" width="1" height="1" shape-rendering="crispEdges" style="fill:#2c0f30;opacity:255;"></rect><rect id="28-14" x="27" y="13" width="1" height="1" shape-rendering="crispEdges" style="fill:#2c0f30;opacity:255;"></rect><rect id="6-15" x="5" y="14" width="1" height="1" shape-rendering="crispEdges" style="fill:#2c0f30;opacity:255;"></rect><rect id="7-15" x="6" y="14" width="1" height="1" shape-rendering="crispEdges" style="fill:#2c0f30;opacity:255;"></rect><rect id="8-15" x="7" y="14" width="1" height="1" shape-rendering="crispEdges" style="fill:#2c0f30;opacity:255;"></rect><rect id="9-15" x="8" y="14" width="1" height="1" shape-rendering="crispEdges" style="fill:#2c0f30;opacity:255;"></rect><rect id="10-15" x="9" y="14" width="1" height="1" shape-rendering="crispEdges" style="fill:#2c0f30;opacity:255;"></rect><rect id="11-15" x="10" y="14" width="1" height="1" shape-rendering="crispEdges" style="fill:#2c0f30;opacity:255;"></rect><rect id="12-15" x="11" y="14" width="1" height="1" shape-rendering="crispEdges" style="fill:#2c0f30;opacity:255;"></rect><rect id="13-15" x="12" y="14" width="1" height="1" shape-rendering="crispEdges" style="fill:#2c0f30;opacity:255;"></rect><rect id="14-15" x="13" y="14" width="1" height="1" shape-rendering="crispEdges" style="fill:#2c0f30;opacity:255;"></rect><rect id="15-15" x="14" y="14" width="1" height="1" shape-rendering="crispEdges" style="fill:#2c0f30;opacity:255;"></rect><rect id="16-15" x="15" y="14" width="1" height="1" shape-rendering="crispEdges" style="fill:#2c0f30;opacity:255;"></rect><rect id="17-15" x="16" y="14" width="1" height="1" shape-rendering="crispEdges" style="fill:#2c0f30;opacity:255;"></rect><rect id="18-15" x="17" y="14" width="1" height="1" shape-rendering="crispEdges" style="fill:#2c0f30;opacity:255;"></rect><rect id="19-15" x="18" y="14" width="1" height="1" shape-rendering="crispEdges" style="fill:#2c0f30;opacity:255;"></rect><rect id="20-15" x="19" y="14" width="1" height="1" shape-rendering="crispEdges" style="fill:#2c0f30;opacity:255;"></rect><rect id="21-15" x="20" y="14" width="1" height="1" shape-rendering="crispEdges" style="fill:#2c0f30;opacity:255;"></rect><rect id="22-15" x="21" y="14" width="1" height="1" shape-rendering="crispEdges" style="fill:#2c0f30;opacity:255;"></rect><rect id="23-15" x="22" y="14" width="1" height="1" shape-rendering="crispEdges" style="fill:#2c0f30;opacity:255;"></rect><rect id="24-15" x="23" y="14" width="1" height="1" shape-rendering="crispEdges" style="fill:#2c0f30;opacity:255;"></rect><rect id="25-15" x="24" y="14" width="1" height="1" shape-rendering="crispEdges" style="fill:#2c0f30;opacity:255;"></rect><rect id="26-15" x="25" y="14" width="1" height="1" shape-rendering="crispEdges" style="fill:#2c0f30;opacity:255;"></rect><rect id="27-15" x="26" y="14" width="1" height="1" shape-rendering="crispEdges" style="fill:#2c0f30;opacity:255;"></rect><rect id="5-16" x="4" y="15" width="1" height="1" shape-rendering="crispEdges" style="fill:#2c0f30;opacity:255;"></rect><rect id="6-16" x="5" y="15" width="1" height="1" shape-rendering="crispEdges" style="fill:#2c0f30;opacity:255;"></rect><rect id="7-16" x="6" y="15" width="1" height="1" shape-rendering="crispEdges" style="fill:#2c0f30;opacity:255;"></rect><rect id="8-16" x="7" y="15" width="1" height="1" shape-rendering="crispEdges" style="fill:#2c0f30;opacity:255;"></rect><rect id="9-16" x="8" y="15" width="1" height="1" shape-rendering="crispEdges" style="fill:#2c0f30;opacity:255;"></rect><rect id="10-16" x="9" y="15" width="1" height="1" shape-rendering="crispEdges" style="fill:#2c0f30;opacity:255;"></rect><rect id="11-16" x="10" y="15" width="1" height="1" shape-rendering="crispEdges" style="fill:#2c0f30;opacity:255;"></rect><rect id="12-16" x="11" y="15" width="1" height="1" shape-rendering="crispEdges" style="fill:#2c0f30;opacity:255;"></rect><rect id="13-16" x="12" y="15" width="1" height="1" shape-rendering="crispEdges" style="fill:#2c0f30;opacity:255;"></rect><rect id="14-16" x="13" y="15" width="1" height="1" shape-rendering="crispEdges" style="fill:#2c0f30;opacity:255;"></rect><rect id="15-16" x="14" y="15" width="1" height="1" shape-rendering="crispEdges" style="fill:#2c0f30;opacity:255;"></rect><rect id="16-16" x="15" y="15" width="1" height="1" shape-rendering="crispEdges" style="fill:#2c0f30;opacity:255;"></rect><rect id="17-16" x="16" y="15" width="1" height="1" shape-rendering="crispEdges" style="fill:#2c0f30;opacity:255;"></rect><rect id="18-16" x="17" y="15" width="1" height="1" shape-rendering="crispEdges" style="fill:#2c0f30;opacity:255;"></rect><rect id="19-16" x="18" y="15" width="1" height="1" shape-rendering="crispEdges" style="fill:#2c0f30;opacity:255;"></rect><rect id="20-16" x="19" y="15" width="1" height="1" shape-rendering="crispEdges" style="fill:#2c0f30;opacity:255;"></rect><rect id="21-16" x="20" y="15" width="1" height="1" shape-rendering="crispEdges" style="fill:#2c0f30;opacity:255;"></rect><rect id="22-16" x="21" y="15" width="1" height="1" shape-rendering="crispEdges" style="fill:#2c0f30;opacity:255;"></rect><rect id="23-16" x="22" y="15" width="1" height="1" shape-rendering="crispEdges" style="fill:#2c0f30;opacity:255;"></rect><rect id="24-16" x="23" y="15" width="1" height="1" shape-rendering="crispEdges" style="fill:#2c0f30;opacity:255;"></rect><rect id="25-16" x="24" y="15" width="1" height="1" shape-rendering="crispEdges" style="fill:#2c0f30;opacity:255;"></rect><rect id="26-16" x="25" y="15" width="1" height="1" shape-rendering="crispEdges" style="fill:#2c0f30;opacity:255;"></rect><rect id="5-17" x="4" y="16" width="1" height="1" shape-rendering="crispEdges" style="fill:#2c0f30;opacity:255;"></rect><rect id="6-17" x="5" y="16" width="1" height="1" shape-rendering="crispEdges" style="fill:#2c0f30;opacity:255;"></rect><rect id="7-17" x="6" y="16" width="1" height="1" shape-rendering="crispEdges" style="fill:#2c0f30;opacity:255;"></rect><rect id="8-17" x="7" y="16" width="1" height="1" shape-rendering="crispEdges" style="fill:#2c0f30;opacity:255;"></rect><rect id="9-17" x="8" y="16" width="1" height="1" shape-rendering="crispEdges" style="fill:#2c0f30;opacity:255;"></rect><rect id="10-17" x="9" y="16" width="1" height="1" shape-rendering="crispEdges" style="fill:#2c0f30;opacity:255;"></rect><rect id="11-17" x="10" y="16" width="1" height="1" shape-rendering="crispEdges" style="fill:#2c0f30;opacity:255;"></rect><rect id="12-17" x="11" y="16" width="1" height="1" shape-rendering="crispEdges" style="fill:#2c0f30;opacity:255;"></rect><rect id="13-17" x="12" y="16" width="1" height="1" shape-rendering="crispEdges" style="fill:#2c0f30;opacity:255;"></rect><rect id="14-17" x="13" y="16" width="1" height="1" shape-rendering="crispEdges" style="fill:#2c0f30;opacity:255;"></rect><rect id="15-17" x="14" y="16" width="1" height="1" shape-rendering="crispEdges" style="fill:#2c0f30;opacity:255;"></rect><rect id="16-17" x="15" y="16" width="1" height="1" shape-rendering="crispEdges" style="fill:#2c0f30;opacity:255;"></rect><rect id="17-17" x="16" y="16" width="1" height="1" shape-rendering="crispEdges" style="fill:#2c0f30;opacity:255;"></rect><rect id="18-17" x="17" y="16" width="1" height="1" shape-rendering="crispEdges" style="fill:#2c0f30;opacity:255;"></rect><rect id="19-17" x="18" y="16" width="1" height="1" shape-rendering="crispEdges" style="fill:#2c0f30;opacity:255;"></rect><rect id="20-17" x="19" y="16" width="1" height="1" shape-rendering="crispEdges" style="fill:#2c0f30;opacity:255;"></rect><rect id="21-17" x="20" y="16" width="1" height="1" shape-rendering="crispEdges" style="fill:#2c0f30;opacity:255;"></rect><rect id="22-17" x="21" y="16" width="1" height="1" shape-rendering="crispEdges" style="fill:#2c0f30;opacity:255;"></rect><rect id="23-17" x="22" y="16" width="1" height="1" shape-rendering="crispEdges" style="fill:#2c0f30;opacity:255;"></rect><rect id="24-17" x="23" y="16" width="1" height="1" shape-rendering="crispEdges" style="fill:#2c0f30;opacity:255;"></rect><rect id="25-17" x="24" y="16" width="1" height="1" shape-rendering="crispEdges" style="fill:#2c0f30;opacity:255;"></rect><rect id="5-18" x="4" y="17" width="1" height="1" shape-rendering="crispEdges" style="fill:#2c0f30;opacity:255;"></rect><rect id="6-18" x="5" y="17" width="1" height="1" shape-rendering="crispEdges" style="fill:#2c0f30;opacity:255;"></rect><rect id="7-18" x="6" y="17" width="1" height="1" shape-rendering="crispEdges" style="fill:#2c0f30;opacity:255;"></rect><rect id="8-18" x="7" y="17" width="1" height="1" shape-rendering="crispEdges" style="fill:#2c0f30;opacity:255;"></rect><rect id="9-18" x="8" y="17" width="1" height="1" shape-rendering="crispEdges" style="fill:#2c0f30;opacity:255;"></rect><rect id="10-18" x="9" y="17" width="1" height="1" shape-rendering="crispEdges" style="fill:#2c0f30;opacity:255;"></rect><rect id="11-18" x="10" y="17" width="1" height="1" shape-rendering="crispEdges" style="fill:#2c0f30;opacity:255;"></rect><rect id="12-18" x="11" y="17" width="1" height="1" shape-rendering="crispEdges" style="fill:#2c0f30;opacity:255;"></rect><rect id="13-18" x="12" y="17" width="1" height="1" shape-rendering="crispEdges" style="fill:#2c0f30;opacity:255;"></rect><rect id="19-18" x="18" y="17" width="1" height="1" shape-rendering="crispEdges" style="fill:#2c0f30;opacity:255;"></rect><rect id="20-18" x="19" y="17" width="1" height="1" shape-rendering="crispEdges" style="fill:#2c0f30;opacity:255;"></rect><rect id="21-18" x="20" y="17" width="1" height="1" shape-rendering="crispEdges" style="fill:#2c0f30;opacity:255;"></rect><rect id="22-18" x="21" y="17" width="1" height="1" shape-rendering="crispEdges" style="fill:#2c0f30;opacity:255;"></rect><rect id="23-18" x="22" y="17" width="1" height="1" shape-rendering="crispEdges" style="fill:#2c0f30;opacity:255;"></rect><rect id="24-18" x="23" y="17" width="1" height="1" shape-rendering="crispEdges" style="fill:#2c0f30;opacity:255;"></rect><rect id="5-19" x="4" y="18" width="1" height="1" shape-rendering="crispEdges" style="fill:#2c0f30;opacity:255;"></rect><rect id="6-19" x="5" y="18" width="1" height="1" shape-rendering="crispEdges" style="fill:#2c0f30;opacity:255;"></rect><rect id="7-19" x="6" y="18" width="1" height="1" shape-rendering="crispEdges" style="fill:#2c0f30;opacity:255;"></rect><rect id="8-19" x="7" y="18" width="1" height="1" shape-rendering="crispEdges" style="fill:#2c0f30;opacity:255;"></rect><rect id="9-19" x="8" y="18" width="1" height="1" shape-rendering="crispEdges" style="fill:#2c0f30;opacity:255;"></rect><rect id="10-19" x="9" y="18" width="1" height="1" shape-rendering="crispEdges" style="fill:#2c0f30;opacity:255;"></rect><rect id="19-19" x="18" y="18" width="1" height="1" shape-rendering="crispEdges" style="fill:#2c0f30;opacity:255;"></rect><rect id="20-19" x="19" y="18" width="1" height="1" shape-rendering="crispEdges" style="fill:#2c0f30;opacity:255;"></rect><rect id="21-19" x="20" y="18" width="1" height="1" shape-rendering="crispEdges" style="fill:#2c0f30;opacity:255;"></rect><rect id="22-19" x="21" y="18" width="1" height="1" shape-rendering="crispEdges" style="fill:#2c0f30;opacity:255;"></rect><rect id="23-19" x="22" y="18" width="1" height="1" shape-rendering="crispEdges" style="fill:#2c0f30;opacity:255;"></rect><rect id="5-20" x="4" y="19" width="1" height="1" shape-rendering="crispEdges" style="fill:#2c0f30;opacity:255;"></rect><rect id="6-20" x="5" y="19" width="1" height="1" shape-rendering="crispEdges" style="fill:#2c0f30;opacity:255;"></rect><rect id="7-20" x="6" y="19" width="1" height="1" shape-rendering="crispEdges" style="fill:#2c0f30;opacity:255;"></rect><rect id="8-20" x="7" y="19" width="1" height="1" shape-rendering="crispEdges" style="fill:#2c0f30;opacity:255;"></rect><rect id="9-20" x="8" y="19" width="1" height="1" shape-rendering="crispEdges" style="fill:#2c0f30;opacity:255;"></rect><rect id="19-20" x="18" y="19" width="1" height="1" shape-rendering="crispEdges" style="fill:#2c0f30;opacity:255;"></rect><rect id="20-20" x="19" y="19" width="1" height="1" shape-rendering="crispEdges" style="fill:#2c0f30;opacity:255;"></rect><rect id="21-20" x="20" y="19" width="1" height="1" shape-rendering="crispEdges" style="fill:#2c0f30;opacity:255;"></rect><rect id="22-20" x="21" y="19" width="1" height="1" shape-rendering="crispEdges" style="fill:#2c0f30;opacity:255;"></rect><rect id="5-21" x="4" y="20" width="1" height="1" shape-rendering="crispEdges" style="fill:#2c0f30;opacity:255;"></rect><rect id="6-21" x="5" y="20" width="1" height="1" shape-rendering="crispEdges" style="fill:#2c0f30;opacity:255;"></rect><rect id="7-21" x="6" y="20" width="1" height="1" shape-rendering="crispEdges" style="fill:#2c0f30;opacity:255;"></rect><rect id="8-21" x="7" y="20" width="1" height="1" shape-rendering="crispEdges" style="fill:#2c0f30;opacity:255;"></rect><rect id="9-21" x="8" y="20" width="1" height="1" shape-rendering="crispEdges" style="fill:#2c0f30;opacity:255;"></rect><rect id="19-21" x="18" y="20" width="1" height="1" shape-rendering="crispEdges" style="fill:#2c0f30;opacity:255;"></rect><rect id="20-21" x="19" y="20" width="1" height="1" shape-rendering="crispEdges" style="fill:#2c0f30;opacity:255;"></rect><rect id="21-21" x="20" y="20" width="1" height="1" shape-rendering="crispEdges" style="fill:#2c0f30;opacity:255;"></rect><rect id="5-22" x="4" y="21" width="1" height="1" shape-rendering="crispEdges" style="fill:#2c0f30;opacity:255;"></rect><rect id="6-22" x="5" y="21" width="1" height="1" shape-rendering="crispEdges" style="fill:#2c0f30;opacity:255;"></rect><rect id="7-22" x="6" y="21" width="1" height="1" shape-rendering="crispEdges" style="fill:#2c0f30;opacity:255;"></rect><rect id="8-22" x="7" y="21" width="1" height="1" shape-rendering="crispEdges" style="fill:#2c0f30;opacity:255;"></rect><rect id="9-22" x="8" y="21" width="1" height="1" shape-rendering="crispEdges" style="fill:#2c0f30;opacity:255;"></rect><rect id="10-22" x="9" y="21" width="1" height="1" shape-rendering="crispEdges" style="fill:#2c0f30;opacity:255;"></rect><rect id="19-22" x="18" y="21" width="1" height="1" shape-rendering="crispEdges" style="fill:#2c0f30;opacity:255;"></rect><rect id="20-22" x="19" y="21" width="1" height="1" shape-rendering="crispEdges" style="fill:#2c0f30;opacity:255;"></rect><rect id="6-23" x="5" y="22" width="1" height="1" shape-rendering="crispEdges" style="fill:#2c0f30;opacity:255;"></rect><rect id="7-23" x="6" y="22" width="1" height="1" shape-rendering="crispEdges" style="fill:#2c0f30;opacity:255;"></rect><rect id="8-23" x="7" y="22" width="1" height="1" shape-rendering="crispEdges" style="fill:#2c0f30;opacity:255;"></rect><rect id="9-23" x="8" y="22" width="1" height="1" shape-rendering="crispEdges" style="fill:#2c0f30;opacity:255;"></rect><rect id="10-23" x="9" y="22" width="1" height="1" shape-rendering="crispEdges" style="fill:#2c0f30;opacity:255;"></rect><rect id="6-24" x="5" y="23" width="1" height="1" shape-rendering="crispEdges" style="fill:#2c0f30;opacity:255;"></rect><rect id="7-24" x="6" y="23" width="1" height="1" shape-rendering="crispEdges" style="fill:#2c0f30;opacity:255;"></rect><rect id="8-24" x="7" y="23" width="1" height="1" shape-rendering="crispEdges" style="fill:#2c0f30;opacity:255;"></rect><rect id="9-24" x="8" y="23" width="1" height="1" shape-rendering="crispEdges" style="fill:#2c0f30;opacity:255;"></rect><rect id="10-24" x="9" y="23" width="1" height="1" shape-rendering="crispEdges" style="fill:#2c0f30;opacity:255;"></rect><rect id="7-25" x="6" y="24" width="1" height="1" shape-rendering="crispEdges" style="fill:#2c0f30;opacity:255;"></rect><rect id="8-25" x="7" y="24" width="1" height="1" shape-rendering="crispEdges" style="fill:#2c0f30;opacity:255;"></rect><rect id="9-25" x="8" y="24" width="1" height="1" shape-rendering="crispEdges" style="fill:#2c0f30;opacity:255;"></rect><rect id="10-25" x="9" y="24" width="1" height="1" shape-rendering="crispEdges" style="fill:#2c0f30;opacity:255;"></rect><rect id="11-25" x="10" y="24" width="1" height="1" shape-rendering="crispEdges" style="fill:#2c0f30;opacity:255;"></rect><rect id="7-26" x="6" y="25" width="1" height="1" shape-rendering="crispEdges" style="fill:#2c0f30;opacity:255;"></rect><rect id="8-26" x="7" y="25" width="1" height="1" shape-rendering="crispEdges" style="fill:#2c0f30;opacity:255;"></rect><rect id="9-26" x="8" y="25" width="1" height="1" shape-rendering="crispEdges" style="fill:#2c0f30;opacity:255;"></rect><rect id="10-26" x="9" y="25" width="1" height="1" shape-rendering="crispEdges" style="fill:#2c0f30;opacity:255;"></rect><rect id="11-26" x="10" y="25" width="1" height="1" shape-rendering="crispEdges" style="fill:#2c0f30;opacity:255;"></rect><rect id="12-26" x="11" y="25" width="1" height="1" shape-rendering="crispEdges" style="fill:#2c0f30;opacity:255;"></rect><rect id="8-27" x="7" y="26" width="1" height="1" shape-rendering="crispEdges" style="fill:#2c0f30;opacity:255;"></rect><rect id="9-27" x="8" y="26" width="1" height="1" shape-rendering="crispEdges" style="fill:#2c0f30;opacity:255;"></rect><rect id="10-27" x="9" y="26" width="1" height="1" shape-rendering="crispEdges" style="fill:#2c0f30;opacity:255;"></rect><rect id="11-27" x="10" y="26" width="1" height="1" shape-rendering="crispEdges" style="fill:#2c0f30;opacity:255;"></rect><rect id="12-27" x="11" y="26" width="1" height="1" shape-rendering="crispEdges" style="fill:#2c0f30;opacity:255;"></rect><rect id="13-27" x="12" y="26" width="1" height="1" shape-rendering="crispEdges" style="fill:#2c0f30;opacity:255;"></rect><rect id="14-27" x="13" y="26" width="1" height="1" shape-rendering="crispEdges" style="fill:#2c0f30;opacity:255;"></rect><rect id="15-27" x="14" y="26" width="1" height="1" shape-rendering="crispEdges" style="fill:#2c0f30;opacity:255;"></rect><rect id="16-27" x="15" y="26" width="1" height="1" shape-rendering="crispEdges" style="fill:#2c0f30;opacity:255;"></rect><rect id="10-28" x="9" y="27" width="1" height="1" shape-rendering="crispEdges" style="fill:#2c0f30;opacity:255;"></rect><rect id="11-28" x="10" y="27" width="1" height="1" shape-rendering="crispEdges" style="fill:#2c0f30;opacity:255;"></rect><rect id="12-28" x="11" y="27" width="1" height="1" shape-rendering="crispEdges" style="fill:#2c0f30;opacity:255;"></rect><rect id="13-28" x="12" y="27" width="1" height="1" shape-rendering="crispEdges" style="fill:#2c0f30;opacity:255;"></rect><rect id="14-28" x="13" y="27" width="1" height="1" shape-rendering="crispEdges" style="fill:#2c0f30;opacity:255;"></rect><rect id="15-28" x="14" y="27" width="1" height="1" shape-rendering="crispEdges" style="fill:#2c0f30;opacity:255;"></rect><rect id="16-28" x="15" y="27" width="1" height="1" shape-rendering="crispEdges" style="fill:#2c0f30;opacity:255;"></rect><rect id="17-28" x="16" y="27" width="1" height="1" shape-rendering="crispEdges" style="fill:#2c0f30;opacity:255;"></rect><rect id="18-28" x="17" y="27" width="1" height="1" shape-rendering="crispEdges" style="fill:#2c0f30;opacity:255;"></rect><rect id="19-28" x="18" y="27" width="1" height="1" shape-rendering="crispEdges" style="fill:#2c0f30;opacity:255;"></rect><rect id="20-28" x="19" y="27" width="1" height="1" shape-rendering="crispEdges" style="fill:#2c0f30;opacity:255;"></rect><rect id="12-29" x="11" y="28" width="1" height="1" shape-rendering="crispEdges" style="fill:#2c0f30;opacity:255;"></rect><rect id="13-29" x="12" y="28" width="1" height="1" shape-rendering="crispEdges" style="fill:#2c0f30;opacity:255;"></rect><rect id="14-29" x="13" y="28" width="1" height="1" shape-rendering="crispEdges" style="fill:#2c0f30;opacity:255;"></rect><rect id="15-29" x="14" y="28" width="1" height="1" shape-rendering="crispEdges" style="fill:#2c0f30;opacity:255;"></rect><rect id="16-29" x="15" y="28" width="1" height="1" shape-rendering="crispEdges" style="fill:#2c0f30;opacity:255;"></rect><rect id="17-29" x="16" y="28" width="1" height="1" shape-rendering="crispEdges" style="fill:#2c0f30;opacity:255;"></rect><rect id="18-29" x="17" y="28" width="1" height="1" shape-rendering="crispEdges" style="fill:#2c0f30;opacity:255;"></rect><rect id="19-29" x="18" y="28" width="1" height="1" shape-rendering="crispEdges" style="fill:#2c0f30;opacity:255;"></rect><rect id="20-29" x="19" y="28" width="1" height="1" shape-rendering="crispEdges" style="fill:#2c0f30;opacity:255;"></rect></svg>