<?xml version="1.0" encoding="UTF-8" standalone="no"?><svg xmlns="http://www.w3.org/2000/svg" id="eye" width="48" height="32" viewBox="0 0 48 32" preserveAspectRatio="xMidYMid meet" rendering="crispEdges"><rect id="19-7" x="18" y="6" width="1" height="1" shape-rendering="crispEdges" style="fill:#2c0f30;opacity:255;"></rect><rect id="20-7" x="19" y="6" width="1" height="1" shape-rendering="crispEdges" style="fill:#2c0f30;opacity:255;"></rect><rect id="21-7" x="20" y="6" width="1" height="1" shape-rendering="crispEdges" style="fill:#2c0f30;opacity:255;"></rect><rect id="22-7" x="21" y="6" width="1" height="1" shape-rendering="crispEdges" style="fill:#2c0f30;opacity:255;"></rect><rect id="23-7" x="22" y="6" width="1" height="1" shape-rendering="crispEdges" style="fill:#2c0f30;opacity:255;"></rect><rect id="24-7" x="23" y="6" width="1" height="1" shape-rendering="crispEdges" style="fill:#2c0f30;opacity:255;"></rect><rect id="25-7" x="24" y="6" width="1" height="1" shape-rendering="crispEdges" style="fill:#2c0f30;opacity:255;"></rect><rect id="26-7" x="25" y="6" width="1" height="1" shape-rendering="crispEdges" style="fill:#2c0f30;opacity:255;"></rect><rect id="27-7" x="26" y="6" width="1" height="1" shape-rendering="crispEdges" style="fill:#2c0f30;opacity:255;"></rect><rect id="28-7" x="27" y="6" width="1" height="1" shape-rendering="crispEdges" style="fill:#2c0f30;opacity:255;"></rect><rect id="29-7" x="28" y="6" width="1" height="1" shape-rendering="crispEdges" style="fill:#2c0f30;opacity:255;"></rect><rect id="30-7" x="29" y="6" width="1" height="1" shape-rendering="crispEdges" style="fill:#2c0f30;opacity:255;"></rect><rect id="19-8" x="18" y="7" width="1" height="1" shape-rendering="crispEdges" style="fill:#2c0f30;opacity:255;"></rect><rect id="20-8" x="19" y="7" width="1" height="1" shape-rendering="crispEdges" style="fill:#2c0f30;opacity:255;"></rect><rect id="21-8" x="20" y="7" width="1" height="1" shape-rendering="crispEdges" style="fill:#2c0f30;opacity:255;"></rect><rect id="22-8" x="21" y="7" width="1" height="1" shape-rendering="crispEdges" style="fill:#2c0f30;opacity:255;"></rect><rect id="23-8" x="22" y="7" width="1" height="1" shape-rendering="crispEdges" style="fill:#2c0f30;opacity:255;"></rect><rect id="24-8" x="23" y="7" width="1" height="1" shape-rendering="crispEdges" style="fill:#2c0f30;opacity:255;"></rect><rect id="25-8" x="24" y="7" width="1" height="1" shape-rendering="crispEdges" style="fill:#2c0f30;opacity:255;"></rect><rect id="26-8" x="25" y="7" width="1" height="1" shape-rendering="crispEdges" style="fill:#2c0f30;opacity:255;"></rect><rect id="27-8" x="26" y="7" width="1" height="1" shape-rendering="crispEdges" style="fill:#2c0f30;opacity:255;"></rect><rect id="28-8" x="27" y="7" width="1" height="1" shape-rendering="crispEdges" style="fill:#2c0f30;opacity:255;"></rect><rect id="29-8" x="28" y="7" width="1" height="1" shape-rendering="crispEdges" style="fill:#2c0f30;opacity:255;"></rect><rect id="30-8" x="29" y="7" width="1" height="1" shape-rendering="crispEdges" style="fill:#2c0f30;opacity:255;"></rect><rect id="16-9" x="15" y="8" width="1" height="1" shape-rendering="crispEdges" style="fill:#2c0f30;opacity:255;"></rect><rect id="17-9" x="16" y="8" width="1" height="1" shape-rendering="crispEdges" style="fill:#2c0f30;opacity:255;"></rect><rect id="18-9" x="17" y="8" width="1" height="1" shape-rendering="crispEdges" style="fill:#2c0f30;opacity:255;"></rect><rect id="19-9" x="18" y="8" width="1" height="1" shape-rendering="crispEdges" style="fill:#2c0f30;opacity:255;"></rect><rect id="30-9" x="29" y="8" width="1" height="1" shape-rendering="crispEdges" style="fill:#2c0f30;opacity:255;"></rect><rect id="31-9" x="30" y="8" width="1" height="1" shape-rendering="crispEdges" style="fill:#2c0f30;opacity:255;"></rect><rect id="32-9" x="31" y="8" width="1" height="1" shape-rendering="crispEdges" style="fill:#2c0f30;opacity:255;"></rect><rect id="33-9" x="32" y="8" width="1" height="1" shape-rendering="crispEdges" style="fill:#2c0f30;opacity:255;"></rect><rect id="16-10" x="15" y="9" width="1" height="1" shape-rendering="crispEdges" style="fill:#2c0f30;opacity:255;"></rect><rect id="17-10" x="16" y="9" width="1" height="1" shape-rendering="crispEdges" style="fill:#2c0f30;opacity:255;"></rect><rect id="18-10" x="17" y="9" width="1" height="1" shape-rendering="crispEdges" style="fill:#2c0f30;opacity:255;"></rect><rect id="31-10" x="30" y="9" width="1" height="1" shape-rendering="crispEdges" style="fill:#2c0f30;opacity:255;"></rect><rect id="32-10" x="31" y="9" width="1" height="1" shape-rendering="crispEdges" style="fill:#2c0f30;opacity:255;"></rect><rect id="33-10" x="32" y="9" width="1" height="1" shape-rendering="crispEdges" style="fill:#2c0f30;opacity:255;"></rect><rect id="12-11" x="11" y="10" width="1" height="1" shape-rendering="crispEdges" style="fill:#2c0f30;opacity:255;"></rect><rect id="13-11" x="12" y="10" width="1" height="1" shape-rendering="crispEdges" style="fill:#2c0f30;opacity:255;"></rect><rect id="14-11" x="13" y="10" width="1" height="1" shape-rendering="crispEdges" style="fill:#2c0f30;opacity:255;"></rect><rect id="15-11" x="14" y="10" width="1" height="1" shape-rendering="crispEdges" style="fill:#2c0f30;opacity:255;"></rect><rect id="16-11" x="15" y="10" width="1" height="1" shape-rendering="crispEdges" style="fill:#2c0f30;opacity:255;"></rect><rect id="22-11" x="21" y="10" width="1" height="1" shape-rendering="crispEdges" style="fill:#2c0f30;opacity:255;"></rect><rect id="23-11" x="22" y="10" width="1" height="1" shape-rendering="crispEdges" style="fill:#2c0f30;opacity:255;"></rect><rect id="24-11" x="23" y="10" width="1" height="1" shape-rendering="crispEdges" style="fill:#2c0f30;opacity:255;"></rect><rect id="25-11" x="24" y="10" width="1" height="1" shape-rendering="crispEdges" style="fill:#2c0f30;opacity:255;"></rect><rect id="26-11" x="25" y="10" width="1" height="1" shape-rendering="crispEdges" style="fill:#2c0f30;opacity:255;"></rect><rect id="27-11" x="26" y="10" width="1" height="1" shape-rendering="crispEdges" style="fill:#2c0f30;opacity:255;"></rect><rect id="33-11" x="32" y="10" width="1" height="1" shape-rendering="crispEdges" style="fill:#2c0f30;opacity:255;"></rect><rect id="34-11" x="33" y="10" width="1" height="1" shape-rendering="crispEdges" style="fill:#2c0f30;opacity:255;"></rect><rect id="35-11" x="34" y="10" width="1" height="1" shape-rendering="crispEdges" style="fill:#2c0f30;opacity:255;"></rect><rect id="36-11" x="35" y="10" width="1" height="1" shape-rendering="crispEdges" style="fill:#2c0f30;opacity:255;"></rect><rect id="37-11" x="36" y="10" width="1" height="1" shape-rendering="crispEdges" style="fill:#2c0f30;opacity:255;"></rect><rect id="12-12" x="11" y="11" width="1" height="1" shape-rendering="crispEdges" style="fill:#2c0f30;opacity:255;"></rect><rect id="13-12" x="12" y="11" width="1" height="1" shape-rendering="crispEdges" style="fill:#2c0f30;opacity:255;"></rect><rect id="14-12" x="13" y="11" width="1" height="1" shape-rendering="crispEdges" style="fill:#2c0f30;opacity:255;"></rect><rect id="15-12" x="14" y="11" width="1" height="1" shape-rendering="crispEdges" style="fill:#2c0f30;opacity:255;"></rect><rect id="22-12" x="21" y="11" width="1" height="1" shape-rendering="crispEdges" style="fill:#2c0f30;opacity:255;"></rect><rect id="23-12" x="22" y="11" width="1" height="1" shape-rendering="crispEdges" style="fill:#2c0f30;opacity:255;"></rect><rect id="24-12" x="23" y="11" width="1" height="1" shape-rendering="crispEdges" style="fill:#2c0f30;opacity:255;"></rect><rect id="25-12" x="24" y="11" width="1" height="1" shape-rendering="crispEdges" style="fill:#2c0f30;opacity:255;"></rect><rect id="26-12" x="25" y="11" width="1" height="1" shape-rendering="crispEdges" style="fill:#2c0f30;opacity:255;"></rect><rect id="27-12" x="26" y="11" width="1" height="1" shape-rendering="crispEdges" style="fill:#2c0f30;opacity:255;"></rect><rect id="34-12" x="33" y="11" width="1" height="1" shape-rendering="crispEdges" style="fill:#2c0f30;opacity:255;"></rect><rect id="35-12" x="34" y="11" width="1" height="1" shape-rendering="crispEdges" style="fill:#2c0f30;opacity:255;"></rect><rect id="36-12" x="35" y="11" width="1" height="1" shape-rendering="crispEdges" style="fill:#2c0f30;opacity:255;"></rect><rect id="37-12" x="36" y="11" width="1" height="1" shape-rendering="crispEdges" style="fill:#2c0f30;opacity:255;"></rect><rect id="10-13" x="9" y="12" width="1" height="1" shape-rendering="crispEdges" style="fill:#2c0f30;opacity:255;"></rect><rect id="11-13" x="10" y="12" width="1" height="1" shape-rendering="crispEdges" style="fill:#2c0f30;opacity:255;"></rect><rect id="12-13" x="11" y="12" width="1" height="1" shape-rendering="crispEdges" style="fill:#2c0f30;opacity:255;"></rect><rect id="20-13" x="19" y="12" width="1" height="1" shape-rendering="crispEdges" style="fill:#2c0f30;opacity:255;"></rect><rect id="21-13" x="20" y="12" width="1" height="1" shape-rendering="crispEdges" style="fill:#2c0f30;opacity:255;"></rect><rect id="22-13" x="21" y="12" width="1" height="1" shape-rendering="crispEdges" style="fill:#2c0f30;opacity:255;"></rect><rect id="27-13" x="26" y="12" width="1" height="1" shape-rendering="crispEdges" style="fill:#2c0f30;opacity:255;"></rect><rect id="28-13" x="27" y="12" width="1" height="1" shape-rendering="crispEdges" style="fill:#2c0f30;opacity:255;"></rect><rect id="29-13" x="28" y="12" width="1" height="1" shape-rendering="crispEdges" style="fill:#2c0f30;opacity:255;"></rect><rect id="37-13" x="36" y="12" width="1" height="1" shape-rendering="crispEdges" style="fill:#2c0f30;opacity:255;"></rect><rect id="38-13" x="37" y="12" width="1" height="1" shape-rendering="crispEdges" style="fill:#2c0f30;opacity:255;"></rect><rect id="39-13" x="38" y="12" width="1" height="1" shape-rendering="crispEdges" style="fill:#2c0f30;opacity:255;"></rect><rect id="10-14" x="9" y="13" width="1" height="1" shape-rendering="crispEdges" style="fill:#2c0f30;opacity:255;"></rect><rect id="11-14" x="10" y="13" width="1" height="1" shape-rendering="crispEdges" style="fill:#2c0f30;opacity:255;"></rect><rect id="20-14" x="19" y="13" width="1" height="1" shape-rendering="crispEdges" style="fill:#2c0f30;opacity:255;"></rect><rect id="21-14" x="20" y="13" width="1" height="1" shape-rendering="crispEdges" style="fill:#2c0f30;opacity:255;"></rect><rect id="28-14" x="27" y="13" width="1" height="1" shape-rendering="crispEdges" style="fill:#2c0f30;opacity:255;"></rect><rect id="29-14" x="28" y="13" width="1" height="1" shape-rendering="crispEdges" style="fill:#2c0f30;opacity:255;"></rect><rect id="38-14" x="37" y="13" width="1" height="1" shape-rendering="crispEdges" style="fill:#2c0f30;opacity:255;"></rect><rect id="39-14" x="38" y="13" width="1" height="1" shape-rendering="crispEdges" style="fill:#2c0f30;opacity:255;"></rect><rect id="8-15" x="7" y="14" width="1" height="1" shape-rendering="crispEdges" style="fill:#2c0f30;opacity:255;"></rect><rect id="9-15" x="8" y="14" width="1" height="1" shape-rendering="crispEdges" style="fill:#2c0f30;opacity:255;"></rect><rect id="10-15" x="9" y="14" width="1" height="1" shape-rendering="crispEdges" style="fill:#2c0f30;opacity:255;"></rect><rect id="18-15" x="17" y="14" width="1" height="1" shape-rendering="crispEdges" style="fill:#2c0f30;opacity:255;"></rect><rect id="19-15" x="18" y="14" width="1" height="1" shape-rendering="crispEdges" style="fill:#2c0f30;opacity:255;"></rect><rect id="20-15" x="19" y="14" width="1" height="1" shape-rendering="crispEdges" style="fill:#2c0f30;opacity:255;"></rect><rect id="24-15" x="23" y="14" width="1" height="1" shape-rendering="crispEdges" style="fill:#2c0f30;opacity:255;"></rect><rect id="25-15" x="24" y="14" width="1" height="1" shape-rendering="crispEdges" style="fill:#2c0f30;opacity:255;"></rect><rect id="29-15" x="28" y="14" width="1" height="1" shape-rendering="crispEdges" style="fill:#2c0f30;opacity:255;"></rect><rect id="30-15" x="29" y="14" width="1" height="1" shape-rendering="crispEdges" style="fill:#2c0f30;opacity:255;"></rect><rect id="31-15" x="30" y="14" width="1" height="1" shape-rendering="crispEdges" style="fill:#2c0f30;opacity:255;"></rect><rect id="39-15" x="38" y="14" width="1" height="1" shape-rendering="crispEdges" style="fill:#2c0f30;opacity:255;"></rect><rect id="40-15" x="39" y="14" width="1" height="1" shape-rendering="crispEdges" style="fill:#2c0f30;opacity:255;"></rect><rect id="41-15" x="40" y="14" width="1" height="1" shape-rendering="crispEdges" style="fill:#2c0f30;opacity:255;"></rect><rect id="8-16" x="7" y="15" width="1" height="1" shape-rendering="crispEdges" style="fill:#2c0f30;opacity:255;"></rect><rect id="9-16" x="8" y="15" width="1" height="1" shape-rendering="crispEdges" style="fill:#2c0f30;opacity:255;"></rect><rect id="18-16" x="17" y="15" width="1" height="1" shape-rendering="crispEdges" style="fill:#2c0f30;opacity:255;"></rect><rect id="19-16" x="18" y="15" width="1" height="1" shape-rendering="crispEdges" style="fill:#2c0f30;opacity:255;"></rect><rect id="24-16" x="23" y="15" width="1" height="1" shape-rendering="crispEdges" style="fill:#2c0f30;opacity:255;"></rect><rect id="25-16" x="24" y="15" width="1" height="1" shape-rendering="crispEdges" style="fill:#2c0f30;opacity:255;"></rect><rect id="30-16" x="29" y="15" width="1" height="1" shape-rendering="crispEdges" style="fill:#2c0f30;opacity:255;"></rect><rect id="31-16" x="30" y="15" width="1" height="1" shape-rendering="crispEdges" style="fill:#2c0f30;opacity:255;"></rect><rect id="40-16" x="39" y="15" width="1" height="1" shape-rendering="crispEdges" style="fill:#2c0f30;opacity:255;"></rect><rect id="41-16" x="40" y="15" width="1" height="1" shape-rendering="crispEdges" style="fill:#2c0f30;opacity:255;"></rect><rect id="6-17" x="5" y="16" width="1" height="1" shape-rendering="crispEdges" style="fill:#2c0f30;opacity:255;"></rect><rect id="7-17" x="6" y="16" width="1" height="1" shape-rendering="crispEdges" style="fill:#2c0f30;opacity:255;"></rect><rect id="8-17" x="7" y="16" width="1" height="1" shape-rendering="crispEdges" style="fill:#2c0f30;opacity:255;"></rect><rect id="18-17" x="17" y="16" width="1" height="1" shape-rendering="crispEdges" style="fill:#2c0f30;opacity:255;"></rect><rect id="19-17" x="18" y="16" width="1" height="1" shape-rendering="crispEdges" style="fill:#2c0f30;opacity:255;"></rect><rect id="22-17" x="21" y="16" width="1" height="1" shape-rendering="crispEdges" style="fill:#2c0f30;opacity:255;"></rect><rect id="23-17" x="22" y="16" width="1" height="1" shape-rendering="crispEdges" style="fill:#2c0f30;opacity:255;"></rect><rect id="24-17" x="23" y="16" width="1" height="1" shape-rendering="crispEdges" style="fill:#2c0f30;opacity:255;"></rect><rect id="25-17" x="24" y="16" width="1" height="1" shape-rendering="crispEdges" style="fill:#2c0f30;opacity:255;"></rect><rect id="26-17" x="25" y="16" width="1" height="1" shape-rendering="crispEdges" style="fill:#2c0f30;opacity:255;"></rect><rect id="27-17" x="26" y="16" width="1" height="1" shape-rendering="crispEdges" style="fill:#2c0f30;opacity:255;"></rect><rect id="30-17" x="29" y="16" width="1" height="1" shape-rendering="crispEdges" style="fill:#2c0f30;opacity:255;"></rect><rect id="31-17" x="30" y="16" width="1" height="1" shape-rendering="crispEdges" style="fill:#2c0f30;opacity:255;"></rect><rect id="41-17" x="40" y="16" width="1" height="1" shape-rendering="crispEdges" style="fill:#2c0f30;opacity:255;"></rect><rect id="42-17" x="41" y="16" width="1" height="1" shape-rendering="crispEdges" style="fill:#2c0f30;opacity:255;"></rect><rect id="43-17" x="42" y="16" width="1" height="1" shape-rendering="crispEdges" style="fill:#2c0f30;opacity:255;"></rect><rect id="6-18" x="5" y="17" width="1" height="1" shape-rendering="crispEdges" style="fill:#2c0f30;opacity:255;"></rect><rect id="7-18" x="6" y="17" width="1" height="1" shape-rendering="crispEdges" style="fill:#2c0f30;opacity:255;"></rect><rect id="8-18" x="7" y="17" width="1" height="1" shape-rendering="crispEdges" style="fill:#2c0f30;opacity:255;"></rect><rect id="18-18" x="17" y="17" width="1" height="1" shape-rendering="crispEdges" style="fill:#2c0f30;opacity:255;"></rect><rect id="19-18" x="18" y="17" width="1" height="1" shape-rendering="crispEdges" style="fill:#2c0f30;opacity:255;"></rect><rect id="22-18" x="21" y="17" width="1" height="1" shape-rendering="crispEdges" style="fill:#2c0f30;opacity:255;"></rect><rect id="23-18" x="22" y="17" width="1" height="1" shape-rendering="crispEdges" style="fill:#2c0f30;opacity:255;"></rect><rect id="24-18" x="23" y="17" width="1" height="1" shape-rendering="crispEdges" style="fill:#2c0f30;opacity:255;"></rect><rect id="25-18" x="24" y="17" width="1" height="1" shape-rendering="crispEdges" style="fill:#2c0f30;opacity:255;"></rect><rect id="26-18" x="25" y="17" width="1" height="1" shape-rendering="crispEdges" style="fill:#2c0f30;opacity:255;"></rect><rect id="27-18" x="26" y="17" width="1" height="1" shape-rendering="crispEdges" style="fill:#2c0f30;opacity:255;"></rect><rect id="30-18" x="29" y="17" width="1" height="1" shape-rendering="crispEdges" style="fill:#2c0f30;opacity:255;"></rect><rect id="31-18" x="30" y="17" width="1" height="1" shape-rendering="crispEdges" style="fill:#2c0f30;opacity:255;"></rect><rect id="41-18" x="40" y="17" width="1" height="1" shape-rendering="crispEdges" style="fill:#2c0f30;opacity:255;"></rect><rect id="42-18" x="41" y="17" width="1" height="1" shape-rendering="crispEdges" style="fill:#2c0f30;opacity:255;"></rect><rect id="43-18" x="42" y="17" width="1" height="1" shape-rendering="crispEdges" style="fill:#2c0f30;opacity:255;"></rect><rect id="8-19" x="7" y="18" width="1" height="1" shape-rendering="crispEdges" style="fill:#2c0f30;opacity:255;"></rect><rect id="9-19" x="8" y="18" width="1" height="1" shape-rendering="crispEdges" style="fill:#2c0f30;opacity:255;"></rect><rect id="18-19" x="17" y="18" width="1" height="1" shape-rendering="crispEdges" style="fill:#2c0f30;opacity:255;"></rect><rect id="19-19" x="18" y="18" width="1" height="1" shape-rendering="crispEdges" style="fill:#2c0f30;opacity:255;"></rect><rect id="24-19" x="23" y="18" width="1" height="1" shape-rendering="crispEdges" style="fill:#2c0f30;opacity:255;"></rect><rect id="25-19" x="24" y="18" width="1" height="1" shape-rendering="crispEdges" style="fill:#2c0f30;opacity:255;"></rect><rect id="30-19" x="29" y="18" width="1" height="1" shape-rendering="crispEdges" style="fill:#2c0f30;opacity:255;"></rect><rect id="31-19" x="30" y="18" width="1" height="1" shape-rendering="crispEdges" style="fill:#2c0f30;opacity:255;"></rect><rect id="40-19" x="39" y="18" width="1" height="1" shape-rendering="crispEdges" style="fill:#2c0f30;opacity:255;"></rect><rect id="41-19" x="40" y="18" width="1" height="1" shape-rendering="crispEdges" style="fill:#2c0f30;opacity:255;"></rect><rect id="8-20" x="7" y="19" width="1" height="1" shape-rendering="crispEdges" style="fill:#2c0f30;opacity:255;"></rect><rect id="9-20" x="8" y="19" width="1" height="1" shape-rendering="crispEdges" style="fill:#2c0f30;opacity:255;"></rect><rect id="10-20" x="9" y="19" width="1" height="1" shape-rendering="crispEdges" style="fill:#2c0f30;opacity:255;"></rect><rect id="18-20" x="17" y="19" width="1" height="1" shape-rendering="crispEdges" style="fill:#2c0f30;opacity:255;"></rect><rect id="19-20" x="18" y="19" width="1" height="1" shape-rendering="crispEdges" style="fill:#2c0f30;opacity:255;"></rect><rect id="20-20" x="19" y="19" width="1" height="1" shape-rendering="crispEdges" style="fill:#2c0f30;opacity:255;"></rect><rect id="24-20" x="23" y="19" width="1" height="1" shape-rendering="crispEdges" style="fill:#2c0f30;opacity:255;"></rect><rect id="25-20" x="24" y="19" width="1" height="1" shape-rendering="crispEdges" style="fill:#2c0f30;opacity:255;"></rect><rect id="29-20" x="28" y="19" width="1" height="1" shape-rendering="crispEdges" style="fill:#2c0f30;opacity:255;"></rect><rect id="30-20" x="29" y="19" width="1" height="1" shape-rendering="crispEdges" style="fill:#2c0f30;opacity:255;"></rect><rect id="31-20" x="30" y="19" width="1" height="1" shape-rendering="crispEdges" style="fill:#2c0f30;opacity:255;"></rect><rect id="39-20" x="38" y="19" width="1" height="1" shape-rendering="crispEdges" style="fill:#2c0f30;opacity:255;"></rect><rect id="40-20" x="39" y="19" width="1" height="1" shape-rendering="crispEdges" style="fill:#2c0f30;opacity:255;"></rect><rect id="41-20" x="40" y="19" width="1" height="1" shape-rendering="crispEdges" style="fill:#2c0f30;opacity:255;"></rect><rect id="10-21" x="9" y="20" width="1" height="1" shape-rendering="crispEdges" style="fill:#2c0f30;opacity:255;"></rect><rect id="11-21" x="10" y="20" width="1" height="1" shape-rendering="crispEdges" style="fill:#2c0f30;opacity:255;"></rect><rect id="20-21" x="19" y="20" width="1" height="1" shape-rendering="crispEdges" style="fill:#2c0f30;opacity:255;"></rect><rect id="21-21" x="20" y="20" width="1" height="1" shape-rendering="crispEdges" style="fill:#2c0f30;opacity:255;"></rect><rect id="28-21" x="27" y="20" width="1" height="1" shape-rendering="crispEdges" style="fill:#2c0f30;opacity:255;"></rect><rect id="29-21" x="28" y="20" width="1" height="1" shape-rendering="crispEdges" style="fill:#2c0f30;opacity:255;"></rect><rect id="38-21" x="37" y="20" width="1" height="1" shape-rendering="crispEdges" style="fill:#2c0f30;opacity:255;"></rect><rect id="39-21" x="38" y="20" width="1" height="1" shape-rendering="crispEdges" style="fill:#2c0f30;opacity:255;"></rect><rect id="10-22" x="9" y="21" width="1" height="1" shape-rendering="crispEdges" style="fill:#2c0f30;opacity:255;"></rect><rect id="11-22" x="10" y="21" width="1" height="1" shape-rendering="crispEdges" style="fill:#2c0f30;opacity:255;"></rect><rect id="12-22" x="11" y="21" width="1" height="1" shape-rendering="crispEdges" style="fill:#2c0f30;opacity:255;"></rect><rect id="20-22" x="19" y="21" width="1" height="1" shape-rendering="crispEdges" style="fill:#2c0f30;opacity:255;"></rect><rect id="21-22" x="20" y="21" width="1" height="1" shape-rendering="crispEdges" style="fill:#2c0f30;opacity:255;"></rect><rect id="22-22" x="21" y="21" width="1" height="1" shape-rendering="crispEdges" style="fill:#2c0f30;opacity:255;"></rect><rect id="27-22" x="26" y="21" width="1" height="1" shape-rendering="crispEdges" style="fill:#2c0f30;opacity:255;"></rect><rect id="28-22" x="27" y="21" width="1" height="1" shape-rendering="crispEdges" style="fill:#2c0f30;opacity:255;"></rect><rect id="29-22" x="28" y="21" width="1" height="1" shape-rendering="crispEdges" style="fill:#2c0f30;opacity:255;"></rect><rect id="37-22" x="36" y="21" width="1" height="1" shape-rendering="crispEdges" style="fill:#2c0f30;opacity:255;"></rect><rect id="38-22" x="37" y="21" width="1" height="1" shape-rendering="crispEdges" style="fill:#2c0f30;opacity:255;"></rect><rect id="39-22" x="38" y="21" width="1" height="1" shape-rendering="crispEdges" style="fill:#2c0f30;opacity:255;"></rect><rect id="12-23" x="11" y="22" width="1" height="1" shape-rendering="crispEdges" style="fill:#2c0f30;opacity:255;"></rect><rect id="13-23" x="12" y="22" width="1" height="1" shape-rendering="crispEdges" style="fill:#2c0f30;opacity:255;"></rect><rect id="14-23" x="13" y="22" width="1" height="1" shape-rendering="crispEdges" style="fill:#2c0f30;opacity:255;"></rect><rect id="15-23" x="14" y="22" width="1" height="1" shape-rendering="crispEdges" style="fill:#2c0f30;opacity:255;"></rect><rect id="22-23" x="21" y="22" width="1" height="1" shape-rendering="crispEdges" style="fill:#2c0f30;opacity:255;"></rect><rect id="23-23" x="22" y="22" width="1" height="1" shape-rendering="crispEdges" style="fill:#2c0f30;opacity:255;"></rect><rect id="24-23" x="23" y="22" width="1" height="1" shape-rendering="crispEdges" style="fill:#2c0f30;opacity:255;"></rect><rect id="25-23" x="24" y="22" width="1" height="1" shape-rendering="crispEdges" style="fill:#2c0f30;opacity:255;"></rect><rect id="26-23" x="25" y="22" width="1" height="1" shape-rendering="crispEdges" style="fill:#2c0f30;opacity:255;"></rect><rect id="27-23" x="26" y="22" width="1" height="1" shape-rendering="crispEdges" style="fill:#2c0f30;opacity:255;"></rect><rect id="34-23" x="33" y="22" width="1" height="1" shape-rendering="crispEdges" style="fill:#2c0f30;opacity:255;"></rect><rect id="35-23" x="34" y="22" width="1" height="1" shape-rendering="crispEdges" style="fill:#2c0f30;opacity:255;"></rect><rect id="36-23" x="35" y="22" width="1" height="1" shape-rendering="crispEdges" style="fill:#2c0f30;opacity:255;"></rect><rect id="37-23" x="36" y="22" width="1" height="1" shape-rendering="crispEdges" style="fill:#2c0f30;opacity:255;"></rect><rect id="12-24" x="11" y="23" width="1" height="1" shape-rendering="crispEdges" style="fill:#2c0f30;opacity:255;"></rect><rect id="13-24" x="12" y="23" width="1" height="1" shape-rendering="crispEdges" style="fill:#2c0f30;opacity:255;"></rect><rect id="14-24" x="13" y="23" width="1" height="1" shape-rendering="crispEdges" style="fill:#2c0f30;opacity:255;"></rect><rect id="15-24" x="14" y="23" width="1" height="1" shape-rendering="crispEdges" style="fill:#2c0f30;opacity:255;"></rect><rect id="16-24" x="15" y="23" width="1" height="1" shape-rendering="crispEdges" style="fill:#2c0f30;opacity:255;"></rect><rect id="22-24" x="21" y="23" width="1" height="1" shape-rendering="crispEdges" style="fill:#2c0f30;opacity:255;"></rect><rect id="23-24" x="22" y="23" width="1" height="1" shape-rendering="crispEdges" style="fill:#2c0f30;opacity:255;"></rect><rect id="24-24" x="23" y="23" width="1" height="1" shape-rendering="crispEdges" style="fill:#2c0f30;opacity:255;"></rect><rect id="25-24" x="24" y="23" width="1" height="1" shape-rendering="crispEdges" style="fill:#2c0f30;opacity:255;"></rect><rect id="26-24" x="25" y="23" width="1" height="1" shape-rendering="crispEdges" style="fill:#2c0f30;opacity:255;"></rect><rect id="27-24" x="26" y="23" width="1" height="1" shape-rendering="crispEdges" style="fill:#2c0f30;opacity:255;"></rect><rect id="33-24" x="32" y="23" width="1" height="1" shape-rendering="crispEdges" style="fill:#2c0f30;opacity:255;"></rect><rect id="34-24" x="33" y="23" width="1" height="1" shape-rendering="crispEdges" style="fill:#2c0f30;opacity:255;"></rect><rect id="35-24" x="34" y="23" width="1" height="1" shape-rendering="crispEdges" style="fill:#2c0f30;opacity:255;"></rect><rect id="36-24" x="35" y="23" width="1" height="1" shape-rendering="crispEdges" style="fill:#2c0f30;opacity:255;"></rect><rect id="37-24" x="36" y="23" width="1" height="1" shape-rendering="crispEdges" style="fill:#2c0f30;opacity:255;"></rect><rect id="16-25" x="15" y="24" width="1" height="1" shape-rendering="crispEdges" style="fill:#2c0f30;opacity:255;"></rect><rect id="17-25" x="16" y="24" width="1" height="1" shape-rendering="crispEdges" style="fill:#2c0f30;opacity:255;"></rect><rect id="18-25" x="17" y="24" width="1" height="1" shape-rendering="crispEdges" style="fill:#2c0f30;opacity:255;"></rect><rect id="31-25" x="30" y="24" width="1" height="1" shape-rendering="crispEdges" style="fill:#2c0f30;opacity:255;"></rect><rect id="32-25" x="31" y="24" width="1" height="1" shape-rendering="crispEdges" style="fill:#2c0f30;opacity:255;"></rect><rect id="33-25" x="32" y="24" width="1" height="1" shape-rendering="crispEdges" style="fill:#2c0f30;opacity:255;"></rect><rect id="16-26" x="15" y="25" width="1" height="1" shape-rendering="crispEdges" style="fill:#2c0f30;opacity:255;"></rect><rect id="17-26" x="16" y="25" width="1" height="1" shape-rendering="crispEdges" style="fill:#2c0f30;opacity:255;"></rect><rect id="18-26" x="17" y="25" width="1" height="1" shape-rendering="crispEdges" style="fill:#2c0f30;opacity:255;"></rect><rect id="19-26" x="18" y="25" width="1" height="1" shape-rendering="crispEdges" style="fill:#2c0f30;opacity:255;"></rect><rect id="30-26" x="29" y="25" width="1" height="1" shape-rendering="crispEdges" style="fill:#2c0f30;opacity:255;"></rect><rect id="31-26" x="30" y="25" width="1" height="1" shape-rendering="crispEdges" style="fill:#2c0f30;opacity:255;"></rect><rect id="32-26" x="31" y="25" width="1" height="1" shape-rendering="crispEdges" style="fill:#2c0f30;opacity:255;"></rect><rect id="33-26" x="32" y="25" width="1" height="1" shape-rendering="crispEdges" style="fill:#2c0f30;opacity:255;"></rect><rect id="19-27" x="18" y="26" width="1" height="1" shape-rendering="crispEdges" style="fill:#2c0f30;opacity:255;"></rect><rect id="20-27" x="19" y="26" width="1" height="1" shape-rendering="crispEdges" style="fill:#2c0f30;opacity:255;"></rect><rect id="21-27" x="20" y="26" width="1" height="1" shape-rendering="crispEdges" style="fill:#2c0f30;opacity:255;"></rect><rect id="22-27" x="21" y="26" width="1" height="1" shape-rendering="crispEdges" style="fill:#2c0f30;opacity:255;"></rect><rect id="23-27" x="22" y="26" width="1" height="1" shape-rendering="crispEdges" style="fill:#2c0f30;opacity:255;"></rect><rect id="24-27" x="23" y="26" width="1" height="1" shape-rendering="crispEdges" style="fill:#2c0f30;opacity:255;"></rect><rect id="25-27" x="24" y="26" width="1" height="1" shape-rendering="crispEdges" style="fill:#2c0f30;opacity:255;"></rect><rect id="26-27" x="25" y="26" width="1" height="1" shape-rendering="crispEdges" style="fill:#2c0f30;opacity:255;"></rect><rect id="27-27" x="26" y="26" width="1" height="1" shape-rendering="crispEdges" style="fill:#2c0f30;opacity:255;"></rect><rect id="28-27" x="27" y="26" width="1" height="1" shape-rendering="crispEdges" style="fill:#2c0f30;opacity:255;"></rect><rect id="29-27" x="28" y="26" width="1" height="1" shape-rendering="crispEdges" style="fill:#2c0f30;opacity:255;"></rect><rect id="30-27" x="29" y="26" width="1" height="1" shape-rendering="crispEdges" style="fill:#2c0f30;opacity:255;"></rect><rect id="19-28" x="18" y="27" width="1" height="1" shape-rendering="crispEdges" style="fill:#2c0f30;opacity:255;"></rect><rect id="20-28" x="19" y="27" width="1" height="1" shape-rendering="crispEdges" style="fill:#2c0f30;opacity:255;"></rect><rect id="21-28" x="20" y="27" width="1" height="1" shape-rendering="crispEdges" style="fill:#2c0f30;opacity:255;"></rect><rect id="22-28" x="21" y="27" width="1" height="1" shape-rendering="crispEdges" style="fill:#2c0f30;opacity:255;"></rect><rect id="23-28" x="22" y="27" width="1" height="1" shape-rendering="crispEdges" style="fill:#2c0f30;opacity:255;"></rect><rect id="24-28" x="23" y="27" width="1" height="1" shape-rendering="crispEdges" style="fill:#2c0f30;opacity:255;"></rect><rect id="25-28" x="24" y="27" width="1" height="1" shape-rendering="crispEdges" style="fill:#2c0f30;opacity:255;"></rect><rect id="26-28" x="25" y="27" width="1" height="1" shape-rendering="crispEdges" style="fill:#2c0f30;opacity:255;"></rect><rect id="27-28" x="26" y="27" width="1" height="1" shape-rendering="crispEdges" style="fill:#2c0f30;opacity:255;"></rect><rect id="28-28" x="27" y="27" width="1" height="1" shape-rendering="crispEdges" style="fill:#2c0f30;opacity:255;"></rect><rect id="29-28" x="28" y="27" width="1" height="1" shape-rendering="crispEdges" style="fill:#2c0f30;opacity:255;"></rect><rect id="30-28" x="29" y="27" width="1" height="1" shape-rendering="crispEdges" style="fill:#2c0f30;opacity:255;"></rect></svg>