<?xml version="1.0" encoding="UTF-8" standalone="no"?><svg xmlns="http://www.w3.org/2000/svg" id="heading-1" width="32" height="32" viewBox="0 0 32 32" preserveAspectRatio="xMidYMid meet" rendering="crispEdges"><rect id="2-4" x="1" y="3" width="1" height="1" shape-rendering="crispEdges" style="fill:#2c0f30;opacity:255;"></rect><rect id="3-4" x="2" y="3" width="1" height="1" shape-rendering="crispEdges" style="fill:#2c0f30;opacity:255;"></rect><rect id="4-4" x="3" y="3" width="1" height="1" shape-rendering="crispEdges" style="fill:#2c0f30;opacity:255;"></rect><rect id="5-4" x="4" y="3" width="1" height="1" shape-rendering="crispEdges" style="fill:#2c0f30;opacity:255;"></rect><rect id="6-4" x="5" y="3" width="1" height="1" shape-rendering="crispEdges" style="fill:#2c0f30;opacity:255;"></rect><rect id="7-4" x="6" y="3" width="1" height="1" shape-rendering="crispEdges" style="fill:#2c0f30;opacity:255;"></rect><rect id="8-4" x="7" y="3" width="1" height="1" shape-rendering="crispEdges" style="fill:#2c0f30;opacity:255;"></rect><rect id="9-4" x="8" y="3" width="1" height="1" shape-rendering="crispEdges" style="fill:#2c0f30;opacity:255;"></rect><rect id="13-4" x="12" y="3" width="1" height="1" shape-rendering="crispEdges" style="fill:#2c0f30;opacity:255;"></rect><rect id="14-4" x="13" y="3" width="1" height="1" shape-rendering="crispEdges" style="fill:#2c0f30;opacity:255;"></rect><rect id="15-4" x="14" y="3" width="1" height="1" shape-rendering="crispEdges" style="fill:#2c0f30;opacity:255;"></rect><rect id="16-4" x="15" y="3" width="1" height="1" shape-rendering="crispEdges" style="fill:#2c0f30;opacity:255;"></rect><rect id="17-4" x="16" y="3" width="1" height="1" shape-rendering="crispEdges" style="fill:#2c0f30;opacity:255;"></rect><rect id="18-4" x="17" y="3" width="1" height="1" shape-rendering="crispEdges" style="fill:#2c0f30;opacity:255;"></rect><rect id="19-4" x="18" y="3" width="1" height="1" shape-rendering="crispEdges" style="fill:#2c0f30;opacity:255;"></rect><rect id="20-4" x="19" y="3" width="1" height="1" shape-rendering="crispEdges" style="fill:#2c0f30;opacity:255;"></rect><rect id="26-4" x="25" y="3" width="1" height="1" shape-rendering="crispEdges" style="fill:#2c0f30;opacity:255;"></rect><rect id="27-4" x="26" y="3" width="1" height="1" shape-rendering="crispEdges" style="fill:#2c0f30;opacity:255;"></rect><rect id="28-4" x="27" y="3" width="1" height="1" shape-rendering="crispEdges" style="fill:#2c0f30;opacity:255;"></rect><rect id="2-5" x="1" y="4" width="1" height="1" shape-rendering="crispEdges" style="fill:#2c0f30;opacity:255;"></rect><rect id="3-5" x="2" y="4" width="1" height="1" shape-rendering="crispEdges" style="fill:#2c0f30;opacity:255;"></rect><rect id="4-5" x="3" y="4" width="1" height="1" shape-rendering="crispEdges" style="fill:#2c0f30;opacity:255;"></rect><rect id="5-5" x="4" y="4" width="1" height="1" shape-rendering="crispEdges" style="fill:#2c0f30;opacity:255;"></rect><rect id="6-5" x="5" y="4" width="1" height="1" shape-rendering="crispEdges" style="fill:#2c0f30;opacity:255;"></rect><rect id="7-5" x="6" y="4" width="1" height="1" shape-rendering="crispEdges" style="fill:#2c0f30;opacity:255;"></rect><rect id="8-5" x="7" y="4" width="1" height="1" shape-rendering="crispEdges" style="fill:#2c0f30;opacity:255;"></rect><rect id="9-5" x="8" y="4" width="1" height="1" shape-rendering="crispEdges" style="fill:#2c0f30;opacity:255;"></rect><rect id="13-5" x="12" y="4" width="1" height="1" shape-rendering="crispEdges" style="fill:#2c0f30;opacity:255;"></rect><rect id="14-5" x="13" y="4" width="1" height="1" shape-rendering="crispEdges" style="fill:#2c0f30;opacity:255;"></rect><rect id="15-5" x="14" y="4" width="1" height="1" shape-rendering="crispEdges" style="fill:#2c0f30;opacity:255;"></rect><rect id="16-5" x="15" y="4" width="1" height="1" shape-rendering="crispEdges" style="fill:#2c0f30;opacity:255;"></rect><rect id="17-5" x="16" y="4" width="1" height="1" shape-rendering="crispEdges" style="fill:#2c0f30;opacity:255;"></rect><rect id="18-5" x="17" y="4" width="1" height="1" shape-rendering="crispEdges" style="fill:#2c0f30;opacity:255;"></rect><rect id="19-5" x="18" y="4" width="1" height="1" shape-rendering="crispEdges" style="fill:#2c0f30;opacity:255;"></rect><rect id="20-5" x="19" y="4" width="1" height="1" shape-rendering="crispEdges" style="fill:#2c0f30;opacity:255;"></rect><rect id="25-5" x="24" y="4" width="1" height="1" shape-rendering="crispEdges" style="fill:#2c0f30;opacity:255;"></rect><rect id="26-5" x="25" y="4" width="1" height="1" shape-rendering="crispEdges" style="fill:#2c0f30;opacity:255;"></rect><rect id="27-5" x="26" y="4" width="1" height="1" shape-rendering="crispEdges" style="fill:#2c0f30;opacity:255;"></rect><rect id="28-5" x="27" y="4" width="1" height="1" shape-rendering="crispEdges" style="fill:#2c0f30;opacity:255;"></rect><rect id="2-6" x="1" y="5" width="1" height="1" shape-rendering="crispEdges" style="fill:#2c0f30;opacity:255;"></rect><rect id="3-6" x="2" y="5" width="1" height="1" shape-rendering="crispEdges" style="fill:#2c0f30;opacity:255;"></rect><rect id="4-6" x="3" y="5" width="1" height="1" shape-rendering="crispEdges" style="fill:#2c0f30;opacity:255;"></rect><rect id="5-6" x="4" y="5" width="1" height="1" shape-rendering="crispEdges" style="fill:#2c0f30;opacity:255;"></rect><rect id="6-6" x="5" y="5" width="1" height="1" shape-rendering="crispEdges" style="fill:#2c0f30;opacity:255;"></rect><rect id="7-6" x="6" y="5" width="1" height="1" shape-rendering="crispEdges" style="fill:#2c0f30;opacity:255;"></rect><rect id="8-6" x="7" y="5" width="1" height="1" shape-rendering="crispEdges" style="fill:#2c0f30;opacity:255;"></rect><rect id="9-6" x="8" y="5" width="1" height="1" shape-rendering="crispEdges" style="fill:#2c0f30;opacity:255;"></rect><rect id="13-6" x="12" y="5" width="1" height="1" shape-rendering="crispEdges" style="fill:#2c0f30;opacity:255;"></rect><rect id="14-6" x="13" y="5" width="1" height="1" shape-rendering="crispEdges" style="fill:#2c0f30;opacity:255;"></rect><rect id="15-6" x="14" y="5" width="1" height="1" shape-rendering="crispEdges" style="fill:#2c0f30;opacity:255;"></rect><rect id="16-6" x="15" y="5" width="1" height="1" shape-rendering="crispEdges" style="fill:#2c0f30;opacity:255;"></rect><rect id="17-6" x="16" y="5" width="1" height="1" shape-rendering="crispEdges" style="fill:#2c0f30;opacity:255;"></rect><rect id="18-6" x="17" y="5" width="1" height="1" shape-rendering="crispEdges" style="fill:#2c0f30;opacity:255;"></rect><rect id="19-6" x="18" y="5" width="1" height="1" shape-rendering="crispEdges" style="fill:#2c0f30;opacity:255;"></rect><rect id="20-6" x="19" y="5" width="1" height="1" shape-rendering="crispEdges" style="fill:#2c0f30;opacity:255;"></rect><rect id="24-6" x="23" y="5" width="1" height="1" shape-rendering="crispEdges" style="fill:#2c0f30;opacity:255;"></rect><rect id="25-6" x="24" y="5" width="1" height="1" shape-rendering="crispEdges" style="fill:#2c0f30;opacity:255;"></rect><rect id="26-6" x="25" y="5" width="1" height="1" shape-rendering="crispEdges" style="fill:#2c0f30;opacity:255;"></rect><rect id="27-6" x="26" y="5" width="1" height="1" shape-rendering="crispEdges" style="fill:#2c0f30;opacity:255;"></rect><rect id="28-6" x="27" y="5" width="1" height="1" shape-rendering="crispEdges" style="fill:#2c0f30;opacity:255;"></rect><rect id="4-7" x="3" y="6" width="1" height="1" shape-rendering="crispEdges" style="fill:#2c0f30;opacity:255;"></rect><rect id="5-7" x="4" y="6" width="1" height="1" shape-rendering="crispEdges" style="fill:#2c0f30;opacity:255;"></rect><rect id="6-7" x="5" y="6" width="1" height="1" shape-rendering="crispEdges" style="fill:#2c0f30;opacity:255;"></rect><rect id="7-7" x="6" y="6" width="1" height="1" shape-rendering="crispEdges" style="fill:#2c0f30;opacity:255;"></rect><rect id="15-7" x="14" y="6" width="1" height="1" shape-rendering="crispEdges" style="fill:#2c0f30;opacity:255;"></rect><rect id="16-7" x="15" y="6" width="1" height="1" shape-rendering="crispEdges" style="fill:#2c0f30;opacity:255;"></rect><rect id="17-7" x="16" y="6" width="1" height="1" shape-rendering="crispEdges" style="fill:#2c0f30;opacity:255;"></rect><rect id="18-7" x="17" y="6" width="1" height="1" shape-rendering="crispEdges" style="fill:#2c0f30;opacity:255;"></rect><rect id="23-7" x="22" y="6" width="1" height="1" shape-rendering="crispEdges" style="fill:#2c0f30;opacity:255;"></rect><rect id="24-7" x="23" y="6" width="1" height="1" shape-rendering="crispEdges" style="fill:#2c0f30;opacity:255;"></rect><rect id="25-7" x="24" y="6" width="1" height="1" shape-rendering="crispEdges" style="fill:#2c0f30;opacity:255;"></rect><rect id="26-7" x="25" y="6" width="1" height="1" shape-rendering="crispEdges" style="fill:#2c0f30;opacity:255;"></rect><rect id="27-7" x="26" y="6" width="1" height="1" shape-rendering="crispEdges" style="fill:#2c0f30;opacity:255;"></rect><rect id="28-7" x="27" y="6" width="1" height="1" shape-rendering="crispEdges" style="fill:#2c0f30;opacity:255;"></rect><rect id="4-8" x="3" y="7" width="1" height="1" shape-rendering="crispEdges" style="fill:#2c0f30;opacity:255;"></rect><rect id="5-8" x="4" y="7" width="1" height="1" shape-rendering="crispEdges" style="fill:#2c0f30;opacity:255;"></rect><rect id="6-8" x="5" y="7" width="1" height="1" shape-rendering="crispEdges" style="fill:#2c0f30;opacity:255;"></rect><rect id="7-8" x="6" y="7" width="1" height="1" shape-rendering="crispEdges" style="fill:#2c0f30;opacity:255;"></rect><rect id="15-8" x="14" y="7" width="1" height="1" shape-rendering="crispEdges" style="fill:#2c0f30;opacity:255;"></rect><rect id="16-8" x="15" y="7" width="1" height="1" shape-rendering="crispEdges" style="fill:#2c0f30;opacity:255;"></rect><rect id="17-8" x="16" y="7" width="1" height="1" shape-rendering="crispEdges" style="fill:#2c0f30;opacity:255;"></rect><rect id="18-8" x="17" y="7" width="1" height="1" shape-rendering="crispEdges" style="fill:#2c0f30;opacity:255;"></rect><rect id="23-8" x="22" y="7" width="1" height="1" shape-rendering="crispEdges" style="fill:#2c0f30;opacity:255;"></rect><rect id="24-8" x="23" y="7" width="1" height="1" shape-rendering="crispEdges" style="fill:#2c0f30;opacity:255;"></rect><rect id="25-8" x="24" y="7" width="1" height="1" shape-rendering="crispEdges" style="fill:#2c0f30;opacity:255;"></rect><rect id="26-8" x="25" y="7" width="1" height="1" shape-rendering="crispEdges" style="fill:#2c0f30;opacity:255;"></rect><rect id="27-8" x="26" y="7" width="1" height="1" shape-rendering="crispEdges" style="fill:#2c0f30;opacity:255;"></rect><rect id="28-8" x="27" y="7" width="1" height="1" shape-rendering="crispEdges" style="fill:#2c0f30;opacity:255;"></rect><rect id="4-9" x="3" y="8" width="1" height="1" shape-rendering="crispEdges" style="fill:#2c0f30;opacity:255;"></rect><rect id="5-9" x="4" y="8" width="1" height="1" shape-rendering="crispEdges" style="fill:#2c0f30;opacity:255;"></rect><rect id="6-9" x="5" y="8" width="1" height="1" shape-rendering="crispEdges" style="fill:#2c0f30;opacity:255;"></rect><rect id="7-9" x="6" y="8" width="1" height="1" shape-rendering="crispEdges" style="fill:#2c0f30;opacity:255;"></rect><rect id="15-9" x="14" y="8" width="1" height="1" shape-rendering="crispEdges" style="fill:#2c0f30;opacity:255;"></rect><rect id="16-9" x="15" y="8" width="1" height="1" shape-rendering="crispEdges" style="fill:#2c0f30;opacity:255;"></rect><rect id="17-9" x="16" y="8" width="1" height="1" shape-rendering="crispEdges" style="fill:#2c0f30;opacity:255;"></rect><rect id="18-9" x="17" y="8" width="1" height="1" shape-rendering="crispEdges" style="fill:#2c0f30;opacity:255;"></rect><rect id="25-9" x="24" y="8" width="1" height="1" shape-rendering="crispEdges" style="fill:#2c0f30;opacity:255;"></rect><rect id="26-9" x="25" y="8" width="1" height="1" shape-rendering="crispEdges" style="fill:#2c0f30;opacity:255;"></rect><rect id="27-9" x="26" y="8" width="1" height="1" shape-rendering="crispEdges" style="fill:#2c0f30;opacity:255;"></rect><rect id="28-9" x="27" y="8" width="1" height="1" shape-rendering="crispEdges" style="fill:#2c0f30;opacity:255;"></rect><rect id="4-10" x="3" y="9" width="1" height="1" shape-rendering="crispEdges" style="fill:#2c0f30;opacity:255;"></rect><rect id="5-10" x="4" y="9" width="1" height="1" shape-rendering="crispEdges" style="fill:#2c0f30;opacity:255;"></rect><rect id="6-10" x="5" y="9" width="1" height="1" shape-rendering="crispEdges" style="fill:#2c0f30;opacity:255;"></rect><rect id="7-10" x="6" y="9" width="1" height="1" shape-rendering="crispEdges" style="fill:#2c0f30;opacity:255;"></rect><rect id="15-10" x="14" y="9" width="1" height="1" shape-rendering="crispEdges" style="fill:#2c0f30;opacity:255;"></rect><rect id="16-10" x="15" y="9" width="1" height="1" shape-rendering="crispEdges" style="fill:#2c0f30;opacity:255;"></rect><rect id="17-10" x="16" y="9" width="1" height="1" shape-rendering="crispEdges" style="fill:#2c0f30;opacity:255;"></rect><rect id="18-10" x="17" y="9" width="1" height="1" shape-rendering="crispEdges" style="fill:#2c0f30;opacity:255;"></rect><rect id="25-10" x="24" y="9" width="1" height="1" shape-rendering="crispEdges" style="fill:#2c0f30;opacity:255;"></rect><rect id="26-10" x="25" y="9" width="1" height="1" shape-rendering="crispEdges" style="fill:#2c0f30;opacity:255;"></rect><rect id="27-10" x="26" y="9" width="1" height="1" shape-rendering="crispEdges" style="fill:#2c0f30;opacity:255;"></rect><rect id="28-10" x="27" y="9" width="1" height="1" shape-rendering="crispEdges" style="fill:#2c0f30;opacity:255;"></rect><rect id="4-11" x="3" y="10" width="1" height="1" shape-rendering="crispEdges" style="fill:#2c0f30;opacity:255;"></rect><rect id="5-11" x="4" y="10" width="1" height="1" shape-rendering="crispEdges" style="fill:#2c0f30;opacity:255;"></rect><rect id="6-11" x="5" y="10" width="1" height="1" shape-rendering="crispEdges" style="fill:#2c0f30;opacity:255;"></rect><rect id="7-11" x="6" y="10" width="1" height="1" shape-rendering="crispEdges" style="fill:#2c0f30;opacity:255;"></rect><rect id="11-11" x="10" y="10" width="1" height="1" shape-rendering="crispEdges" style="fill:#2c0f30;opacity:255;"></rect><rect id="15-11" x="14" y="10" width="1" height="1" shape-rendering="crispEdges" style="fill:#2c0f30;opacity:255;"></rect><rect id="16-11" x="15" y="10" width="1" height="1" shape-rendering="crispEdges" style="fill:#2c0f30;opacity:255;"></rect><rect id="17-11" x="16" y="10" width="1" height="1" shape-rendering="crispEdges" style="fill:#2c0f30;opacity:255;"></rect><rect id="18-11" x="17" y="10" width="1" height="1" shape-rendering="crispEdges" style="fill:#2c0f30;opacity:255;"></rect><rect id="25-11" x="24" y="10" width="1" height="1" shape-rendering="crispEdges" style="fill:#2c0f30;opacity:255;"></rect><rect id="26-11" x="25" y="10" width="1" height="1" shape-rendering="crispEdges" style="fill:#2c0f30;opacity:255;"></rect><rect id="27-11" x="26" y="10" width="1" height="1" shape-rendering="crispEdges" style="fill:#2c0f30;opacity:255;"></rect><rect id="28-11" x="27" y="10" width="1" height="1" shape-rendering="crispEdges" style="fill:#2c0f30;opacity:255;"></rect><rect id="4-12" x="3" y="11" width="1" height="1" shape-rendering="crispEdges" style="fill:#2c0f30;opacity:255;"></rect><rect id="5-12" x="4" y="11" width="1" height="1" shape-rendering="crispEdges" style="fill:#2c0f30;opacity:255;"></rect><rect id="6-12" x="5" y="11" width="1" height="1" shape-rendering="crispEdges" style="fill:#2c0f30;opacity:255;"></rect><rect id="7-12" x="6" y="11" width="1" height="1" shape-rendering="crispEdges" style="fill:#2c0f30;opacity:255;"></rect><rect id="10-12" x="9" y="11" width="1" height="1" shape-rendering="crispEdges" style="fill:#2c0f30;opacity:255;"></rect><rect id="11-12" x="10" y="11" width="1" height="1" shape-rendering="crispEdges" style="fill:#2c0f30;opacity:255;"></rect><rect id="12-12" x="11" y="11" width="1" height="1" shape-rendering="crispEdges" style="fill:#2c0f30;opacity:255;"></rect><rect id="15-12" x="14" y="11" width="1" height="1" shape-rendering="crispEdges" style="fill:#2c0f30;opacity:255;"></rect><rect id="16-12" x="15" y="11" width="1" height="1" shape-rendering="crispEdges" style="fill:#2c0f30;opacity:255;"></rect><rect id="17-12" x="16" y="11" width="1" height="1" shape-rendering="crispEdges" style="fill:#2c0f30;opacity:255;"></rect><rect id="18-12" x="17" y="11" width="1" height="1" shape-rendering="crispEdges" style="fill:#2c0f30;opacity:255;"></rect><rect id="25-12" x="24" y="11" width="1" height="1" shape-rendering="crispEdges" style="fill:#2c0f30;opacity:255;"></rect><rect id="26-12" x="25" y="11" width="1" height="1" shape-rendering="crispEdges" style="fill:#2c0f30;opacity:255;"></rect><rect id="27-12" x="26" y="11" width="1" height="1" shape-rendering="crispEdges" style="fill:#2c0f30;opacity:255;"></rect><rect id="28-12" x="27" y="11" width="1" height="1" shape-rendering="crispEdges" style="fill:#2c0f30;opacity:255;"></rect><rect id="4-13" x="3" y="12" width="1" height="1" shape-rendering="crispEdges" style="fill:#2c0f30;opacity:255;"></rect><rect id="5-13" x="4" y="12" width="1" height="1" shape-rendering="crispEdges" style="fill:#2c0f30;opacity:255;"></rect><rect id="6-13" x="5" y="12" width="1" height="1" shape-rendering="crispEdges" style="fill:#2c0f30;opacity:255;"></rect><rect id="7-13" x="6" y="12" width="1" height="1" shape-rendering="crispEdges" style="fill:#2c0f30;opacity:255;"></rect><rect id="10-13" x="9" y="12" width="1" height="1" shape-rendering="crispEdges" style="fill:#2c0f30;opacity:255;"></rect><rect id="11-13" x="10" y="12" width="1" height="1" shape-rendering="crispEdges" style="fill:#2c0f30;opacity:255;"></rect><rect id="12-13" x="11" y="12" width="1" height="1" shape-rendering="crispEdges" style="fill:#2c0f30;opacity:255;"></rect><rect id="15-13" x="14" y="12" width="1" height="1" shape-rendering="crispEdges" style="fill:#2c0f30;opacity:255;"></rect><rect id="16-13" x="15" y="12" width="1" height="1" shape-rendering="crispEdges" style="fill:#2c0f30;opacity:255;"></rect><rect id="17-13" x="16" y="12" width="1" height="1" shape-rendering="crispEdges" style="fill:#2c0f30;opacity:255;"></rect><rect id="18-13" x="17" y="12" width="1" height="1" shape-rendering="crispEdges" style="fill:#2c0f30;opacity:255;"></rect><rect id="25-13" x="24" y="12" width="1" height="1" shape-rendering="crispEdges" style="fill:#2c0f30;opacity:255;"></rect><rect id="26-13" x="25" y="12" width="1" height="1" shape-rendering="crispEdges" style="fill:#2c0f30;opacity:255;"></rect><rect id="27-13" x="26" y="12" width="1" height="1" shape-rendering="crispEdges" style="fill:#2c0f30;opacity:255;"></rect><rect id="28-13" x="27" y="12" width="1" height="1" shape-rendering="crispEdges" style="fill:#2c0f30;opacity:255;"></rect><rect id="4-14" x="3" y="13" width="1" height="1" shape-rendering="crispEdges" style="fill:#2c0f30;opacity:255;"></rect><rect id="5-14" x="4" y="13" width="1" height="1" shape-rendering="crispEdges" style="fill:#2c0f30;opacity:255;"></rect><rect id="6-14" x="5" y="13" width="1" height="1" shape-rendering="crispEdges" style="fill:#2c0f30;opacity:255;"></rect><rect id="7-14" x="6" y="13" width="1" height="1" shape-rendering="crispEdges" style="fill:#2c0f30;opacity:255;"></rect><rect id="9-14" x="8" y="13" width="1" height="1" shape-rendering="crispEdges" style="fill:#2c0f30;opacity:255;"></rect><rect id="10-14" x="9" y="13" width="1" height="1" shape-rendering="crispEdges" style="fill:#2c0f30;opacity:255;"></rect><rect id="11-14" x="10" y="13" width="1" height="1" shape-rendering="crispEdges" style="fill:#2c0f30;opacity:255;"></rect><rect id="12-14" x="11" y="13" width="1" height="1" shape-rendering="crispEdges" style="fill:#2c0f30;opacity:255;"></rect><rect id="13-14" x="12" y="13" width="1" height="1" shape-rendering="crispEdges" style="fill:#2c0f30;opacity:255;"></rect><rect id="15-14" x="14" y="13" width="1" height="1" shape-rendering="crispEdges" style="fill:#2c0f30;opacity:255;"></rect><rect id="16-14" x="15" y="13" width="1" height="1" shape-rendering="crispEdges" style="fill:#2c0f30;opacity:255;"></rect><rect id="17-14" x="16" y="13" width="1" height="1" shape-rendering="crispEdges" style="fill:#2c0f30;opacity:255;"></rect><rect id="18-14" x="17" y="13" width="1" height="1" shape-rendering="crispEdges" style="fill:#2c0f30;opacity:255;"></rect><rect id="25-14" x="24" y="13" width="1" height="1" shape-rendering="crispEdges" style="fill:#2c0f30;opacity:255;"></rect><rect id="26-14" x="25" y="13" width="1" height="1" shape-rendering="crispEdges" style="fill:#2c0f30;opacity:255;"></rect><rect id="27-14" x="26" y="13" width="1" height="1" shape-rendering="crispEdges" style="fill:#2c0f30;opacity:255;"></rect><rect id="28-14" x="27" y="13" width="1" height="1" shape-rendering="crispEdges" style="fill:#2c0f30;opacity:255;"></rect><rect id="4-15" x="3" y="14" width="1" height="1" shape-rendering="crispEdges" style="fill:#2c0f30;opacity:255;"></rect><rect id="5-15" x="4" y="14" width="1" height="1" shape-rendering="crispEdges" style="fill:#2c0f30;opacity:255;"></rect><rect id="6-15" x="5" y="14" width="1" height="1" shape-rendering="crispEdges" style="fill:#2c0f30;opacity:255;"></rect><rect id="7-15" x="6" y="14" width="1" height="1" shape-rendering="crispEdges" style="fill:#2c0f30;opacity:255;"></rect><rect id="9-15" x="8" y="14" width="1" height="1" shape-rendering="crispEdges" style="fill:#2c0f30;opacity:255;"></rect><rect id="10-15" x="9" y="14" width="1" height="1" shape-rendering="crispEdges" style="fill:#2c0f30;opacity:255;"></rect><rect id="11-15" x="10" y="14" width="1" height="1" shape-rendering="crispEdges" style="fill:#2c0f30;opacity:255;"></rect><rect id="12-15" x="11" y="14" width="1" height="1" shape-rendering="crispEdges" style="fill:#2c0f30;opacity:255;"></rect><rect id="13-15" x="12" y="14" width="1" height="1" shape-rendering="crispEdges" style="fill:#2c0f30;opacity:255;"></rect><rect id="15-15" x="14" y="14" width="1" height="1" shape-rendering="crispEdges" style="fill:#2c0f30;opacity:255;"></rect><rect id="16-15" x="15" y="14" width="1" height="1" shape-rendering="crispEdges" style="fill:#2c0f30;opacity:255;"></rect><rect id="17-15" x="16" y="14" width="1" height="1" shape-rendering="crispEdges" style="fill:#2c0f30;opacity:255;"></rect><rect id="18-15" x="17" y="14" width="1" height="1" shape-rendering="crispEdges" style="fill:#2c0f30;opacity:255;"></rect><rect id="25-15" x="24" y="14" width="1" height="1" shape-rendering="crispEdges" style="fill:#2c0f30;opacity:255;"></rect><rect id="26-15" x="25" y="14" width="1" height="1" shape-rendering="crispEdges" style="fill:#2c0f30;opacity:255;"></rect><rect id="27-15" x="26" y="14" width="1" height="1" shape-rendering="crispEdges" style="fill:#2c0f30;opacity:255;"></rect><rect id="28-15" x="27" y="14" width="1" height="1" shape-rendering="crispEdges" style="fill:#2c0f30;opacity:255;"></rect><rect id="4-16" x="3" y="15" width="1" height="1" shape-rendering="crispEdges" style="fill:#2c0f30;opacity:255;"></rect><rect id="5-16" x="4" y="15" width="1" height="1" shape-rendering="crispEdges" style="fill:#2c0f30;opacity:255;"></rect><rect id="6-16" x="5" y="15" width="1" height="1" shape-rendering="crispEdges" style="fill:#2c0f30;opacity:255;"></rect><rect id="7-16" x="6" y="15" width="1" height="1" shape-rendering="crispEdges" style="fill:#2c0f30;opacity:255;"></rect><rect id="8-16" x="7" y="15" width="1" height="1" shape-rendering="crispEdges" style="fill:#2c0f30;opacity:255;"></rect><rect id="9-16" x="8" y="15" width="1" height="1" shape-rendering="crispEdges" style="fill:#2c0f30;opacity:255;"></rect><rect id="10-16" x="9" y="15" width="1" height="1" shape-rendering="crispEdges" style="fill:#2c0f30;opacity:255;"></rect><rect id="11-16" x="10" y="15" width="1" height="1" shape-rendering="crispEdges" style="fill:#2c0f30;opacity:255;"></rect><rect id="12-16" x="11" y="15" width="1" height="1" shape-rendering="crispEdges" style="fill:#2c0f30;opacity:255;"></rect><rect id="13-16" x="12" y="15" width="1" height="1" shape-rendering="crispEdges" style="fill:#2c0f30;opacity:255;"></rect><rect id="14-16" x="13" y="15" width="1" height="1" shape-rendering="crispEdges" style="fill:#2c0f30;opacity:255;"></rect><rect id="15-16" x="14" y="15" width="1" height="1" shape-rendering="crispEdges" style="fill:#2c0f30;opacity:255;"></rect><rect id="16-16" x="15" y="15" width="1" height="1" shape-rendering="crispEdges" style="fill:#2c0f30;opacity:255;"></rect><rect id="17-16" x="16" y="15" width="1" height="1" shape-rendering="crispEdges" style="fill:#2c0f30;opacity:255;"></rect><rect id="18-16" x="17" y="15" width="1" height="1" shape-rendering="crispEdges" style="fill:#2c0f30;opacity:255;"></rect><rect id="22-16" x="21" y="15" width="1" height="1" shape-rendering="crispEdges" style="fill:#2c0f30;opacity:255;"></rect><rect id="23-16" x="22" y="15" width="1" height="1" shape-rendering="crispEdges" style="fill:#2c0f30;opacity:255;"></rect><rect id="24-16" x="23" y="15" width="1" height="1" shape-rendering="crispEdges" style="fill:#2c0f30;opacity:255;"></rect><rect id="25-16" x="24" y="15" width="1" height="1" shape-rendering="crispEdges" style="fill:#2c0f30;opacity:255;"></rect><rect id="26-16" x="25" y="15" width="1" height="1" shape-rendering="crispEdges" style="fill:#2c0f30;opacity:255;"></rect><rect id="27-16" x="26" y="15" width="1" height="1" shape-rendering="crispEdges" style="fill:#2c0f30;opacity:255;"></rect><rect id="28-16" x="27" y="15" width="1" height="1" shape-rendering="crispEdges" style="fill:#2c0f30;opacity:255;"></rect><rect id="29-16" x="28" y="15" width="1" height="1" shape-rendering="crispEdges" style="fill:#2c0f30;opacity:255;"></rect><rect id="30-16" x="29" y="15" width="1" height="1" shape-rendering="crispEdges" style="fill:#2c0f30;opacity:255;"></rect><rect id="31-16" x="30" y="15" width="1" height="1" shape-rendering="crispEdges" style="fill:#2c0f30;opacity:255;"></rect><rect id="4-17" x="3" y="16" width="1" height="1" shape-rendering="crispEdges" style="fill:#2c0f30;opacity:255;"></rect><rect id="5-17" x="4" y="16" width="1" height="1" shape-rendering="crispEdges" style="fill:#2c0f30;opacity:255;"></rect><rect id="6-17" x="5" y="16" width="1" height="1" shape-rendering="crispEdges" style="fill:#2c0f30;opacity:255;"></rect><rect id="7-17" x="6" y="16" width="1" height="1" shape-rendering="crispEdges" style="fill:#2c0f30;opacity:255;"></rect><rect id="8-17" x="7" y="16" width="1" height="1" shape-rendering="crispEdges" style="fill:#2c0f30;opacity:255;"></rect><rect id="9-17" x="8" y="16" width="1" height="1" shape-rendering="crispEdges" style="fill:#2c0f30;opacity:255;"></rect><rect id="10-17" x="9" y="16" width="1" height="1" shape-rendering="crispEdges" style="fill:#2c0f30;opacity:255;"></rect><rect id="11-17" x="10" y="16" width="1" height="1" shape-rendering="crispEdges" style="fill:#2c0f30;opacity:255;"></rect><rect id="12-17" x="11" y="16" width="1" height="1" shape-rendering="crispEdges" style="fill:#2c0f30;opacity:255;"></rect><rect id="13-17" x="12" y="16" width="1" height="1" shape-rendering="crispEdges" style="fill:#2c0f30;opacity:255;"></rect><rect id="14-17" x="13" y="16" width="1" height="1" shape-rendering="crispEdges" style="fill:#2c0f30;opacity:255;"></rect><rect id="15-17" x="14" y="16" width="1" height="1" shape-rendering="crispEdges" style="fill:#2c0f30;opacity:255;"></rect><rect id="16-17" x="15" y="16" width="1" height="1" shape-rendering="crispEdges" style="fill:#2c0f30;opacity:255;"></rect><rect id="17-17" x="16" y="16" width="1" height="1" shape-rendering="crispEdges" style="fill:#2c0f30;opacity:255;"></rect><rect id="18-17" x="17" y="16" width="1" height="1" shape-rendering="crispEdges" style="fill:#2c0f30;opacity:255;"></rect><rect id="22-17" x="21" y="16" width="1" height="1" shape-rendering="crispEdges" style="fill:#2c0f30;opacity:255;"></rect><rect id="23-17" x="22" y="16" width="1" height="1" shape-rendering="crispEdges" style="fill:#2c0f30;opacity:255;"></rect><rect id="24-17" x="23" y="16" width="1" height="1" shape-rendering="crispEdges" style="fill:#2c0f30;opacity:255;"></rect><rect id="25-17" x="24" y="16" width="1" height="1" shape-rendering="crispEdges" style="fill:#2c0f30;opacity:255;"></rect><rect id="26-17" x="25" y="16" width="1" height="1" shape-rendering="crispEdges" style="fill:#2c0f30;opacity:255;"></rect><rect id="27-17" x="26" y="16" width="1" height="1" shape-rendering="crispEdges" style="fill:#2c0f30;opacity:255;"></rect><rect id="28-17" x="27" y="16" width="1" height="1" shape-rendering="crispEdges" style="fill:#2c0f30;opacity:255;"></rect><rect id="29-17" x="28" y="16" width="1" height="1" shape-rendering="crispEdges" style="fill:#2c0f30;opacity:255;"></rect><rect id="30-17" x="29" y="16" width="1" height="1" shape-rendering="crispEdges" style="fill:#2c0f30;opacity:255;"></rect><rect id="31-17" x="30" y="16" width="1" height="1" shape-rendering="crispEdges" style="fill:#2c0f30;opacity:255;"></rect><rect id="4-18" x="3" y="17" width="1" height="1" shape-rendering="crispEdges" style="fill:#2c0f30;opacity:255;"></rect><rect id="5-18" x="4" y="17" width="1" height="1" shape-rendering="crispEdges" style="fill:#2c0f30;opacity:255;"></rect><rect id="6-18" x="5" y="17" width="1" height="1" shape-rendering="crispEdges" style="fill:#2c0f30;opacity:255;"></rect><rect id="7-18" x="6" y="17" width="1" height="1" shape-rendering="crispEdges" style="fill:#2c0f30;opacity:255;"></rect><rect id="8-18" x="7" y="17" width="1" height="1" shape-rendering="crispEdges" style="fill:#2c0f30;opacity:255;"></rect><rect id="9-18" x="8" y="17" width="1" height="1" shape-rendering="crispEdges" style="fill:#2c0f30;opacity:255;"></rect><rect id="10-18" x="9" y="17" width="1" height="1" shape-rendering="crispEdges" style="fill:#2c0f30;opacity:255;"></rect><rect id="11-18" x="10" y="17" width="1" height="1" shape-rendering="crispEdges" style="fill:#2c0f30;opacity:255;"></rect><rect id="12-18" x="11" y="17" width="1" height="1" shape-rendering="crispEdges" style="fill:#2c0f30;opacity:255;"></rect><rect id="13-18" x="12" y="17" width="1" height="1" shape-rendering="crispEdges" style="fill:#2c0f30;opacity:255;"></rect><rect id="14-18" x="13" y="17" width="1" height="1" shape-rendering="crispEdges" style="fill:#2c0f30;opacity:255;"></rect><rect id="15-18" x="14" y="17" width="1" height="1" shape-rendering="crispEdges" style="fill:#2c0f30;opacity:255;"></rect><rect id="16-18" x="15" y="17" width="1" height="1" shape-rendering="crispEdges" style="fill:#2c0f30;opacity:255;"></rect><rect id="17-18" x="16" y="17" width="1" height="1" shape-rendering="crispEdges" style="fill:#2c0f30;opacity:255;"></rect><rect id="18-18" x="17" y="17" width="1" height="1" shape-rendering="crispEdges" style="fill:#2c0f30;opacity:255;"></rect><rect id="22-18" x="21" y="17" width="1" height="1" shape-rendering="crispEdges" style="fill:#2c0f30;opacity:255;"></rect><rect id="23-18" x="22" y="17" width="1" height="1" shape-rendering="crispEdges" style="fill:#2c0f30;opacity:255;"></rect><rect id="24-18" x="23" y="17" width="1" height="1" shape-rendering="crispEdges" style="fill:#2c0f30;opacity:255;"></rect><rect id="25-18" x="24" y="17" width="1" height="1" shape-rendering="crispEdges" style="fill:#2c0f30;opacity:255;"></rect><rect id="26-18" x="25" y="17" width="1" height="1" shape-rendering="crispEdges" style="fill:#2c0f30;opacity:255;"></rect><rect id="27-18" x="26" y="17" width="1" height="1" shape-rendering="crispEdges" style="fill:#2c0f30;opacity:255;"></rect><rect id="28-18" x="27" y="17" width="1" height="1" shape-rendering="crispEdges" style="fill:#2c0f30;opacity:255;"></rect><rect id="29-18" x="28" y="17" width="1" height="1" shape-rendering="crispEdges" style="fill:#2c0f30;opacity:255;"></rect><rect id="30-18" x="29" y="17" width="1" height="1" shape-rendering="crispEdges" style="fill:#2c0f30;opacity:255;"></rect><rect id="31-18" x="30" y="17" width="1" height="1" shape-rendering="crispEdges" style="fill:#2c0f30;opacity:255;"></rect><rect id="4-19" x="3" y="18" width="1" height="1" shape-rendering="crispEdges" style="fill:#2c0f30;opacity:255;"></rect><rect id="5-19" x="4" y="18" width="1" height="1" shape-rendering="crispEdges" style="fill:#2c0f30;opacity:255;"></rect><rect id="6-19" x="5" y="18" width="1" height="1" shape-rendering="crispEdges" style="fill:#2c0f30;opacity:255;"></rect><rect id="7-19" x="6" y="18" width="1" height="1" shape-rendering="crispEdges" style="fill:#2c0f30;opacity:255;"></rect><rect id="8-19" x="7" y="18" width="1" height="1" shape-rendering="crispEdges" style="fill:#2c0f30;opacity:255;"></rect><rect id="9-19" x="8" y="18" width="1" height="1" shape-rendering="crispEdges" style="fill:#2c0f30;opacity:255;"></rect><rect id="10-19" x="9" y="18" width="1" height="1" shape-rendering="crispEdges" style="fill:#2c0f30;opacity:255;"></rect><rect id="11-19" x="10" y="18" width="1" height="1" shape-rendering="crispEdges" style="fill:#2c0f30;opacity:255;"></rect><rect id="12-19" x="11" y="18" width="1" height="1" shape-rendering="crispEdges" style="fill:#2c0f30;opacity:255;"></rect><rect id="13-19" x="12" y="18" width="1" height="1" shape-rendering="crispEdges" style="fill:#2c0f30;opacity:255;"></rect><rect id="14-19" x="13" y="18" width="1" height="1" shape-rendering="crispEdges" style="fill:#2c0f30;opacity:255;"></rect><rect id="15-19" x="14" y="18" width="1" height="1" shape-rendering="crispEdges" style="fill:#2c0f30;opacity:255;"></rect><rect id="16-19" x="15" y="18" width="1" height="1" shape-rendering="crispEdges" style="fill:#2c0f30;opacity:255;"></rect><rect id="17-19" x="16" y="18" width="1" height="1" shape-rendering="crispEdges" style="fill:#2c0f30;opacity:255;"></rect><rect id="18-19" x="17" y="18" width="1" height="1" shape-rendering="crispEdges" style="fill:#2c0f30;opacity:255;"></rect><rect id="22-19" x="21" y="18" width="1" height="1" shape-rendering="crispEdges" style="fill:#2c0f30;opacity:255;"></rect><rect id="23-19" x="22" y="18" width="1" height="1" shape-rendering="crispEdges" style="fill:#2c0f30;opacity:255;"></rect><rect id="24-19" x="23" y="18" width="1" height="1" shape-rendering="crispEdges" style="fill:#2c0f30;opacity:255;"></rect><rect id="25-19" x="24" y="18" width="1" height="1" shape-rendering="crispEdges" style="fill:#2c0f30;opacity:255;"></rect><rect id="26-19" x="25" y="18" width="1" height="1" shape-rendering="crispEdges" style="fill:#2c0f30;opacity:255;"></rect><rect id="27-19" x="26" y="18" width="1" height="1" shape-rendering="crispEdges" style="fill:#2c0f30;opacity:255;"></rect><rect id="28-19" x="27" y="18" width="1" height="1" shape-rendering="crispEdges" style="fill:#2c0f30;opacity:255;"></rect><rect id="29-19" x="28" y="18" width="1" height="1" shape-rendering="crispEdges" style="fill:#2c0f30;opacity:255;"></rect><rect id="30-19" x="29" y="18" width="1" height="1" shape-rendering="crispEdges" style="fill:#2c0f30;opacity:255;"></rect><rect id="31-19" x="30" y="18" width="1" height="1" shape-rendering="crispEdges" style="fill:#2c0f30;opacity:255;"></rect><rect id="4-20" x="3" y="19" width="1" height="1" shape-rendering="crispEdges" style="fill:#2c0f30;opacity:255;"></rect><rect id="5-20" x="4" y="19" width="1" height="1" shape-rendering="crispEdges" style="fill:#2c0f30;opacity:255;"></rect><rect id="6-20" x="5" y="19" width="1" height="1" shape-rendering="crispEdges" style="fill:#2c0f30;opacity:255;"></rect><rect id="7-20" x="6" y="19" width="1" height="1" shape-rendering="crispEdges" style="fill:#2c0f30;opacity:255;"></rect><rect id="15-20" x="14" y="19" width="1" height="1" shape-rendering="crispEdges" style="fill:#2c0f30;opacity:255;"></rect><rect id="16-20" x="15" y="19" width="1" height="1" shape-rendering="crispEdges" style="fill:#2c0f30;opacity:255;"></rect><rect id="17-20" x="16" y="19" width="1" height="1" shape-rendering="crispEdges" style="fill:#2c0f30;opacity:255;"></rect><rect id="18-20" x="17" y="19" width="1" height="1" shape-rendering="crispEdges" style="fill:#2c0f30;opacity:255;"></rect><rect id="4-21" x="3" y="20" width="1" height="1" shape-rendering="crispEdges" style="fill:#2c0f30;opacity:255;"></rect><rect id="5-21" x="4" y="20" width="1" height="1" shape-rendering="crispEdges" style="fill:#2c0f30;opacity:255;"></rect><rect id="6-21" x="5" y="20" width="1" height="1" shape-rendering="crispEdges" style="fill:#2c0f30;opacity:255;"></rect><rect id="7-21" x="6" y="20" width="1" height="1" shape-rendering="crispEdges" style="fill:#2c0f30;opacity:255;"></rect><rect id="15-21" x="14" y="20" width="1" height="1" shape-rendering="crispEdges" style="fill:#2c0f30;opacity:255;"></rect><rect id="16-21" x="15" y="20" width="1" height="1" shape-rendering="crispEdges" style="fill:#2c0f30;opacity:255;"></rect><rect id="17-21" x="16" y="20" width="1" height="1" shape-rendering="crispEdges" style="fill:#2c0f30;opacity:255;"></rect><rect id="18-21" x="17" y="20" width="1" height="1" shape-rendering="crispEdges" style="fill:#2c0f30;opacity:255;"></rect><rect id="4-22" x="3" y="21" width="1" height="1" shape-rendering="crispEdges" style="fill:#2c0f30;opacity:255;"></rect><rect id="5-22" x="4" y="21" width="1" height="1" shape-rendering="crispEdges" style="fill:#2c0f30;opacity:255;"></rect><rect id="6-22" x="5" y="21" width="1" height="1" shape-rendering="crispEdges" style="fill:#2c0f30;opacity:255;"></rect><rect id="7-22" x="6" y="21" width="1" height="1" shape-rendering="crispEdges" style="fill:#2c0f30;opacity:255;"></rect><rect id="15-22" x="14" y="21" width="1" height="1" shape-rendering="crispEdges" style="fill:#2c0f30;opacity:255;"></rect><rect id="16-22" x="15" y="21" width="1" height="1" shape-rendering="crispEdges" style="fill:#2c0f30;opacity:255;"></rect><rect id="17-22" x="16" y="21" width="1" height="1" shape-rendering="crispEdges" style="fill:#2c0f30;opacity:255;"></rect><rect id="18-22" x="17" y="21" width="1" height="1" shape-rendering="crispEdges" style="fill:#2c0f30;opacity:255;"></rect><rect id="4-23" x="3" y="22" width="1" height="1" shape-rendering="crispEdges" style="fill:#2c0f30;opacity:255;"></rect><rect id="5-23" x="4" y="22" width="1" height="1" shape-rendering="crispEdges" style="fill:#2c0f30;opacity:255;"></rect><rect id="6-23" x="5" y="22" width="1" height="1" shape-rendering="crispEdges" style="fill:#2c0f30;opacity:255;"></rect><rect id="7-23" x="6" y="22" width="1" height="1" shape-rendering="crispEdges" style="fill:#2c0f30;opacity:255;"></rect><rect id="15-23" x="14" y="22" width="1" height="1" shape-rendering="crispEdges" style="fill:#2c0f30;opacity:255;"></rect><rect id="16-23" x="15" y="22" width="1" height="1" shape-rendering="crispEdges" style="fill:#2c0f30;opacity:255;"></rect><rect id="17-23" x="16" y="22" width="1" height="1" shape-rendering="crispEdges" style="fill:#2c0f30;opacity:255;"></rect><rect id="18-23" x="17" y="22" width="1" height="1" shape-rendering="crispEdges" style="fill:#2c0f30;opacity:255;"></rect><rect id="4-24" x="3" y="23" width="1" height="1" shape-rendering="crispEdges" style="fill:#2c0f30;opacity:255;"></rect><rect id="5-24" x="4" y="23" width="1" height="1" shape-rendering="crispEdges" style="fill:#2c0f30;opacity:255;"></rect><rect id="6-24" x="5" y="23" width="1" height="1" shape-rendering="crispEdges" style="fill:#2c0f30;opacity:255;"></rect><rect id="7-24" x="6" y="23" width="1" height="1" shape-rendering="crispEdges" style="fill:#2c0f30;opacity:255;"></rect><rect id="15-24" x="14" y="23" width="1" height="1" shape-rendering="crispEdges" style="fill:#2c0f30;opacity:255;"></rect><rect id="16-24" x="15" y="23" width="1" height="1" shape-rendering="crispEdges" style="fill:#2c0f30;opacity:255;"></rect><rect id="17-24" x="16" y="23" width="1" height="1" shape-rendering="crispEdges" style="fill:#2c0f30;opacity:255;"></rect><rect id="18-24" x="17" y="23" width="1" height="1" shape-rendering="crispEdges" style="fill:#2c0f30;opacity:255;"></rect><rect id="4-25" x="3" y="24" width="1" height="1" shape-rendering="crispEdges" style="fill:#2c0f30;opacity:255;"></rect><rect id="5-25" x="4" y="24" width="1" height="1" shape-rendering="crispEdges" style="fill:#2c0f30;opacity:255;"></rect><rect id="6-25" x="5" y="24" width="1" height="1" shape-rendering="crispEdges" style="fill:#2c0f30;opacity:255;"></rect><rect id="7-25" x="6" y="24" width="1" height="1" shape-rendering="crispEdges" style="fill:#2c0f30;opacity:255;"></rect><rect id="15-25" x="14" y="24" width="1" height="1" shape-rendering="crispEdges" style="fill:#2c0f30;opacity:255;"></rect><rect id="16-25" x="15" y="24" width="1" height="1" shape-rendering="crispEdges" style="fill:#2c0f30;opacity:255;"></rect><rect id="17-25" x="16" y="24" width="1" height="1" shape-rendering="crispEdges" style="fill:#2c0f30;opacity:255;"></rect><rect id="18-25" x="17" y="24" width="1" height="1" shape-rendering="crispEdges" style="fill:#2c0f30;opacity:255;"></rect><rect id="4-26" x="3" y="25" width="1" height="1" shape-rendering="crispEdges" style="fill:#2c0f30;opacity:255;"></rect><rect id="5-26" x="4" y="25" width="1" height="1" shape-rendering="crispEdges" style="fill:#2c0f30;opacity:255;"></rect><rect id="6-26" x="5" y="25" width="1" height="1" shape-rendering="crispEdges" style="fill:#2c0f30;opacity:255;"></rect><rect id="7-26" x="6" y="25" width="1" height="1" shape-rendering="crispEdges" style="fill:#2c0f30;opacity:255;"></rect><rect id="15-26" x="14" y="25" width="1" height="1" shape-rendering="crispEdges" style="fill:#2c0f30;opacity:255;"></rect><rect id="16-26" x="15" y="25" width="1" height="1" shape-rendering="crispEdges" style="fill:#2c0f30;opacity:255;"></rect><rect id="17-26" x="16" y="25" width="1" height="1" shape-rendering="crispEdges" style="fill:#2c0f30;opacity:255;"></rect><rect id="18-26" x="17" y="25" width="1" height="1" shape-rendering="crispEdges" style="fill:#2c0f30;opacity:255;"></rect><rect id="2-27" x="1" y="26" width="1" height="1" shape-rendering="crispEdges" style="fill:#2c0f30;opacity:255;"></rect><rect id="3-27" x="2" y="26" width="1" height="1" shape-rendering="crispEdges" style="fill:#2c0f30;opacity:255;"></rect><rect id="4-27" x="3" y="26" width="1" height="1" shape-rendering="crispEdges" style="fill:#2c0f30;opacity:255;"></rect><rect id="5-27" x="4" y="26" width="1" height="1" shape-rendering="crispEdges" style="fill:#2c0f30;opacity:255;"></rect><rect id="6-27" x="5" y="26" width="1" height="1" shape-rendering="crispEdges" style="fill:#2c0f30;opacity:255;"></rect><rect id="7-27" x="6" y="26" width="1" height="1" shape-rendering="crispEdges" style="fill:#2c0f30;opacity:255;"></rect><rect id="8-27" x="7" y="26" width="1" height="1" shape-rendering="crispEdges" style="fill:#2c0f30;opacity:255;"></rect><rect id="9-27" x="8" y="26" width="1" height="1" shape-rendering="crispEdges" style="fill:#2c0f30;opacity:255;"></rect><rect id="13-27" x="12" y="26" width="1" height="1" shape-rendering="crispEdges" style="fill:#2c0f30;opacity:255;"></rect><rect id="14-27" x="13" y="26" width="1" height="1" shape-rendering="crispEdges" style="fill:#2c0f30;opacity:255;"></rect><rect id="15-27" x="14" y="26" width="1" height="1" shape-rendering="crispEdges" style="fill:#2c0f30;opacity:255;"></rect><rect id="16-27" x="15" y="26" width="1" height="1" shape-rendering="crispEdges" style="fill:#2c0f30;opacity:255;"></rect><rect id="17-27" x="16" y="26" width="1" height="1" shape-rendering="crispEdges" style="fill:#2c0f30;opacity:255;"></rect><rect id="18-27" x="17" y="26" width="1" height="1" shape-rendering="crispEdges" style="fill:#2c0f30;opacity:255;"></rect><rect id="19-27" x="18" y="26" width="1" height="1" shape-rendering="crispEdges" style="fill:#2c0f30;opacity:255;"></rect><rect id="20-27" x="19" y="26" width="1" height="1" shape-rendering="crispEdges" style="fill:#2c0f30;opacity:255;"></rect><rect id="2-28" x="1" y="27" width="1" height="1" shape-rendering="crispEdges" style="fill:#2c0f30;opacity:255;"></rect><rect id="3-28" x="2" y="27" width="1" height="1" shape-rendering="crispEdges" style="fill:#2c0f30;opacity:255;"></rect><rect id="4-28" x="3" y="27" width="1" height="1" shape-rendering="crispEdges" style="fill:#2c0f30;opacity:255;"></rect><rect id="5-28" x="4" y="27" width="1" height="1" shape-rendering="crispEdges" style="fill:#2c0f30;opacity:255;"></rect><rect id="6-28" x="5" y="27" width="1" height="1" shape-rendering="crispEdges" style="fill:#2c0f30;opacity:255;"></rect><rect id="7-28" x="6" y="27" width="1" height="1" shape-rendering="crispEdges" style="fill:#2c0f30;opacity:255;"></rect><rect id="8-28" x="7" y="27" width="1" height="1" shape-rendering="crispEdges" style="fill:#2c0f30;opacity:255;"></rect><rect id="9-28" x="8" y="27" width="1" height="1" shape-rendering="crispEdges" style="fill:#2c0f30;opacity:255;"></rect><rect id="13-28" x="12" y="27" width="1" height="1" shape-rendering="crispEdges" style="fill:#2c0f30;opacity:255;"></rect><rect id="14-28" x="13" y="27" width="1" height="1" shape-rendering="crispEdges" style="fill:#2c0f30;opacity:255;"></rect><rect id="15-28" x="14" y="27" width="1" height="1" shape-rendering="crispEdges" style="fill:#2c0f30;opacity:255;"></rect><rect id="16-28" x="15" y="27" width="1" height="1" shape-rendering="crispEdges" style="fill:#2c0f30;opacity:255;"></rect><rect id="17-28" x="16" y="27" width="1" height="1" shape-rendering="crispEdges" style="fill:#2c0f30;opacity:255;"></rect><rect id="18-28" x="17" y="27" width="1" height="1" shape-rendering="crispEdges" style="fill:#2c0f30;opacity:255;"></rect><rect id="19-28" x="18" y="27" width="1" height="1" shape-rendering="crispEdges" style="fill:#2c0f30;opacity:255;"></rect><rect id="20-28" x="19" y="27" width="1" height="1" shape-rendering="crispEdges" style="fill:#2c0f30;opacity:255;"></rect><rect id="2-29" x="1" y="28" width="1" height="1" shape-rendering="crispEdges" style="fill:#2c0f30;opacity:255;"></rect><rect id="3-29" x="2" y="28" width="1" height="1" shape-rendering="crispEdges" style="fill:#2c0f30;opacity:255;"></rect><rect id="4-29" x="3" y="28" width="1" height="1" shape-rendering="crispEdges" style="fill:#2c0f30;opacity:255;"></rect><rect id="5-29" x="4" y="28" width="1" height="1" shape-rendering="crispEdges" style="fill:#2c0f30;opacity:255;"></rect><rect id="6-29" x="5" y="28" width="1" height="1" shape-rendering="crispEdges" style="fill:#2c0f30;opacity:255;"></rect><rect id="7-29" x="6" y="28" width="1" height="1" shape-rendering="crispEdges" style="fill:#2c0f30;opacity:255;"></rect><rect id="8-29" x="7" y="28" width="1" height="1" shape-rendering="crispEdges" style="fill:#2c0f30;opacity:255;"></rect><rect id="9-29" x="8" y="28" width="1" height="1" shape-rendering="crispEdges" style="fill:#2c0f30;opacity:255;"></rect><rect id="13-29" x="12" y="28" width="1" height="1" shape-rendering="crispEdges" style="fill:#2c0f30;opacity:255;"></rect><rect id="14-29" x="13" y="28" width="1" height="1" shape-rendering="crispEdges" style="fill:#2c0f30;opacity:255;"></rect><rect id="15-29" x="14" y="28" width="1" height="1" shape-rendering="crispEdges" style="fill:#2c0f30;opacity:255;"></rect><rect id="16-29" x="15" y="28" width="1" height="1" shape-rendering="crispEdges" style="fill:#2c0f30;opacity:255;"></rect><rect id="17-29" x="16" y="28" width="1" height="1" shape-rendering="crispEdges" style="fill:#2c0f30;opacity:255;"></rect><rect id="18-29" x="17" y="28" width="1" height="1" shape-rendering="crispEdges" style="fill:#2c0f30;opacity:255;"></rect><rect id="19-29" x="18" y="28" width="1" height="1" shape-rendering="crispEdges" style="fill:#2c0f30;opacity:255;"></rect><rect id="20-29" x="19" y="28" width="1" height="1" shape-rendering="crispEdges" style="fill:#2c0f30;opacity:255;"></rect></svg>