<?xml version="1.0" encoding="UTF-8" standalone="no"?><svg xmlns="http://www.w3.org/2000/svg" id="house" width="24" height="24" viewBox="0 0 24 24" preserveAspectRatio="xMidYMid meet" rendering="crispEdges"><g><rect id="14-6" x="9.75" y="3.75" width="0.75" height="0.75" shape-rendering="crispEdges" style="fill:#2c0f30;opacity:255;"></rect><rect id="15-6" x="10.5" y="3.75" width="0.75" height="0.75" shape-rendering="crispEdges" style="fill:#2c0f30;opacity:255;"></rect><rect id="16-6" x="11.25" y="3.75" width="0.75" height="0.75" shape-rendering="crispEdges" style="fill:#2c0f30;opacity:255;"></rect><rect id="17-6" x="12" y="3.75" width="0.75" height="0.75" shape-rendering="crispEdges" style="fill:#2c0f30;opacity:255;"></rect><rect id="18-6" x="12.75" y="3.75" width="0.75" height="0.75" shape-rendering="crispEdges" style="fill:#2c0f30;opacity:255;"></rect><rect id="19-6" x="13.5" y="3.75" width="0.75" height="0.75" shape-rendering="crispEdges" style="fill:#2c0f30;opacity:255;"></rect><rect id="14-7" x="9.75" y="4.5" width="0.75" height="0.75" shape-rendering="crispEdges" style="fill:#2c0f30;opacity:255;"></rect><rect id="15-7" x="10.5" y="4.5" width="0.75" height="0.75" shape-rendering="crispEdges" style="fill:#2c0f30;opacity:255;"></rect><rect id="16-7" x="11.25" y="4.5" width="0.75" height="0.75" shape-rendering="crispEdges" style="fill:#2c0f30;opacity:255;"></rect><rect id="17-7" x="12" y="4.5" width="0.75" height="0.75" shape-rendering="crispEdges" style="fill:#2c0f30;opacity:255;"></rect><rect id="18-7" x="12.75" y="4.5" width="0.75" height="0.75" shape-rendering="crispEdges" style="fill:#2c0f30;opacity:255;"></rect><rect id="19-7" x="13.5" y="4.5" width="0.75" height="0.75" shape-rendering="crispEdges" style="fill:#2c0f30;opacity:255;"></rect><rect id="12-8" x="8.25" y="5.25" width="0.75" height="0.75" shape-rendering="crispEdges" style="fill:#2c0f30;opacity:255;"></rect><rect id="13-8" x="9" y="5.25" width="0.75" height="0.75" shape-rendering="crispEdges" style="fill:#2c0f30;opacity:255;"></rect><rect id="14-8" x="9.75" y="5.25" width="0.75" height="0.75" shape-rendering="crispEdges" style="fill:#2c0f30;opacity:255;"></rect><rect id="15-8" x="10.5" y="5.25" width="0.75" height="0.75" shape-rendering="crispEdges" style="fill:#2c0f30;opacity:255;"></rect><rect id="16-8" x="11.25" y="5.25" width="0.75" height="0.75" shape-rendering="crispEdges" style="fill:#2c0f30;opacity:255;"></rect><rect id="17-8" x="12" y="5.25" width="0.75" height="0.75" shape-rendering="crispEdges" style="fill:#2c0f30;opacity:255;"></rect><rect id="18-8" x="12.75" y="5.25" width="0.75" height="0.75" shape-rendering="crispEdges" style="fill:#2c0f30;opacity:255;"></rect><rect id="19-8" x="13.5" y="5.25" width="0.75" height="0.75" shape-rendering="crispEdges" style="fill:#2c0f30;opacity:255;"></rect><rect id="20-8" x="14.25" y="5.25" width="0.75" height="0.75" shape-rendering="crispEdges" style="fill:#2c0f30;opacity:255;"></rect><rect id="21-8" x="15" y="5.25" width="0.75" height="0.75" shape-rendering="crispEdges" style="fill:#2c0f30;opacity:255;"></rect><rect id="12-9" x="8.25" y="6" width="0.75" height="0.75" shape-rendering="crispEdges" style="fill:#2c0f30;opacity:255;"></rect><rect id="13-9" x="9" y="6" width="0.75" height="0.75" shape-rendering="crispEdges" style="fill:#2c0f30;opacity:255;"></rect><rect id="14-9" x="9.75" y="6" width="0.75" height="0.75" shape-rendering="crispEdges" style="fill:#2c0f30;opacity:255;"></rect><rect id="15-9" x="10.5" y="6" width="0.75" height="0.75" shape-rendering="crispEdges" style="fill:#2c0f30;opacity:255;"></rect><rect id="16-9" x="11.25" y="6" width="0.75" height="0.75" shape-rendering="crispEdges" style="fill:#2c0f30;opacity:255;"></rect><rect id="17-9" x="12" y="6" width="0.75" height="0.75" shape-rendering="crispEdges" style="fill:#2c0f30;opacity:255;"></rect><rect id="18-9" x="12.75" y="6" width="0.75" height="0.75" shape-rendering="crispEdges" style="fill:#2c0f30;opacity:255;"></rect><rect id="19-9" x="13.5" y="6" width="0.75" height="0.75" shape-rendering="crispEdges" style="fill:#2c0f30;opacity:255;"></rect><rect id="20-9" x="14.25" y="6" width="0.75" height="0.75" shape-rendering="crispEdges" style="fill:#2c0f30;opacity:255;"></rect><rect id="21-9" x="15" y="6" width="0.75" height="0.75" shape-rendering="crispEdges" style="fill:#2c0f30;opacity:255;"></rect><rect id="10-10" x="6.75" y="6.75" width="0.75" height="0.75" shape-rendering="crispEdges" style="fill:#2c0f30;opacity:255;"></rect><rect id="11-10" x="7.5" y="6.75" width="0.75" height="0.75" shape-rendering="crispEdges" style="fill:#2c0f30;opacity:255;"></rect><rect id="12-10" x="8.25" y="6.75" width="0.75" height="0.75" shape-rendering="crispEdges" style="fill:#2c0f30;opacity:255;"></rect><rect id="13-10" x="9" y="6.75" width="0.75" height="0.75" shape-rendering="crispEdges" style="fill:#2c0f30;opacity:255;"></rect><rect id="14-10" x="9.75" y="6.75" width="0.75" height="0.75" shape-rendering="crispEdges" style="fill:#2c0f30;opacity:255;"></rect><rect id="19-10" x="13.5" y="6.75" width="0.75" height="0.75" shape-rendering="crispEdges" style="fill:#2c0f30;opacity:255;"></rect><rect id="20-10" x="14.25" y="6.75" width="0.75" height="0.75" shape-rendering="crispEdges" style="fill:#2c0f30;opacity:255;"></rect><rect id="21-10" x="15" y="6.75" width="0.75" height="0.75" shape-rendering="crispEdges" style="fill:#2c0f30;opacity:255;"></rect><rect id="22-10" x="15.75" y="6.75" width="0.75" height="0.75" shape-rendering="crispEdges" style="fill:#2c0f30;opacity:255;"></rect><rect id="23-10" x="16.5" y="6.75" width="0.75" height="0.75" shape-rendering="crispEdges" style="fill:#2c0f30;opacity:255;"></rect><rect id="10-11" x="6.75" y="7.5" width="0.75" height="0.75" shape-rendering="crispEdges" style="fill:#2c0f30;opacity:255;"></rect><rect id="11-11" x="7.5" y="7.5" width="0.75" height="0.75" shape-rendering="crispEdges" style="fill:#2c0f30;opacity:255;"></rect><rect id="12-11" x="8.25" y="7.5" width="0.75" height="0.75" shape-rendering="crispEdges" style="fill:#2c0f30;opacity:255;"></rect><rect id="13-11" x="9" y="7.5" width="0.75" height="0.75" shape-rendering="crispEdges" style="fill:#2c0f30;opacity:255;"></rect><rect id="14-11" x="9.75" y="7.5" width="0.75" height="0.75" shape-rendering="crispEdges" style="fill:#2c0f30;opacity:255;"></rect><rect id="19-11" x="13.5" y="7.5" width="0.75" height="0.75" shape-rendering="crispEdges" style="fill:#2c0f30;opacity:255;"></rect><rect id="20-11" x="14.25" y="7.5" width="0.75" height="0.75" shape-rendering="crispEdges" style="fill:#2c0f30;opacity:255;"></rect><rect id="21-11" x="15" y="7.5" width="0.75" height="0.75" shape-rendering="crispEdges" style="fill:#2c0f30;opacity:255;"></rect><rect id="22-11" x="15.75" y="7.5" width="0.75" height="0.75" shape-rendering="crispEdges" style="fill:#2c0f30;opacity:255;"></rect><rect id="23-11" x="16.5" y="7.5" width="0.75" height="0.75" shape-rendering="crispEdges" style="fill:#2c0f30;opacity:255;"></rect><rect id="8-12" x="5.25" y="8.25" width="0.75" height="0.75" shape-rendering="crispEdges" style="fill:#2c0f30;opacity:255;"></rect><rect id="9-12" x="6" y="8.25" width="0.75" height="0.75" shape-rendering="crispEdges" style="fill:#2c0f30;opacity:255;"></rect><rect id="10-12" x="6.75" y="8.25" width="0.75" height="0.75" shape-rendering="crispEdges" style="fill:#2c0f30;opacity:255;"></rect><rect id="11-12" x="7.5" y="8.25" width="0.75" height="0.75" shape-rendering="crispEdges" style="fill:#2c0f30;opacity:255;"></rect><rect id="12-12" x="8.25" y="8.25" width="0.75" height="0.75" shape-rendering="crispEdges" style="fill:#2c0f30;opacity:255;"></rect><rect id="21-12" x="15" y="8.25" width="0.75" height="0.75" shape-rendering="crispEdges" style="fill:#2c0f30;opacity:255;"></rect><rect id="22-12" x="15.75" y="8.25" width="0.75" height="0.75" shape-rendering="crispEdges" style="fill:#2c0f30;opacity:255;"></rect><rect id="23-12" x="16.5" y="8.25" width="0.75" height="0.75" shape-rendering="crispEdges" style="fill:#2c0f30;opacity:255;"></rect><rect id="24-12" x="17.25" y="8.25" width="0.75" height="0.75" shape-rendering="crispEdges" style="fill:#2c0f30;opacity:255;"></rect><rect id="25-12" x="18" y="8.25" width="0.75" height="0.75" shape-rendering="crispEdges" style="fill:#2c0f30;opacity:255;"></rect><rect id="8-13" x="5.25" y="9" width="0.75" height="0.75" shape-rendering="crispEdges" style="fill:#2c0f30;opacity:255;"></rect><rect id="9-13" x="6" y="9" width="0.75" height="0.75" shape-rendering="crispEdges" style="fill:#2c0f30;opacity:255;"></rect><rect id="10-13" x="6.75" y="9" width="0.75" height="0.75" shape-rendering="crispEdges" style="fill:#2c0f30;opacity:255;"></rect><rect id="11-13" x="7.5" y="9" width="0.75" height="0.75" shape-rendering="crispEdges" style="fill:#2c0f30;opacity:255;"></rect><rect id="12-13" x="8.25" y="9" width="0.75" height="0.75" shape-rendering="crispEdges" style="fill:#2c0f30;opacity:255;"></rect><rect id="16-13" x="11.25" y="9" width="0.75" height="0.75" shape-rendering="crispEdges" style="fill:#2c0f30;opacity:255;"></rect><rect id="17-13" x="12" y="9" width="0.75" height="0.75" shape-rendering="crispEdges" style="fill:#2c0f30;opacity:255;"></rect><rect id="21-13" x="15" y="9" width="0.75" height="0.75" shape-rendering="crispEdges" style="fill:#2c0f30;opacity:255;"></rect><rect id="22-13" x="15.75" y="9" width="0.75" height="0.75" shape-rendering="crispEdges" style="fill:#2c0f30;opacity:255;"></rect><rect id="23-13" x="16.5" y="9" width="0.75" height="0.75" shape-rendering="crispEdges" style="fill:#2c0f30;opacity:255;"></rect><rect id="24-13" x="17.25" y="9" width="0.75" height="0.75" shape-rendering="crispEdges" style="fill:#2c0f30;opacity:255;"></rect><rect id="25-13" x="18" y="9" width="0.75" height="0.75" shape-rendering="crispEdges" style="fill:#2c0f30;opacity:255;"></rect><rect id="6-14" x="3.75" y="9.75" width="0.75" height="0.75" shape-rendering="crispEdges" style="fill:#2c0f30;opacity:255;"></rect><rect id="7-14" x="4.5" y="9.75" width="0.75" height="0.75" shape-rendering="crispEdges" style="fill:#2c0f30;opacity:255;"></rect><rect id="8-14" x="5.25" y="9.75" width="0.75" height="0.75" shape-rendering="crispEdges" style="fill:#2c0f30;opacity:255;"></rect><rect id="9-14" x="6" y="9.75" width="0.75" height="0.75" shape-rendering="crispEdges" style="fill:#2c0f30;opacity:255;"></rect><rect id="10-14" x="6.75" y="9.75" width="0.75" height="0.75" shape-rendering="crispEdges" style="fill:#2c0f30;opacity:255;"></rect><rect id="15-14" x="10.5" y="9.75" width="0.75" height="0.75" shape-rendering="crispEdges" style="fill:#2c0f30;opacity:255;"></rect><rect id="18-14" x="12.75" y="9.75" width="0.75" height="0.75" shape-rendering="crispEdges" style="fill:#2c0f30;opacity:255;"></rect><rect id="23-14" x="16.5" y="9.75" width="0.75" height="0.75" shape-rendering="crispEdges" style="fill:#2c0f30;opacity:255;"></rect><rect id="24-14" x="17.25" y="9.75" width="0.75" height="0.75" shape-rendering="crispEdges" style="fill:#2c0f30;opacity:255;"></rect><rect id="25-14" x="18" y="9.75" width="0.75" height="0.75" shape-rendering="crispEdges" style="fill:#2c0f30;opacity:255;"></rect><rect id="26-14" x="18.75" y="9.75" width="0.75" height="0.75" shape-rendering="crispEdges" style="fill:#2c0f30;opacity:255;"></rect><rect id="27-14" x="19.5" y="9.75" width="0.75" height="0.75" shape-rendering="crispEdges" style="fill:#2c0f30;opacity:255;"></rect><rect id="6-15" x="3.75" y="10.5" width="0.75" height="0.75" shape-rendering="crispEdges" style="fill:#2c0f30;opacity:255;"></rect><rect id="7-15" x="4.5" y="10.5" width="0.75" height="0.75" shape-rendering="crispEdges" style="fill:#2c0f30;opacity:255;"></rect><rect id="8-15" x="5.25" y="10.5" width="0.75" height="0.75" shape-rendering="crispEdges" style="fill:#2c0f30;opacity:255;"></rect><rect id="9-15" x="6" y="10.5" width="0.75" height="0.75" shape-rendering="crispEdges" style="fill:#2c0f30;opacity:255;"></rect><rect id="10-15" x="6.75" y="10.5" width="0.75" height="0.75" shape-rendering="crispEdges" style="fill:#2c0f30;opacity:255;"></rect><rect id="15-15" x="10.5" y="10.5" width="0.75" height="0.75" shape-rendering="crispEdges" style="fill:#2c0f30;opacity:255;"></rect><rect id="18-15" x="12.75" y="10.5" width="0.75" height="0.75" shape-rendering="crispEdges" style="fill:#2c0f30;opacity:255;"></rect><rect id="23-15" x="16.5" y="10.5" width="0.75" height="0.75" shape-rendering="crispEdges" style="fill:#2c0f30;opacity:255;"></rect><rect id="24-15" x="17.25" y="10.5" width="0.75" height="0.75" shape-rendering="crispEdges" style="fill:#2c0f30;opacity:255;"></rect><rect id="25-15" x="18" y="10.5" width="0.75" height="0.75" shape-rendering="crispEdges" style="fill:#2c0f30;opacity:255;"></rect><rect id="26-15" x="18.75" y="10.5" width="0.75" height="0.75" shape-rendering="crispEdges" style="fill:#2c0f30;opacity:255;"></rect><rect id="27-15" x="19.5" y="10.5" width="0.75" height="0.75" shape-rendering="crispEdges" style="fill:#2c0f30;opacity:255;"></rect><rect id="4-16" x="2.25" y="11.25" width="0.75" height="0.75" shape-rendering="crispEdges" style="fill:#2c0f30;opacity:255;"></rect><rect id="5-16" x="3" y="11.25" width="0.75" height="0.75" shape-rendering="crispEdges" style="fill:#2c0f30;opacity:255;"></rect><rect id="6-16" x="3.75" y="11.25" width="0.75" height="0.75" shape-rendering="crispEdges" style="fill:#2c0f30;opacity:255;"></rect><rect id="7-16" x="4.5" y="11.25" width="0.75" height="0.75" shape-rendering="crispEdges" style="fill:#2c0f30;opacity:255;"></rect><rect id="8-16" x="5.25" y="11.25" width="0.75" height="0.75" shape-rendering="crispEdges" style="fill:#2c0f30;opacity:255;"></rect><rect id="16-16" x="11.25" y="11.25" width="0.75" height="0.75" shape-rendering="crispEdges" style="fill:#2c0f30;opacity:255;"></rect><rect id="17-16" x="12" y="11.25" width="0.75" height="0.75" shape-rendering="crispEdges" style="fill:#2c0f30;opacity:255;"></rect><rect id="25-16" x="18" y="11.25" width="0.75" height="0.75" shape-rendering="crispEdges" style="fill:#2c0f30;opacity:255;"></rect><rect id="26-16" x="18.75" y="11.25" width="0.75" height="0.75" shape-rendering="crispEdges" style="fill:#2c0f30;opacity:255;"></rect><rect id="27-16" x="19.5" y="11.25" width="0.75" height="0.75" shape-rendering="crispEdges" style="fill:#2c0f30;opacity:255;"></rect><rect id="28-16" x="20.25" y="11.25" width="0.75" height="0.75" shape-rendering="crispEdges" style="fill:#2c0f30;opacity:255;"></rect><rect id="29-16" x="21" y="11.25" width="0.75" height="0.75" shape-rendering="crispEdges" style="fill:#2c0f30;opacity:255;"></rect><rect id="4-17" x="2.25" y="12" width="0.75" height="0.75" shape-rendering="crispEdges" style="fill:#2c0f30;opacity:255;"></rect><rect id="5-17" x="3" y="12" width="0.75" height="0.75" shape-rendering="crispEdges" style="fill:#2c0f30;opacity:255;"></rect><rect id="6-17" x="3.75" y="12" width="0.75" height="0.75" shape-rendering="crispEdges" style="fill:#2c0f30;opacity:255;"></rect><rect id="7-17" x="4.5" y="12" width="0.75" height="0.75" shape-rendering="crispEdges" style="fill:#2c0f30;opacity:255;"></rect><rect id="8-17" x="5.25" y="12" width="0.75" height="0.75" shape-rendering="crispEdges" style="fill:#2c0f30;opacity:255;"></rect><rect id="25-17" x="18" y="12" width="0.75" height="0.75" shape-rendering="crispEdges" style="fill:#2c0f30;opacity:255;"></rect><rect id="26-17" x="18.75" y="12" width="0.75" height="0.75" shape-rendering="crispEdges" style="fill:#2c0f30;opacity:255;"></rect><rect id="27-17" x="19.5" y="12" width="0.75" height="0.75" shape-rendering="crispEdges" style="fill:#2c0f30;opacity:255;"></rect><rect id="28-17" x="20.25" y="12" width="0.75" height="0.75" shape-rendering="crispEdges" style="fill:#2c0f30;opacity:255;"></rect><rect id="29-17" x="21" y="12" width="0.75" height="0.75" shape-rendering="crispEdges" style="fill:#2c0f30;opacity:255;"></rect><rect id="2-18" x="0.75" y="12.75" width="0.75" height="0.75" shape-rendering="crispEdges" style="fill:#2c0f30;opacity:255;"></rect><rect id="3-18" x="1.5" y="12.75" width="0.75" height="0.75" shape-rendering="crispEdges" style="fill:#2c0f30;opacity:255;"></rect><rect id="4-18" x="2.25" y="12.75" width="0.75" height="0.75" shape-rendering="crispEdges" style="fill:#2c0f30;opacity:255;"></rect><rect id="5-18" x="3" y="12.75" width="0.75" height="0.75" shape-rendering="crispEdges" style="fill:#2c0f30;opacity:255;"></rect><rect id="6-18" x="3.75" y="12.75" width="0.75" height="0.75" shape-rendering="crispEdges" style="fill:#2c0f30;opacity:255;"></rect><rect id="27-18" x="19.5" y="12.75" width="0.75" height="0.75" shape-rendering="crispEdges" style="fill:#2c0f30;opacity:255;"></rect><rect id="28-18" x="20.25" y="12.75" width="0.75" height="0.75" shape-rendering="crispEdges" style="fill:#2c0f30;opacity:255;"></rect><rect id="29-18" x="21" y="12.75" width="0.75" height="0.75" shape-rendering="crispEdges" style="fill:#2c0f30;opacity:255;"></rect><rect id="30-18" x="21.75" y="12.75" width="0.75" height="0.75" shape-rendering="crispEdges" style="fill:#2c0f30;opacity:255;"></rect><rect id="31-18" x="22.5" y="12.75" width="0.75" height="0.75" shape-rendering="crispEdges" style="fill:#2c0f30;opacity:255;"></rect><rect id="2-19" x="0.75" y="13.5" width="0.75" height="0.75" shape-rendering="crispEdges" style="fill:#2c0f30;opacity:255;"></rect><rect id="3-19" x="1.5" y="13.5" width="0.75" height="0.75" shape-rendering="crispEdges" style="fill:#2c0f30;opacity:255;"></rect><rect id="4-19" x="2.25" y="13.5" width="0.75" height="0.75" shape-rendering="crispEdges" style="fill:#2c0f30;opacity:255;"></rect><rect id="5-19" x="3" y="13.5" width="0.75" height="0.75" shape-rendering="crispEdges" style="fill:#2c0f30;opacity:255;"></rect><rect id="6-19" x="3.75" y="13.5" width="0.75" height="0.75" shape-rendering="crispEdges" style="fill:#2c0f30;opacity:255;"></rect><rect id="27-19" x="19.5" y="13.5" width="0.75" height="0.75" shape-rendering="crispEdges" style="fill:#2c0f30;opacity:255;"></rect><rect id="28-19" x="20.25" y="13.5" width="0.75" height="0.75" shape-rendering="crispEdges" style="fill:#2c0f30;opacity:255;"></rect><rect id="29-19" x="21" y="13.5" width="0.75" height="0.75" shape-rendering="crispEdges" style="fill:#2c0f30;opacity:255;"></rect><rect id="30-19" x="21.75" y="13.5" width="0.75" height="0.75" shape-rendering="crispEdges" style="fill:#2c0f30;opacity:255;"></rect><rect id="31-19" x="22.5" y="13.5" width="0.75" height="0.75" shape-rendering="crispEdges" style="fill:#2c0f30;opacity:255;"></rect><rect id="4-20" x="2.25" y="14.25" width="0.75" height="0.75" shape-rendering="crispEdges" style="fill:#2c0f30;opacity:255;"></rect><rect id="5-20" x="3" y="14.25" width="0.75" height="0.75" shape-rendering="crispEdges" style="fill:#2c0f30;opacity:255;"></rect><rect id="6-20" x="3.75" y="14.25" width="0.75" height="0.75" shape-rendering="crispEdges" style="fill:#2c0f30;opacity:255;"></rect><rect id="27-20" x="19.5" y="14.25" width="0.75" height="0.75" shape-rendering="crispEdges" style="fill:#2c0f30;opacity:255;"></rect><rect id="28-20" x="20.25" y="14.25" width="0.75" height="0.75" shape-rendering="crispEdges" style="fill:#2c0f30;opacity:255;"></rect><rect id="29-20" x="21" y="14.25" width="0.75" height="0.75" shape-rendering="crispEdges" style="fill:#2c0f30;opacity:255;"></rect><rect id="4-21" x="2.25" y="15" width="0.75" height="0.75" shape-rendering="crispEdges" style="fill:#2c0f30;opacity:255;"></rect><rect id="5-21" x="3" y="15" width="0.75" height="0.75" shape-rendering="crispEdges" style="fill:#2c0f30;opacity:255;"></rect><rect id="6-21" x="3.75" y="15" width="0.75" height="0.75" shape-rendering="crispEdges" style="fill:#2c0f30;opacity:255;"></rect><rect id="15-21" x="10.5" y="15" width="0.75" height="0.75" shape-rendering="crispEdges" style="fill:#2c0f30;opacity:255;"></rect><rect id="16-21" x="11.25" y="15" width="0.75" height="0.75" shape-rendering="crispEdges" style="fill:#2c0f30;opacity:255;"></rect><rect id="17-21" x="12" y="15" width="0.75" height="0.75" shape-rendering="crispEdges" style="fill:#2c0f30;opacity:255;"></rect><rect id="18-21" x="12.75" y="15" width="0.75" height="0.75" shape-rendering="crispEdges" style="fill:#2c0f30;opacity:255;"></rect><rect id="27-21" x="19.5" y="15" width="0.75" height="0.75" shape-rendering="crispEdges" style="fill:#2c0f30;opacity:255;"></rect><rect id="28-21" x="20.25" y="15" width="0.75" height="0.75" shape-rendering="crispEdges" style="fill:#2c0f30;opacity:255;"></rect><rect id="29-21" x="21" y="15" width="0.75" height="0.75" shape-rendering="crispEdges" style="fill:#2c0f30;opacity:255;"></rect><rect id="6-22" x="3.75" y="15.75" width="0.75" height="0.75" shape-rendering="crispEdges" style="fill:#2c0f30;opacity:255;"></rect><rect id="14-22" x="9.75" y="15.75" width="0.75" height="0.75" shape-rendering="crispEdges" style="fill:#2c0f30;opacity:255;"></rect><rect id="19-22" x="13.5" y="15.75" width="0.75" height="0.75" shape-rendering="crispEdges" style="fill:#2c0f30;opacity:255;"></rect><rect id="27-22" x="19.5" y="15.75" width="0.75" height="0.75" shape-rendering="crispEdges" style="fill:#2c0f30;opacity:255;"></rect><rect id="6-23" x="3.75" y="16.5" width="0.75" height="0.75" shape-rendering="crispEdges" style="fill:#2c0f30;opacity:255;"></rect><rect id="9-23" x="6" y="16.5" width="0.75" height="0.75" shape-rendering="crispEdges" style="fill:#2c0f30;opacity:255;"></rect><rect id="10-23" x="6.75" y="16.5" width="0.75" height="0.75" shape-rendering="crispEdges" style="fill:#2c0f30;opacity:255;"></rect><rect id="11-23" x="7.5" y="16.5" width="0.75" height="0.75" shape-rendering="crispEdges" style="fill:#2c0f30;opacity:255;"></rect><rect id="14-23" x="9.75" y="16.5" width="0.75" height="0.75" shape-rendering="crispEdges" style="fill:#2c0f30;opacity:255;"></rect><rect id="19-23" x="13.5" y="16.5" width="0.75" height="0.75" shape-rendering="crispEdges" style="fill:#2c0f30;opacity:255;"></rect><rect id="22-23" x="15.75" y="16.5" width="0.75" height="0.75" shape-rendering="crispEdges" style="fill:#2c0f30;opacity:255;"></rect><rect id="23-23" x="16.5" y="16.5" width="0.75" height="0.75" shape-rendering="crispEdges" style="fill:#2c0f30;opacity:255;"></rect><rect id="24-23" x="17.25" y="16.5" width="0.75" height="0.75" shape-rendering="crispEdges" style="fill:#2c0f30;opacity:255;"></rect><rect id="27-23" x="19.5" y="16.5" width="0.75" height="0.75" shape-rendering="crispEdges" style="fill:#2c0f30;opacity:255;"></rect><rect id="6-24" x="3.75" y="17.25" width="0.75" height="0.75" shape-rendering="crispEdges" style="fill:#2c0f30;opacity:255;"></rect><rect id="9-24" x="6" y="17.25" width="0.75" height="0.75" shape-rendering="crispEdges" style="fill:#2c0f30;opacity:255;"></rect><rect id="10-24" x="6.75" y="17.25" width="0.75" height="0.75" shape-rendering="crispEdges" style="fill:#2c0f30;opacity:255;"></rect><rect id="11-24" x="7.5" y="17.25" width="0.75" height="0.75" shape-rendering="crispEdges" style="fill:#2c0f30;opacity:255;"></rect><rect id="14-24" x="9.75" y="17.25" width="0.75" height="0.75" shape-rendering="crispEdges" style="fill:#2c0f30;opacity:255;"></rect><rect id="19-24" x="13.5" y="17.25" width="0.75" height="0.75" shape-rendering="crispEdges" style="fill:#2c0f30;opacity:255;"></rect><rect id="22-24" x="15.75" y="17.25" width="0.75" height="0.75" shape-rendering="crispEdges" style="fill:#2c0f30;opacity:255;"></rect><rect id="23-24" x="16.5" y="17.25" width="0.75" height="0.75" shape-rendering="crispEdges" style="fill:#2c0f30;opacity:255;"></rect><rect id="24-24" x="17.25" y="17.25" width="0.75" height="0.75" shape-rendering="crispEdges" style="fill:#2c0f30;opacity:255;"></rect><rect id="27-24" x="19.5" y="17.25" width="0.75" height="0.75" shape-rendering="crispEdges" style="fill:#2c0f30;opacity:255;"></rect><rect id="6-25" x="3.75" y="18" width="0.75" height="0.75" shape-rendering="crispEdges" style="fill:#2c0f30;opacity:255;"></rect><rect id="9-25" x="6" y="18" width="0.75" height="0.75" shape-rendering="crispEdges" style="fill:#2c0f30;opacity:255;"></rect><rect id="10-25" x="6.75" y="18" width="0.75" height="0.75" shape-rendering="crispEdges" style="fill:#2c0f30;opacity:255;"></rect><rect id="11-25" x="7.5" y="18" width="0.75" height="0.75" shape-rendering="crispEdges" style="fill:#2c0f30;opacity:255;"></rect><rect id="14-25" x="9.75" y="18" width="0.75" height="0.75" shape-rendering="crispEdges" style="fill:#2c0f30;opacity:255;"></rect><rect id="19-25" x="13.5" y="18" width="0.75" height="0.75" shape-rendering="crispEdges" style="fill:#2c0f30;opacity:255;"></rect><rect id="22-25" x="15.75" y="18" width="0.75" height="0.75" shape-rendering="crispEdges" style="fill:#2c0f30;opacity:255;"></rect><rect id="23-25" x="16.5" y="18" width="0.75" height="0.75" shape-rendering="crispEdges" style="fill:#2c0f30;opacity:255;"></rect><rect id="24-25" x="17.25" y="18" width="0.75" height="0.75" shape-rendering="crispEdges" style="fill:#2c0f30;opacity:255;"></rect><rect id="27-25" x="19.5" y="18" width="0.75" height="0.75" shape-rendering="crispEdges" style="fill:#2c0f30;opacity:255;"></rect><rect id="6-26" x="3.75" y="18.75" width="0.75" height="0.75" shape-rendering="crispEdges" style="fill:#2c0f30;opacity:255;"></rect><rect id="14-26" x="9.75" y="18.75" width="0.75" height="0.75" shape-rendering="crispEdges" style="fill:#2c0f30;opacity:255;"></rect><rect id="16-26" x="11.25" y="18.75" width="0.75" height="0.75" shape-rendering="crispEdges" style="fill:#2c0f30;opacity:255;"></rect><rect id="19-26" x="13.5" y="18.75" width="0.75" height="0.75" shape-rendering="crispEdges" style="fill:#2c0f30;opacity:255;"></rect><rect id="27-26" x="19.5" y="18.75" width="0.75" height="0.75" shape-rendering="crispEdges" style="fill:#2c0f30;opacity:255;"></rect><rect id="6-27" x="3.75" y="19.5" width="0.75" height="0.75" shape-rendering="crispEdges" style="fill:#2c0f30;opacity:255;"></rect><rect id="14-27" x="9.75" y="19.5" width="0.75" height="0.75" shape-rendering="crispEdges" style="fill:#2c0f30;opacity:255;"></rect><rect id="19-27" x="13.5" y="19.5" width="0.75" height="0.75" shape-rendering="crispEdges" style="fill:#2c0f30;opacity:255;"></rect><rect id="27-27" x="19.5" y="19.5" width="0.75" height="0.75" shape-rendering="crispEdges" style="fill:#2c0f30;opacity:255;"></rect><rect id="6-28" x="3.75" y="20.25" width="0.75" height="0.75" shape-rendering="crispEdges" style="fill:#2c0f30;opacity:255;"></rect><rect id="14-28" x="9.75" y="20.25" width="0.75" height="0.75" shape-rendering="crispEdges" style="fill:#2c0f30;opacity:255;"></rect><rect id="19-28" x="13.5" y="20.25" width="0.75" height="0.75" shape-rendering="crispEdges" style="fill:#2c0f30;opacity:255;"></rect><rect id="27-28" x="19.5" y="20.25" width="0.75" height="0.75" shape-rendering="crispEdges" style="fill:#2c0f30;opacity:255;"></rect><rect id="6-29" x="3.75" y="21" width="0.75" height="0.75" shape-rendering="crispEdges" style="fill:#2c0f30;opacity:255;"></rect><rect id="14-29" x="9.75" y="21" width="0.75" height="0.75" shape-rendering="crispEdges" style="fill:#2c0f30;opacity:255;"></rect><rect id="19-29" x="13.5" y="21" width="0.75" height="0.75" shape-rendering="crispEdges" style="fill:#2c0f30;opacity:255;"></rect><rect id="27-29" x="19.5" y="21" width="0.75" height="0.75" shape-rendering="crispEdges" style="fill:#2c0f30;opacity:255;"></rect><rect id="6-30" x="3.75" y="21.75" width="0.75" height="0.75" shape-rendering="crispEdges" style="fill:#2c0f30;opacity:255;"></rect><rect id="14-30" x="9.75" y="21.75" width="0.75" height="0.75" shape-rendering="crispEdges" style="fill:#2c0f30;opacity:255;"></rect><rect id="19-30" x="13.5" y="21.75" width="0.75" height="0.75" shape-rendering="crispEdges" style="fill:#2c0f30;opacity:255;"></rect><rect id="27-30" x="19.5" y="21.75" width="0.75" height="0.75" shape-rendering="crispEdges" style="fill:#2c0f30;opacity:255;"></rect><rect id="6-31" x="3.75" y="22.5" width="0.75" height="0.75" shape-rendering="crispEdges" style="fill:#2c0f30;opacity:255;"></rect><rect id="14-31" x="9.75" y="22.5" width="0.75" height="0.75" shape-rendering="crispEdges" style="fill:#2c0f30;opacity:255;"></rect><rect id="19-31" x="13.5" y="22.5" width="0.75" height="0.75" shape-rendering="crispEdges" style="fill:#2c0f30;opacity:255;"></rect><rect id="27-31" x="19.5" y="22.5" width="0.75" height="0.75" shape-rendering="crispEdges" style="fill:#2c0f30;opacity:255;"></rect><rect id="7-32" x="4.5" y="23.25" width="0.75" height="0.75" shape-rendering="crispEdges" style="fill:#2c0f30;opacity:255;"></rect><rect id="8-32" x="5.25" y="23.25" width="0.75" height="0.75" shape-rendering="crispEdges" style="fill:#2c0f30;opacity:255;"></rect><rect id="9-32" x="6" y="23.25" width="0.75" height="0.75" shape-rendering="crispEdges" style="fill:#2c0f30;opacity:255;"></rect><rect id="10-32" x="6.75" y="23.25" width="0.75" height="0.75" shape-rendering="crispEdges" style="fill:#2c0f30;opacity:255;"></rect><rect id="11-32" x="7.5" y="23.25" width="0.75" height="0.75" shape-rendering="crispEdges" style="fill:#2c0f30;opacity:255;"></rect><rect id="12-32" x="8.25" y="23.25" width="0.75" height="0.75" shape-rendering="crispEdges" style="fill:#2c0f30;opacity:255;"></rect><rect id="13-32" x="9" y="23.25" width="0.75" height="0.75" shape-rendering="crispEdges" style="fill:#2c0f30;opacity:255;"></rect><rect id="14-32" x="9.75" y="23.25" width="0.75" height="0.75" shape-rendering="crispEdges" style="fill:#2c0f30;opacity:255;"></rect><rect id="15-32" x="10.5" y="23.25" width="0.75" height="0.75" shape-rendering="crispEdges" style="fill:#2c0f30;opacity:255;"></rect><rect id="16-32" x="11.25" y="23.25" width="0.75" height="0.75" shape-rendering="crispEdges" style="fill:#2c0f30;opacity:255;"></rect><rect id="17-32" x="12" y="23.25" width="0.75" height="0.75" shape-rendering="crispEdges" style="fill:#2c0f30;opacity:255;"></rect><rect id="18-32" x="12.75" y="23.25" width="0.75" height="0.75" shape-rendering="crispEdges" style="fill:#2c0f30;opacity:255;"></rect><rect id="19-32" x="13.5" y="23.25" width="0.75" height="0.75" shape-rendering="crispEdges" style="fill:#2c0f30;opacity:255;"></rect><rect id="20-32" x="14.25" y="23.25" width="0.75" height="0.75" shape-rendering="crispEdges" style="fill:#2c0f30;opacity:255;"></rect><rect id="21-32" x="15" y="23.25" width="0.75" height="0.75" shape-rendering="crispEdges" style="fill:#2c0f30;opacity:255;"></rect><rect id="22-32" x="15.75" y="23.25" width="0.75" height="0.75" shape-rendering="crispEdges" style="fill:#2c0f30;opacity:255;"></rect><rect id="23-32" x="16.5" y="23.25" width="0.75" height="0.75" shape-rendering="crispEdges" style="fill:#2c0f30;opacity:255;"></rect><rect id="24-32" x="17.25" y="23.25" width="0.75" height="0.75" shape-rendering="crispEdges" style="fill:#2c0f30;opacity:255;"></rect><rect id="25-32" x="18" y="23.25" width="0.75" height="0.75" shape-rendering="crispEdges" style="fill:#2c0f30;opacity:255;"></rect><rect id="26-32" x="18.75" y="23.25" width="0.75" height="0.75" shape-rendering="crispEdges" style="fill:#2c0f30;opacity:255;"></rect></g></svg>