<?xml version="1.0" encoding="UTF-8" standalone="no"?><svg xmlns="http://www.w3.org/2000/svg" id="italic" width="32" height="32" viewBox="0 0 32 32" preserveAspectRatio="xMidYMid meet" rendering="crispEdges"><rect id="11-4" x="10" y="3" width="1" height="1" shape-rendering="crispEdges" style="fill:#2c0f30;opacity:255;"></rect><rect id="12-4" x="11" y="3" width="1" height="1" shape-rendering="crispEdges" style="fill:#2c0f30;opacity:255;"></rect><rect id="13-4" x="12" y="3" width="1" height="1" shape-rendering="crispEdges" style="fill:#2c0f30;opacity:255;"></rect><rect id="14-4" x="13" y="3" width="1" height="1" shape-rendering="crispEdges" style="fill:#2c0f30;opacity:255;"></rect><rect id="15-4" x="14" y="3" width="1" height="1" shape-rendering="crispEdges" style="fill:#2c0f30;opacity:255;"></rect><rect id="16-4" x="15" y="3" width="1" height="1" shape-rendering="crispEdges" style="fill:#2c0f30;opacity:255;"></rect><rect id="17-4" x="16" y="3" width="1" height="1" shape-rendering="crispEdges" style="fill:#2c0f30;opacity:255;"></rect><rect id="18-4" x="17" y="3" width="1" height="1" shape-rendering="crispEdges" style="fill:#2c0f30;opacity:255;"></rect><rect id="19-4" x="18" y="3" width="1" height="1" shape-rendering="crispEdges" style="fill:#2c0f30;opacity:255;"></rect><rect id="20-4" x="19" y="3" width="1" height="1" shape-rendering="crispEdges" style="fill:#2c0f30;opacity:255;"></rect><rect id="21-4" x="20" y="3" width="1" height="1" shape-rendering="crispEdges" style="fill:#2c0f30;opacity:255;"></rect><rect id="22-4" x="21" y="3" width="1" height="1" shape-rendering="crispEdges" style="fill:#2c0f30;opacity:255;"></rect><rect id="23-4" x="22" y="3" width="1" height="1" shape-rendering="crispEdges" style="fill:#2c0f30;opacity:255;"></rect><rect id="24-4" x="23" y="3" width="1" height="1" shape-rendering="crispEdges" style="fill:#2c0f30;opacity:255;"></rect><rect id="25-4" x="24" y="3" width="1" height="1" shape-rendering="crispEdges" style="fill:#2c0f30;opacity:255;"></rect><rect id="26-4" x="25" y="3" width="1" height="1" shape-rendering="crispEdges" style="fill:#2c0f30;opacity:255;"></rect><rect id="27-4" x="26" y="3" width="1" height="1" shape-rendering="crispEdges" style="fill:#2c0f30;opacity:255;"></rect><rect id="28-4" x="27" y="3" width="1" height="1" shape-rendering="crispEdges" style="fill:#2c0f30;opacity:255;"></rect><rect id="29-4" x="28" y="3" width="1" height="1" shape-rendering="crispEdges" style="fill:#2c0f30;opacity:255;"></rect><rect id="30-4" x="29" y="3" width="1" height="1" shape-rendering="crispEdges" style="fill:#2c0f30;opacity:255;"></rect><rect id="11-5" x="10" y="4" width="1" height="1" shape-rendering="crispEdges" style="fill:#2c0f30;opacity:255;"></rect><rect id="12-5" x="11" y="4" width="1" height="1" shape-rendering="crispEdges" style="fill:#2c0f30;opacity:255;"></rect><rect id="13-5" x="12" y="4" width="1" height="1" shape-rendering="crispEdges" style="fill:#2c0f30;opacity:255;"></rect><rect id="14-5" x="13" y="4" width="1" height="1" shape-rendering="crispEdges" style="fill:#2c0f30;opacity:255;"></rect><rect id="15-5" x="14" y="4" width="1" height="1" shape-rendering="crispEdges" style="fill:#2c0f30;opacity:255;"></rect><rect id="16-5" x="15" y="4" width="1" height="1" shape-rendering="crispEdges" style="fill:#2c0f30;opacity:255;"></rect><rect id="17-5" x="16" y="4" width="1" height="1" shape-rendering="crispEdges" style="fill:#2c0f30;opacity:255;"></rect><rect id="18-5" x="17" y="4" width="1" height="1" shape-rendering="crispEdges" style="fill:#2c0f30;opacity:255;"></rect><rect id="19-5" x="18" y="4" width="1" height="1" shape-rendering="crispEdges" style="fill:#2c0f30;opacity:255;"></rect><rect id="20-5" x="19" y="4" width="1" height="1" shape-rendering="crispEdges" style="fill:#2c0f30;opacity:255;"></rect><rect id="21-5" x="20" y="4" width="1" height="1" shape-rendering="crispEdges" style="fill:#2c0f30;opacity:255;"></rect><rect id="22-5" x="21" y="4" width="1" height="1" shape-rendering="crispEdges" style="fill:#2c0f30;opacity:255;"></rect><rect id="23-5" x="22" y="4" width="1" height="1" shape-rendering="crispEdges" style="fill:#2c0f30;opacity:255;"></rect><rect id="24-5" x="23" y="4" width="1" height="1" shape-rendering="crispEdges" style="fill:#2c0f30;opacity:255;"></rect><rect id="25-5" x="24" y="4" width="1" height="1" shape-rendering="crispEdges" style="fill:#2c0f30;opacity:255;"></rect><rect id="26-5" x="25" y="4" width="1" height="1" shape-rendering="crispEdges" style="fill:#2c0f30;opacity:255;"></rect><rect id="27-5" x="26" y="4" width="1" height="1" shape-rendering="crispEdges" style="fill:#2c0f30;opacity:255;"></rect><rect id="28-5" x="27" y="4" width="1" height="1" shape-rendering="crispEdges" style="fill:#2c0f30;opacity:255;"></rect><rect id="29-5" x="28" y="4" width="1" height="1" shape-rendering="crispEdges" style="fill:#2c0f30;opacity:255;"></rect><rect id="30-5" x="29" y="4" width="1" height="1" shape-rendering="crispEdges" style="fill:#2c0f30;opacity:255;"></rect><rect id="11-6" x="10" y="5" width="1" height="1" shape-rendering="crispEdges" style="fill:#2c0f30;opacity:255;"></rect><rect id="12-6" x="11" y="5" width="1" height="1" shape-rendering="crispEdges" style="fill:#2c0f30;opacity:255;"></rect><rect id="13-6" x="12" y="5" width="1" height="1" shape-rendering="crispEdges" style="fill:#2c0f30;opacity:255;"></rect><rect id="14-6" x="13" y="5" width="1" height="1" shape-rendering="crispEdges" style="fill:#2c0f30;opacity:255;"></rect><rect id="15-6" x="14" y="5" width="1" height="1" shape-rendering="crispEdges" style="fill:#2c0f30;opacity:255;"></rect><rect id="16-6" x="15" y="5" width="1" height="1" shape-rendering="crispEdges" style="fill:#2c0f30;opacity:255;"></rect><rect id="17-6" x="16" y="5" width="1" height="1" shape-rendering="crispEdges" style="fill:#2c0f30;opacity:255;"></rect><rect id="18-6" x="17" y="5" width="1" height="1" shape-rendering="crispEdges" style="fill:#2c0f30;opacity:255;"></rect><rect id="19-6" x="18" y="5" width="1" height="1" shape-rendering="crispEdges" style="fill:#2c0f30;opacity:255;"></rect><rect id="20-6" x="19" y="5" width="1" height="1" shape-rendering="crispEdges" style="fill:#2c0f30;opacity:255;"></rect><rect id="21-6" x="20" y="5" width="1" height="1" shape-rendering="crispEdges" style="fill:#2c0f30;opacity:255;"></rect><rect id="22-6" x="21" y="5" width="1" height="1" shape-rendering="crispEdges" style="fill:#2c0f30;opacity:255;"></rect><rect id="23-6" x="22" y="5" width="1" height="1" shape-rendering="crispEdges" style="fill:#2c0f30;opacity:255;"></rect><rect id="24-6" x="23" y="5" width="1" height="1" shape-rendering="crispEdges" style="fill:#2c0f30;opacity:255;"></rect><rect id="25-6" x="24" y="5" width="1" height="1" shape-rendering="crispEdges" style="fill:#2c0f30;opacity:255;"></rect><rect id="26-6" x="25" y="5" width="1" height="1" shape-rendering="crispEdges" style="fill:#2c0f30;opacity:255;"></rect><rect id="27-6" x="26" y="5" width="1" height="1" shape-rendering="crispEdges" style="fill:#2c0f30;opacity:255;"></rect><rect id="28-6" x="27" y="5" width="1" height="1" shape-rendering="crispEdges" style="fill:#2c0f30;opacity:255;"></rect><rect id="29-6" x="28" y="5" width="1" height="1" shape-rendering="crispEdges" style="fill:#2c0f30;opacity:255;"></rect><rect id="30-6" x="29" y="5" width="1" height="1" shape-rendering="crispEdges" style="fill:#2c0f30;opacity:255;"></rect><rect id="19-7" x="18" y="6" width="1" height="1" shape-rendering="crispEdges" style="fill:#2c0f30;opacity:255;"></rect><rect id="20-7" x="19" y="6" width="1" height="1" shape-rendering="crispEdges" style="fill:#2c0f30;opacity:255;"></rect><rect id="21-7" x="20" y="6" width="1" height="1" shape-rendering="crispEdges" style="fill:#2c0f30;opacity:255;"></rect><rect id="22-7" x="21" y="6" width="1" height="1" shape-rendering="crispEdges" style="fill:#2c0f30;opacity:255;"></rect><rect id="18-8" x="17" y="7" width="1" height="1" shape-rendering="crispEdges" style="fill:#2c0f30;opacity:255;"></rect><rect id="19-8" x="18" y="7" width="1" height="1" shape-rendering="crispEdges" style="fill:#2c0f30;opacity:255;"></rect><rect id="20-8" x="19" y="7" width="1" height="1" shape-rendering="crispEdges" style="fill:#2c0f30;opacity:255;"></rect><rect id="21-8" x="20" y="7" width="1" height="1" shape-rendering="crispEdges" style="fill:#2c0f30;opacity:255;"></rect><rect id="22-8" x="21" y="7" width="1" height="1" shape-rendering="crispEdges" style="fill:#2c0f30;opacity:255;"></rect><rect id="18-9" x="17" y="8" width="1" height="1" shape-rendering="crispEdges" style="fill:#2c0f30;opacity:255;"></rect><rect id="19-9" x="18" y="8" width="1" height="1" shape-rendering="crispEdges" style="fill:#2c0f30;opacity:255;"></rect><rect id="20-9" x="19" y="8" width="1" height="1" shape-rendering="crispEdges" style="fill:#2c0f30;opacity:255;"></rect><rect id="21-9" x="20" y="8" width="1" height="1" shape-rendering="crispEdges" style="fill:#2c0f30;opacity:255;"></rect><rect id="22-9" x="21" y="8" width="1" height="1" shape-rendering="crispEdges" style="fill:#2c0f30;opacity:255;"></rect><rect id="17-10" x="16" y="9" width="1" height="1" shape-rendering="crispEdges" style="fill:#2c0f30;opacity:255;"></rect><rect id="18-10" x="17" y="9" width="1" height="1" shape-rendering="crispEdges" style="fill:#2c0f30;opacity:255;"></rect><rect id="19-10" x="18" y="9" width="1" height="1" shape-rendering="crispEdges" style="fill:#2c0f30;opacity:255;"></rect><rect id="20-10" x="19" y="9" width="1" height="1" shape-rendering="crispEdges" style="fill:#2c0f30;opacity:255;"></rect><rect id="21-10" x="20" y="9" width="1" height="1" shape-rendering="crispEdges" style="fill:#2c0f30;opacity:255;"></rect><rect id="17-11" x="16" y="10" width="1" height="1" shape-rendering="crispEdges" style="fill:#2c0f30;opacity:255;"></rect><rect id="18-11" x="17" y="10" width="1" height="1" shape-rendering="crispEdges" style="fill:#2c0f30;opacity:255;"></rect><rect id="19-11" x="18" y="10" width="1" height="1" shape-rendering="crispEdges" style="fill:#2c0f30;opacity:255;"></rect><rect id="20-11" x="19" y="10" width="1" height="1" shape-rendering="crispEdges" style="fill:#2c0f30;opacity:255;"></rect><rect id="21-11" x="20" y="10" width="1" height="1" shape-rendering="crispEdges" style="fill:#2c0f30;opacity:255;"></rect><rect id="16-12" x="15" y="11" width="1" height="1" shape-rendering="crispEdges" style="fill:#2c0f30;opacity:255;"></rect><rect id="17-12" x="16" y="11" width="1" height="1" shape-rendering="crispEdges" style="fill:#2c0f30;opacity:255;"></rect><rect id="18-12" x="17" y="11" width="1" height="1" shape-rendering="crispEdges" style="fill:#2c0f30;opacity:255;"></rect><rect id="19-12" x="18" y="11" width="1" height="1" shape-rendering="crispEdges" style="fill:#2c0f30;opacity:255;"></rect><rect id="20-12" x="19" y="11" width="1" height="1" shape-rendering="crispEdges" style="fill:#2c0f30;opacity:255;"></rect><rect id="16-13" x="15" y="12" width="1" height="1" shape-rendering="crispEdges" style="fill:#2c0f30;opacity:255;"></rect><rect id="17-13" x="16" y="12" width="1" height="1" shape-rendering="crispEdges" style="fill:#2c0f30;opacity:255;"></rect><rect id="18-13" x="17" y="12" width="1" height="1" shape-rendering="crispEdges" style="fill:#2c0f30;opacity:255;"></rect><rect id="19-13" x="18" y="12" width="1" height="1" shape-rendering="crispEdges" style="fill:#2c0f30;opacity:255;"></rect><rect id="20-13" x="19" y="12" width="1" height="1" shape-rendering="crispEdges" style="fill:#2c0f30;opacity:255;"></rect><rect id="15-14" x="14" y="13" width="1" height="1" shape-rendering="crispEdges" style="fill:#2c0f30;opacity:255;"></rect><rect id="16-14" x="15" y="13" width="1" height="1" shape-rendering="crispEdges" style="fill:#2c0f30;opacity:255;"></rect><rect id="17-14" x="16" y="13" width="1" height="1" shape-rendering="crispEdges" style="fill:#2c0f30;opacity:255;"></rect><rect id="18-14" x="17" y="13" width="1" height="1" shape-rendering="crispEdges" style="fill:#2c0f30;opacity:255;"></rect><rect id="19-14" x="18" y="13" width="1" height="1" shape-rendering="crispEdges" style="fill:#2c0f30;opacity:255;"></rect><rect id="15-15" x="14" y="14" width="1" height="1" shape-rendering="crispEdges" style="fill:#2c0f30;opacity:255;"></rect><rect id="16-15" x="15" y="14" width="1" height="1" shape-rendering="crispEdges" style="fill:#2c0f30;opacity:255;"></rect><rect id="17-15" x="16" y="14" width="1" height="1" shape-rendering="crispEdges" style="fill:#2c0f30;opacity:255;"></rect><rect id="18-15" x="17" y="14" width="1" height="1" shape-rendering="crispEdges" style="fill:#2c0f30;opacity:255;"></rect><rect id="19-15" x="18" y="14" width="1" height="1" shape-rendering="crispEdges" style="fill:#2c0f30;opacity:255;"></rect><rect id="14-16" x="13" y="15" width="1" height="1" shape-rendering="crispEdges" style="fill:#2c0f30;opacity:255;"></rect><rect id="15-16" x="14" y="15" width="1" height="1" shape-rendering="crispEdges" style="fill:#2c0f30;opacity:255;"></rect><rect id="16-16" x="15" y="15" width="1" height="1" shape-rendering="crispEdges" style="fill:#2c0f30;opacity:255;"></rect><rect id="17-16" x="16" y="15" width="1" height="1" shape-rendering="crispEdges" style="fill:#2c0f30;opacity:255;"></rect><rect id="18-16" x="17" y="15" width="1" height="1" shape-rendering="crispEdges" style="fill:#2c0f30;opacity:255;"></rect><rect id="14-17" x="13" y="16" width="1" height="1" shape-rendering="crispEdges" style="fill:#2c0f30;opacity:255;"></rect><rect id="15-17" x="14" y="16" width="1" height="1" shape-rendering="crispEdges" style="fill:#2c0f30;opacity:255;"></rect><rect id="16-17" x="15" y="16" width="1" height="1" shape-rendering="crispEdges" style="fill:#2c0f30;opacity:255;"></rect><rect id="17-17" x="16" y="16" width="1" height="1" shape-rendering="crispEdges" style="fill:#2c0f30;opacity:255;"></rect><rect id="18-17" x="17" y="16" width="1" height="1" shape-rendering="crispEdges" style="fill:#2c0f30;opacity:255;"></rect><rect id="13-18" x="12" y="17" width="1" height="1" shape-rendering="crispEdges" style="fill:#2c0f30;opacity:255;"></rect><rect id="14-18" x="13" y="17" width="1" height="1" shape-rendering="crispEdges" style="fill:#2c0f30;opacity:255;"></rect><rect id="15-18" x="14" y="17" width="1" height="1" shape-rendering="crispEdges" style="fill:#2c0f30;opacity:255;"></rect><rect id="16-18" x="15" y="17" width="1" height="1" shape-rendering="crispEdges" style="fill:#2c0f30;opacity:255;"></rect><rect id="17-18" x="16" y="17" width="1" height="1" shape-rendering="crispEdges" style="fill:#2c0f30;opacity:255;"></rect><rect id="13-19" x="12" y="18" width="1" height="1" shape-rendering="crispEdges" style="fill:#2c0f30;opacity:255;"></rect><rect id="14-19" x="13" y="18" width="1" height="1" shape-rendering="crispEdges" style="fill:#2c0f30;opacity:255;"></rect><rect id="15-19" x="14" y="18" width="1" height="1" shape-rendering="crispEdges" style="fill:#2c0f30;opacity:255;"></rect><rect id="16-19" x="15" y="18" width="1" height="1" shape-rendering="crispEdges" style="fill:#2c0f30;opacity:255;"></rect><rect id="17-19" x="16" y="18" width="1" height="1" shape-rendering="crispEdges" style="fill:#2c0f30;opacity:255;"></rect><rect id="13-20" x="12" y="19" width="1" height="1" shape-rendering="crispEdges" style="fill:#2c0f30;opacity:255;"></rect><rect id="14-20" x="13" y="19" width="1" height="1" shape-rendering="crispEdges" style="fill:#2c0f30;opacity:255;"></rect><rect id="15-20" x="14" y="19" width="1" height="1" shape-rendering="crispEdges" style="fill:#2c0f30;opacity:255;"></rect><rect id="16-20" x="15" y="19" width="1" height="1" shape-rendering="crispEdges" style="fill:#2c0f30;opacity:255;"></rect><rect id="12-21" x="11" y="20" width="1" height="1" shape-rendering="crispEdges" style="fill:#2c0f30;opacity:255;"></rect><rect id="13-21" x="12" y="20" width="1" height="1" shape-rendering="crispEdges" style="fill:#2c0f30;opacity:255;"></rect><rect id="14-21" x="13" y="20" width="1" height="1" shape-rendering="crispEdges" style="fill:#2c0f30;opacity:255;"></rect><rect id="15-21" x="14" y="20" width="1" height="1" shape-rendering="crispEdges" style="fill:#2c0f30;opacity:255;"></rect><rect id="16-21" x="15" y="20" width="1" height="1" shape-rendering="crispEdges" style="fill:#2c0f30;opacity:255;"></rect><rect id="12-22" x="11" y="21" width="1" height="1" shape-rendering="crispEdges" style="fill:#2c0f30;opacity:255;"></rect><rect id="13-22" x="12" y="21" width="1" height="1" shape-rendering="crispEdges" style="fill:#2c0f30;opacity:255;"></rect><rect id="14-22" x="13" y="21" width="1" height="1" shape-rendering="crispEdges" style="fill:#2c0f30;opacity:255;"></rect><rect id="15-22" x="14" y="21" width="1" height="1" shape-rendering="crispEdges" style="fill:#2c0f30;opacity:255;"></rect><rect id="11-23" x="10" y="22" width="1" height="1" shape-rendering="crispEdges" style="fill:#2c0f30;opacity:255;"></rect><rect id="12-23" x="11" y="22" width="1" height="1" shape-rendering="crispEdges" style="fill:#2c0f30;opacity:255;"></rect><rect id="13-23" x="12" y="22" width="1" height="1" shape-rendering="crispEdges" style="fill:#2c0f30;opacity:255;"></rect><rect id="14-23" x="13" y="22" width="1" height="1" shape-rendering="crispEdges" style="fill:#2c0f30;opacity:255;"></rect><rect id="15-23" x="14" y="22" width="1" height="1" shape-rendering="crispEdges" style="fill:#2c0f30;opacity:255;"></rect><rect id="11-24" x="10" y="23" width="1" height="1" shape-rendering="crispEdges" style="fill:#2c0f30;opacity:255;"></rect><rect id="12-24" x="11" y="23" width="1" height="1" shape-rendering="crispEdges" style="fill:#2c0f30;opacity:255;"></rect><rect id="13-24" x="12" y="23" width="1" height="1" shape-rendering="crispEdges" style="fill:#2c0f30;opacity:255;"></rect><rect id="14-24" x="13" y="23" width="1" height="1" shape-rendering="crispEdges" style="fill:#2c0f30;opacity:255;"></rect><rect id="10-25" x="9" y="24" width="1" height="1" shape-rendering="crispEdges" style="fill:#2c0f30;opacity:255;"></rect><rect id="11-25" x="10" y="24" width="1" height="1" shape-rendering="crispEdges" style="fill:#2c0f30;opacity:255;"></rect><rect id="12-25" x="11" y="24" width="1" height="1" shape-rendering="crispEdges" style="fill:#2c0f30;opacity:255;"></rect><rect id="13-25" x="12" y="24" width="1" height="1" shape-rendering="crispEdges" style="fill:#2c0f30;opacity:255;"></rect><rect id="14-25" x="13" y="24" width="1" height="1" shape-rendering="crispEdges" style="fill:#2c0f30;opacity:255;"></rect><rect id="10-26" x="9" y="25" width="1" height="1" shape-rendering="crispEdges" style="fill:#2c0f30;opacity:255;"></rect><rect id="11-26" x="10" y="25" width="1" height="1" shape-rendering="crispEdges" style="fill:#2c0f30;opacity:255;"></rect><rect id="12-26" x="11" y="25" width="1" height="1" shape-rendering="crispEdges" style="fill:#2c0f30;opacity:255;"></rect><rect id="13-26" x="12" y="25" width="1" height="1" shape-rendering="crispEdges" style="fill:#2c0f30;opacity:255;"></rect><rect id="3-27" x="2" y="26" width="1" height="1" shape-rendering="crispEdges" style="fill:#2c0f30;opacity:255;"></rect><rect id="4-27" x="3" y="26" width="1" height="1" shape-rendering="crispEdges" style="fill:#2c0f30;opacity:255;"></rect><rect id="5-27" x="4" y="26" width="1" height="1" shape-rendering="crispEdges" style="fill:#2c0f30;opacity:255;"></rect><rect id="6-27" x="5" y="26" width="1" height="1" shape-rendering="crispEdges" style="fill:#2c0f30;opacity:255;"></rect><rect id="7-27" x="6" y="26" width="1" height="1" shape-rendering="crispEdges" style="fill:#2c0f30;opacity:255;"></rect><rect id="8-27" x="7" y="26" width="1" height="1" shape-rendering="crispEdges" style="fill:#2c0f30;opacity:255;"></rect><rect id="9-27" x="8" y="26" width="1" height="1" shape-rendering="crispEdges" style="fill:#2c0f30;opacity:255;"></rect><rect id="10-27" x="9" y="26" width="1" height="1" shape-rendering="crispEdges" style="fill:#2c0f30;opacity:255;"></rect><rect id="11-27" x="10" y="26" width="1" height="1" shape-rendering="crispEdges" style="fill:#2c0f30;opacity:255;"></rect><rect id="12-27" x="11" y="26" width="1" height="1" shape-rendering="crispEdges" style="fill:#2c0f30;opacity:255;"></rect><rect id="13-27" x="12" y="26" width="1" height="1" shape-rendering="crispEdges" style="fill:#2c0f30;opacity:255;"></rect><rect id="14-27" x="13" y="26" width="1" height="1" shape-rendering="crispEdges" style="fill:#2c0f30;opacity:255;"></rect><rect id="15-27" x="14" y="26" width="1" height="1" shape-rendering="crispEdges" style="fill:#2c0f30;opacity:255;"></rect><rect id="16-27" x="15" y="26" width="1" height="1" shape-rendering="crispEdges" style="fill:#2c0f30;opacity:255;"></rect><rect id="17-27" x="16" y="26" width="1" height="1" shape-rendering="crispEdges" style="fill:#2c0f30;opacity:255;"></rect><rect id="18-27" x="17" y="26" width="1" height="1" shape-rendering="crispEdges" style="fill:#2c0f30;opacity:255;"></rect><rect id="19-27" x="18" y="26" width="1" height="1" shape-rendering="crispEdges" style="fill:#2c0f30;opacity:255;"></rect><rect id="20-27" x="19" y="26" width="1" height="1" shape-rendering="crispEdges" style="fill:#2c0f30;opacity:255;"></rect><rect id="21-27" x="20" y="26" width="1" height="1" shape-rendering="crispEdges" style="fill:#2c0f30;opacity:255;"></rect><rect id="22-27" x="21" y="26" width="1" height="1" shape-rendering="crispEdges" style="fill:#2c0f30;opacity:255;"></rect><rect id="3-28" x="2" y="27" width="1" height="1" shape-rendering="crispEdges" style="fill:#2c0f30;opacity:255;"></rect><rect id="4-28" x="3" y="27" width="1" height="1" shape-rendering="crispEdges" style="fill:#2c0f30;opacity:255;"></rect><rect id="5-28" x="4" y="27" width="1" height="1" shape-rendering="crispEdges" style="fill:#2c0f30;opacity:255;"></rect><rect id="6-28" x="5" y="27" width="1" height="1" shape-rendering="crispEdges" style="fill:#2c0f30;opacity:255;"></rect><rect id="7-28" x="6" y="27" width="1" height="1" shape-rendering="crispEdges" style="fill:#2c0f30;opacity:255;"></rect><rect id="8-28" x="7" y="27" width="1" height="1" shape-rendering="crispEdges" style="fill:#2c0f30;opacity:255;"></rect><rect id="9-28" x="8" y="27" width="1" height="1" shape-rendering="crispEdges" style="fill:#2c0f30;opacity:255;"></rect><rect id="10-28" x="9" y="27" width="1" height="1" shape-rendering="crispEdges" style="fill:#2c0f30;opacity:255;"></rect><rect id="11-28" x="10" y="27" width="1" height="1" shape-rendering="crispEdges" style="fill:#2c0f30;opacity:255;"></rect><rect id="12-28" x="11" y="27" width="1" height="1" shape-rendering="crispEdges" style="fill:#2c0f30;opacity:255;"></rect><rect id="13-28" x="12" y="27" width="1" height="1" shape-rendering="crispEdges" style="fill:#2c0f30;opacity:255;"></rect><rect id="14-28" x="13" y="27" width="1" height="1" shape-rendering="crispEdges" style="fill:#2c0f30;opacity:255;"></rect><rect id="15-28" x="14" y="27" width="1" height="1" shape-rendering="crispEdges" style="fill:#2c0f30;opacity:255;"></rect><rect id="16-28" x="15" y="27" width="1" height="1" shape-rendering="crispEdges" style="fill:#2c0f30;opacity:255;"></rect><rect id="17-28" x="16" y="27" width="1" height="1" shape-rendering="crispEdges" style="fill:#2c0f30;opacity:255;"></rect><rect id="18-28" x="17" y="27" width="1" height="1" shape-rendering="crispEdges" style="fill:#2c0f30;opacity:255;"></rect><rect id="19-28" x="18" y="27" width="1" height="1" shape-rendering="crispEdges" style="fill:#2c0f30;opacity:255;"></rect><rect id="20-28" x="19" y="27" width="1" height="1" shape-rendering="crispEdges" style="fill:#2c0f30;opacity:255;"></rect><rect id="21-28" x="20" y="27" width="1" height="1" shape-rendering="crispEdges" style="fill:#2c0f30;opacity:255;"></rect><rect id="22-28" x="21" y="27" width="1" height="1" shape-rendering="crispEdges" style="fill:#2c0f30;opacity:255;"></rect><rect id="3-29" x="2" y="28" width="1" height="1" shape-rendering="crispEdges" style="fill:#2c0f30;opacity:255;"></rect><rect id="4-29" x="3" y="28" width="1" height="1" shape-rendering="crispEdges" style="fill:#2c0f30;opacity:255;"></rect><rect id="5-29" x="4" y="28" width="1" height="1" shape-rendering="crispEdges" style="fill:#2c0f30;opacity:255;"></rect><rect id="6-29" x="5" y="28" width="1" height="1" shape-rendering="crispEdges" style="fill:#2c0f30;opacity:255;"></rect><rect id="7-29" x="6" y="28" width="1" height="1" shape-rendering="crispEdges" style="fill:#2c0f30;opacity:255;"></rect><rect id="8-29" x="7" y="28" width="1" height="1" shape-rendering="crispEdges" style="fill:#2c0f30;opacity:255;"></rect><rect id="9-29" x="8" y="28" width="1" height="1" shape-rendering="crispEdges" style="fill:#2c0f30;opacity:255;"></rect><rect id="10-29" x="9" y="28" width="1" height="1" shape-rendering="crispEdges" style="fill:#2c0f30;opacity:255;"></rect><rect id="11-29" x="10" y="28" width="1" height="1" shape-rendering="crispEdges" style="fill:#2c0f30;opacity:255;"></rect><rect id="12-29" x="11" y="28" width="1" height="1" shape-rendering="crispEdges" style="fill:#2c0f30;opacity:255;"></rect><rect id="13-29" x="12" y="28" width="1" height="1" shape-rendering="crispEdges" style="fill:#2c0f30;opacity:255;"></rect><rect id="14-29" x="13" y="28" width="1" height="1" shape-rendering="crispEdges" style="fill:#2c0f30;opacity:255;"></rect><rect id="15-29" x="14" y="28" width="1" height="1" shape-rendering="crispEdges" style="fill:#2c0f30;opacity:255;"></rect><rect id="16-29" x="15" y="28" width="1" height="1" shape-rendering="crispEdges" style="fill:#2c0f30;opacity:255;"></rect><rect id="17-29" x="16" y="28" width="1" height="1" shape-rendering="crispEdges" style="fill:#2c0f30;opacity:255;"></rect><rect id="18-29" x="17" y="28" width="1" height="1" shape-rendering="crispEdges" style="fill:#2c0f30;opacity:255;"></rect><rect id="19-29" x="18" y="28" width="1" height="1" shape-rendering="crispEdges" style="fill:#2c0f30;opacity:255;"></rect><rect id="20-29" x="19" y="28" width="1" height="1" shape-rendering="crispEdges" style="fill:#2c0f30;opacity:255;"></rect><rect id="21-29" x="20" y="28" width="1" height="1" shape-rendering="crispEdges" style="fill:#2c0f30;opacity:255;"></rect><rect id="22-29" x="21" y="28" width="1" height="1" shape-rendering="crispEdges" style="fill:#2c0f30;opacity:255;"></rect></svg>