<?xml version="1.0" encoding="UTF-8" standalone="no"?><svg xmlns="http://www.w3.org/2000/svg" id="pin-paper" width="48" height="48" viewBox="0 0 48 48" preserveAspectRatio="xMidYMid meet" rendering="crispEdges"><g><rect id="38-4" x="37" y="3" width="1" height="1" shape-rendering="crispEdges" style="fill:#45283c;opacity:255;"></rect><rect id="39-4" x="38" y="3" width="1" height="1" shape-rendering="crispEdges" style="fill:#45283c;opacity:255;"></rect><rect id="37-5" x="36" y="4" width="1" height="1" shape-rendering="crispEdges" style="fill:#45283c;opacity:255;"></rect><rect id="38-5" x="37" y="4" width="1" height="1" shape-rendering="crispEdges" style="fill:#45283c;opacity:255;"></rect><rect id="39-5" x="38" y="4" width="1" height="1" shape-rendering="crispEdges" style="fill:#45283c;opacity:255;"></rect><rect id="40-5" x="39" y="4" width="1" height="1" shape-rendering="crispEdges" style="fill:#45283c;opacity:255;"></rect><rect id="37-6" x="36" y="5" width="1" height="1" shape-rendering="crispEdges" style="fill:#45283c;opacity:255;"></rect><rect id="38-6" x="37" y="5" width="1" height="1" shape-rendering="crispEdges" style="fill:#45283c;opacity:255;"></rect><rect id="39-6" x="38" y="5" width="1" height="1" shape-rendering="crispEdges" style="fill:#45283c;opacity:255;"></rect><rect id="40-6" x="39" y="5" width="1" height="1" shape-rendering="crispEdges" style="fill:#45283c;opacity:255;"></rect><rect id="41-6" x="40" y="5" width="1" height="1" shape-rendering="crispEdges" style="fill:#45283c;opacity:255;"></rect><rect id="37-7" x="36" y="6" width="1" height="1" shape-rendering="crispEdges" style="fill:#45283c;opacity:255;"></rect><rect id="38-7" x="37" y="6" width="1" height="1" shape-rendering="crispEdges" style="fill:#45283c;opacity:255;"></rect><rect id="39-7" x="38" y="6" width="1" height="1" shape-rendering="crispEdges" style="fill:#45283c;opacity:255;"></rect><rect id="40-7" x="39" y="6" width="1" height="1" shape-rendering="crispEdges" style="fill:#45283c;opacity:255;"></rect><rect id="41-7" x="40" y="6" width="1" height="1" shape-rendering="crispEdges" style="fill:#45283c;opacity:255;"></rect><rect id="42-7" x="41" y="6" width="1" height="1" shape-rendering="crispEdges" style="fill:#45283c;opacity:255;"></rect><rect id="36-8" x="35" y="7" width="1" height="1" shape-rendering="crispEdges" style="fill:#45283c;opacity:255;"></rect><rect id="37-8" x="36" y="7" width="1" height="1" shape-rendering="crispEdges" style="fill:#45283c;opacity:255;"></rect><rect id="39-8" x="38" y="7" width="1" height="1" shape-rendering="crispEdges" style="fill:#45283c;opacity:255;"></rect><rect id="40-8" x="39" y="7" width="1" height="1" shape-rendering="crispEdges" style="fill:#45283c;opacity:255;"></rect><rect id="41-8" x="40" y="7" width="1" height="1" shape-rendering="crispEdges" style="fill:#45283c;opacity:255;"></rect><rect id="42-8" x="41" y="7" width="1" height="1" shape-rendering="crispEdges" style="fill:#45283c;opacity:255;"></rect><rect id="43-8" x="42" y="7" width="1" height="1" shape-rendering="crispEdges" style="fill:#45283c;opacity:255;"></rect><rect id="35-9" x="34" y="8" width="1" height="1" shape-rendering="crispEdges" style="fill:#45283c;opacity:255;"></rect><rect id="36-9" x="35" y="8" width="1" height="1" shape-rendering="crispEdges" style="fill:#45283c;opacity:255;"></rect><rect id="40-9" x="39" y="8" width="1" height="1" shape-rendering="crispEdges" style="fill:#45283c;opacity:255;"></rect><rect id="41-9" x="40" y="8" width="1" height="1" shape-rendering="crispEdges" style="fill:#45283c;opacity:255;"></rect><rect id="42-9" x="41" y="8" width="1" height="1" shape-rendering="crispEdges" style="fill:#45283c;opacity:255;"></rect><rect id="43-9" x="42" y="8" width="1" height="1" shape-rendering="crispEdges" style="fill:#45283c;opacity:255;"></rect><rect id="44-9" x="43" y="8" width="1" height="1" shape-rendering="crispEdges" style="fill:#45283c;opacity:255;"></rect><rect id="29-10" x="28" y="9" width="1" height="1" shape-rendering="crispEdges" style="fill:#45283c;opacity:255;"></rect><rect id="30-10" x="29" y="9" width="1" height="1" shape-rendering="crispEdges" style="fill:#45283c;opacity:255;"></rect><rect id="31-10" x="30" y="9" width="1" height="1" shape-rendering="crispEdges" style="fill:#45283c;opacity:255;"></rect><rect id="32-10" x="31" y="9" width="1" height="1" shape-rendering="crispEdges" style="fill:#45283c;opacity:255;"></rect><rect id="34-10" x="33" y="9" width="1" height="1" shape-rendering="crispEdges" style="fill:#45283c;opacity:255;"></rect><rect id="35-10" x="34" y="9" width="1" height="1" shape-rendering="crispEdges" style="fill:#45283c;opacity:255;"></rect><rect id="41-10" x="40" y="9" width="1" height="1" shape-rendering="crispEdges" style="fill:#45283c;opacity:255;"></rect><rect id="42-10" x="41" y="9" width="1" height="1" shape-rendering="crispEdges" style="fill:#45283c;opacity:255;"></rect><rect id="43-10" x="42" y="9" width="1" height="1" shape-rendering="crispEdges" style="fill:#45283c;opacity:255;"></rect><rect id="44-10" x="43" y="9" width="1" height="1" shape-rendering="crispEdges" style="fill:#45283c;opacity:255;"></rect><rect id="45-10" x="44" y="9" width="1" height="1" shape-rendering="crispEdges" style="fill:#45283c;opacity:255;"></rect><rect id="27-11" x="26" y="10" width="1" height="1" shape-rendering="crispEdges" style="fill:#45283c;opacity:255;"></rect><rect id="28-11" x="27" y="10" width="1" height="1" shape-rendering="crispEdges" style="fill:#45283c;opacity:255;"></rect><rect id="29-11" x="28" y="10" width="1" height="1" shape-rendering="crispEdges" style="fill:#45283c;opacity:255;"></rect><rect id="32-11" x="31" y="10" width="1" height="1" shape-rendering="crispEdges" style="fill:#45283c;opacity:255;"></rect><rect id="33-11" x="32" y="10" width="1" height="1" shape-rendering="crispEdges" style="fill:#45283c;opacity:255;"></rect><rect id="34-11" x="33" y="10" width="1" height="1" shape-rendering="crispEdges" style="fill:#45283c;opacity:255;"></rect><rect id="38-11" x="37" y="10" width="1" height="1" shape-rendering="crispEdges" style="fill:#45283c;opacity:255;"></rect><rect id="42-11" x="41" y="10" width="1" height="1" shape-rendering="crispEdges" style="fill:#45283c;opacity:255;"></rect><rect id="43-11" x="42" y="10" width="1" height="1" shape-rendering="crispEdges" style="fill:#45283c;opacity:255;"></rect><rect id="44-11" x="43" y="10" width="1" height="1" shape-rendering="crispEdges" style="fill:#45283c;opacity:255;"></rect><rect id="45-11" x="44" y="10" width="1" height="1" shape-rendering="crispEdges" style="fill:#45283c;opacity:255;"></rect><rect id="26-12" x="25" y="11" width="1" height="1" shape-rendering="crispEdges" style="fill:#45283c;opacity:255;"></rect><rect id="27-12" x="26" y="11" width="1" height="1" shape-rendering="crispEdges" style="fill:#45283c;opacity:255;"></rect><rect id="37-12" x="36" y="11" width="1" height="1" shape-rendering="crispEdges" style="fill:#45283c;opacity:255;"></rect><rect id="41-12" x="40" y="11" width="1" height="1" shape-rendering="crispEdges" style="fill:#45283c;opacity:255;"></rect><rect id="42-12" x="41" y="11" width="1" height="1" shape-rendering="crispEdges" style="fill:#45283c;opacity:255;"></rect><rect id="43-12" x="42" y="11" width="1" height="1" shape-rendering="crispEdges" style="fill:#45283c;opacity:255;"></rect><rect id="44-12" x="43" y="11" width="1" height="1" shape-rendering="crispEdges" style="fill:#45283c;opacity:255;"></rect><rect id="25-13" x="24" y="12" width="1" height="1" shape-rendering="crispEdges" style="fill:#45283c;opacity:255;"></rect><rect id="26-13" x="25" y="12" width="1" height="1" shape-rendering="crispEdges" style="fill:#45283c;opacity:255;"></rect><rect id="33-13" x="32" y="12" width="1" height="1" shape-rendering="crispEdges" style="fill:#45283c;opacity:255;"></rect><rect id="34-13" x="33" y="12" width="1" height="1" shape-rendering="crispEdges" style="fill:#45283c;opacity:255;"></rect><rect id="40-13" x="39" y="12" width="1" height="1" shape-rendering="crispEdges" style="fill:#45283c;opacity:255;"></rect><rect id="41-13" x="40" y="12" width="1" height="1" shape-rendering="crispEdges" style="fill:#45283c;opacity:255;"></rect><rect id="25-14" x="24" y="13" width="1" height="1" shape-rendering="crispEdges" style="fill:#45283c;opacity:255;"></rect><rect id="26-14" x="25" y="13" width="1" height="1" shape-rendering="crispEdges" style="fill:#45283c;opacity:255;"></rect><rect id="31-14" x="30" y="13" width="1" height="1" shape-rendering="crispEdges" style="fill:#45283c;opacity:255;"></rect><rect id="35-14" x="34" y="13" width="1" height="1" shape-rendering="crispEdges" style="fill:#45283c;opacity:255;"></rect><rect id="39-14" x="38" y="13" width="1" height="1" shape-rendering="crispEdges" style="fill:#45283c;opacity:255;"></rect><rect id="40-14" x="39" y="13" width="1" height="1" shape-rendering="crispEdges" style="fill:#45283c;opacity:255;"></rect><rect id="26-15" x="25" y="14" width="1" height="1" shape-rendering="crispEdges" style="fill:#45283c;opacity:255;"></rect><rect id="27-15" x="26" y="14" width="1" height="1" shape-rendering="crispEdges" style="fill:#45283c;opacity:255;"></rect><rect id="30-15" x="29" y="14" width="1" height="1" shape-rendering="crispEdges" style="fill:#45283c;opacity:255;"></rect><rect id="36-15" x="35" y="14" width="1" height="1" shape-rendering="crispEdges" style="fill:#45283c;opacity:255;"></rect><rect id="38-15" x="37" y="14" width="1" height="1" shape-rendering="crispEdges" style="fill:#45283c;opacity:255;"></rect><rect id="39-15" x="38" y="14" width="1" height="1" shape-rendering="crispEdges" style="fill:#45283c;opacity:255;"></rect><rect id="27-16" x="26" y="15" width="1" height="1" shape-rendering="crispEdges" style="fill:#45283c;opacity:255;"></rect><rect id="28-16" x="27" y="15" width="1" height="1" shape-rendering="crispEdges" style="fill:#45283c;opacity:255;"></rect><rect id="36-16" x="35" y="15" width="1" height="1" shape-rendering="crispEdges" style="fill:#45283c;opacity:255;"></rect><rect id="38-16" x="37" y="15" width="1" height="1" shape-rendering="crispEdges" style="fill:#45283c;opacity:255;"></rect><rect id="17-17" x="16" y="16" width="1" height="1" shape-rendering="crispEdges" style="fill:#45283c;opacity:255;"></rect><rect id="18-17" x="17" y="16" width="1" height="1" shape-rendering="crispEdges" style="fill:#45283c;opacity:255;"></rect><rect id="19-17" x="18" y="16" width="1" height="1" shape-rendering="crispEdges" style="fill:#45283c;opacity:255;"></rect><rect id="20-17" x="19" y="16" width="1" height="1" shape-rendering="crispEdges" style="fill:#45283c;opacity:255;"></rect><rect id="21-17" x="20" y="16" width="1" height="1" shape-rendering="crispEdges" style="fill:#45283c;opacity:255;"></rect><rect id="22-17" x="21" y="16" width="1" height="1" shape-rendering="crispEdges" style="fill:#45283c;opacity:255;"></rect><rect id="23-17" x="22" y="16" width="1" height="1" shape-rendering="crispEdges" style="fill:#45283c;opacity:255;"></rect><rect id="24-17" x="23" y="16" width="1" height="1" shape-rendering="crispEdges" style="fill:#45283c;opacity:255;"></rect><rect id="25-17" x="24" y="16" width="1" height="1" shape-rendering="crispEdges" style="fill:#45283c;opacity:255;"></rect><rect id="26-17" x="25" y="16" width="1" height="1" shape-rendering="crispEdges" style="fill:#45283c;opacity:255;"></rect><rect id="27-17" x="26" y="16" width="1" height="1" shape-rendering="crispEdges" style="fill:#45283c;opacity:255;"></rect><rect id="28-17" x="27" y="16" width="1" height="1" shape-rendering="crispEdges" style="fill:#45283c;opacity:255;"></rect><rect id="29-17" x="28" y="16" width="1" height="1" shape-rendering="crispEdges" style="fill:#45283c;opacity:255;"></rect><rect id="38-17" x="37" y="16" width="1" height="1" shape-rendering="crispEdges" style="fill:#45283c;opacity:255;"></rect><rect id="39-17" x="38" y="16" width="1" height="1" shape-rendering="crispEdges" style="fill:#45283c;opacity:255;"></rect><rect id="12-18" x="11" y="17" width="1" height="1" shape-rendering="crispEdges" style="fill:#45283c;opacity:255;"></rect><rect id="13-18" x="12" y="17" width="1" height="1" shape-rendering="crispEdges" style="fill:#45283c;opacity:255;"></rect><rect id="14-18" x="13" y="17" width="1" height="1" shape-rendering="crispEdges" style="fill:#45283c;opacity:255;"></rect><rect id="15-18" x="14" y="17" width="1" height="1" shape-rendering="crispEdges" style="fill:#45283c;opacity:255;"></rect><rect id="16-18" x="15" y="17" width="1" height="1" shape-rendering="crispEdges" style="fill:#45283c;opacity:255;"></rect><rect id="17-18" x="16" y="17" width="1" height="1" shape-rendering="crispEdges" style="fill:#45283c;opacity:255;"></rect><rect id="18-18" x="17" y="17" width="1" height="1" shape-rendering="crispEdges" style="fill:#45283c;opacity:255;"></rect><rect id="19-18" x="18" y="17" width="1" height="1" shape-rendering="crispEdges" style="fill:#45283c;opacity:255;"></rect><rect id="20-18" x="19" y="17" width="1" height="1" shape-rendering="crispEdges" style="fill:#45283c;opacity:255;"></rect><rect id="21-18" x="20" y="17" width="1" height="1" shape-rendering="crispEdges" style="fill:#45283c;opacity:255;"></rect><rect id="22-18" x="21" y="17" width="1" height="1" shape-rendering="crispEdges" style="fill:#45283c;opacity:255;"></rect><rect id="23-18" x="22" y="17" width="1" height="1" shape-rendering="crispEdges" style="fill:#45283c;opacity:255;"></rect><rect id="24-18" x="23" y="17" width="1" height="1" shape-rendering="crispEdges" style="fill:#45283c;opacity:255;"></rect><rect id="25-18" x="24" y="17" width="1" height="1" shape-rendering="crispEdges" style="fill:#45283c;opacity:255;"></rect><rect id="26-18" x="25" y="17" width="1" height="1" shape-rendering="crispEdges" style="fill:#45283c;opacity:255;"></rect><rect id="27-18" x="26" y="17" width="1" height="1" shape-rendering="crispEdges" style="fill:#45283c;opacity:255;"></rect><rect id="28-18" x="27" y="17" width="1" height="1" shape-rendering="crispEdges" style="fill:#45283c;opacity:255;"></rect><rect id="29-18" x="28" y="17" width="1" height="1" shape-rendering="crispEdges" style="fill:#45283c;opacity:255;"></rect><rect id="30-18" x="29" y="17" width="1" height="1" shape-rendering="crispEdges" style="fill:#45283c;opacity:255;"></rect><rect id="35-18" x="34" y="17" width="1" height="1" shape-rendering="crispEdges" style="fill:#45283c;opacity:255;"></rect><rect id="39-18" x="38" y="17" width="1" height="1" shape-rendering="crispEdges" style="fill:#45283c;opacity:255;"></rect><rect id="9-19" x="8" y="18" width="1" height="1" shape-rendering="crispEdges" style="fill:#45283c;opacity:255;"></rect><rect id="10-19" x="9" y="18" width="1" height="1" shape-rendering="crispEdges" style="fill:#45283c;opacity:255;"></rect><rect id="11-19" x="10" y="18" width="1" height="1" shape-rendering="crispEdges" style="fill:#45283c;opacity:255;"></rect><rect id="12-19" x="11" y="18" width="1" height="1" shape-rendering="crispEdges" style="fill:#45283c;opacity:255;"></rect><rect id="13-19" x="12" y="18" width="1" height="1" shape-rendering="crispEdges" style="fill:#45283c;opacity:255;"></rect><rect id="14-19" x="13" y="18" width="1" height="1" shape-rendering="crispEdges" style="fill:#45283c;opacity:255;"></rect><rect id="15-19" x="14" y="18" width="1" height="1" shape-rendering="crispEdges" style="fill:#45283c;opacity:255;"></rect><rect id="16-19" x="15" y="18" width="1" height="1" shape-rendering="crispEdges" style="fill:#45283c;opacity:255;"></rect><rect id="17-19" x="16" y="18" width="1" height="1" shape-rendering="crispEdges" style="fill:#45283c;opacity:255;"></rect><rect id="29-19" x="28" y="18" width="1" height="1" shape-rendering="crispEdges" style="fill:#45283c;opacity:255;"></rect><rect id="30-19" x="29" y="18" width="1" height="1" shape-rendering="crispEdges" style="fill:#45283c;opacity:255;"></rect><rect id="31-19" x="30" y="18" width="1" height="1" shape-rendering="crispEdges" style="fill:#45283c;opacity:255;"></rect><rect id="34-19" x="33" y="18" width="1" height="1" shape-rendering="crispEdges" style="fill:#45283c;opacity:255;"></rect><rect id="39-19" x="38" y="18" width="1" height="1" shape-rendering="crispEdges" style="fill:#45283c;opacity:255;"></rect><rect id="9-20" x="8" y="19" width="1" height="1" shape-rendering="crispEdges" style="fill:#45283c;opacity:255;"></rect><rect id="10-20" x="9" y="19" width="1" height="1" shape-rendering="crispEdges" style="fill:#45283c;opacity:255;"></rect><rect id="11-20" x="10" y="19" width="1" height="1" shape-rendering="crispEdges" style="fill:#45283c;opacity:255;"></rect><rect id="12-20" x="11" y="19" width="1" height="1" shape-rendering="crispEdges" style="fill:#45283c;opacity:255;"></rect><rect id="13-20" x="12" y="19" width="1" height="1" shape-rendering="crispEdges" style="fill:#45283c;opacity:255;"></rect><rect id="28-20" x="27" y="19" width="1" height="1" shape-rendering="crispEdges" style="fill:#45283c;opacity:255;"></rect><rect id="29-20" x="28" y="19" width="1" height="1" shape-rendering="crispEdges" style="fill:#45283c;opacity:255;"></rect><rect id="30-20" x="29" y="19" width="1" height="1" shape-rendering="crispEdges" style="fill:#45283c;opacity:255;"></rect><rect id="31-20" x="30" y="19" width="1" height="1" shape-rendering="crispEdges" style="fill:#45283c;opacity:255;"></rect><rect id="32-20" x="31" y="19" width="1" height="1" shape-rendering="crispEdges" style="fill:#45283c;opacity:255;"></rect><rect id="38-20" x="37" y="19" width="1" height="1" shape-rendering="crispEdges" style="fill:#45283c;opacity:255;"></rect><rect id="39-20" x="38" y="19" width="1" height="1" shape-rendering="crispEdges" style="fill:#45283c;opacity:255;"></rect><rect id="8-21" x="7" y="20" width="1" height="1" shape-rendering="crispEdges" style="fill:#45283c;opacity:255;"></rect><rect id="9-21" x="8" y="20" width="1" height="1" shape-rendering="crispEdges" style="fill:#45283c;opacity:255;"></rect><rect id="10-21" x="9" y="20" width="1" height="1" shape-rendering="crispEdges" style="fill:#45283c;opacity:255;"></rect><rect id="27-21" x="26" y="20" width="1" height="1" shape-rendering="crispEdges" style="fill:#45283c;opacity:255;"></rect><rect id="28-21" x="27" y="20" width="1" height="1" shape-rendering="crispEdges" style="fill:#45283c;opacity:255;"></rect><rect id="29-21" x="28" y="20" width="1" height="1" shape-rendering="crispEdges" style="fill:#45283c;opacity:255;"></rect><rect id="30-21" x="29" y="20" width="1" height="1" shape-rendering="crispEdges" style="fill:#45283c;opacity:255;"></rect><rect id="31-21" x="30" y="20" width="1" height="1" shape-rendering="crispEdges" style="fill:#45283c;opacity:255;"></rect><rect id="32-21" x="31" y="20" width="1" height="1" shape-rendering="crispEdges" style="fill:#45283c;opacity:255;"></rect><rect id="33-21" x="32" y="20" width="1" height="1" shape-rendering="crispEdges" style="fill:#45283c;opacity:255;"></rect><rect id="38-21" x="37" y="20" width="1" height="1" shape-rendering="crispEdges" style="fill:#45283c;opacity:255;"></rect><rect id="9-22" x="8" y="21" width="1" height="1" shape-rendering="crispEdges" style="fill:#45283c;opacity:255;"></rect><rect id="10-22" x="9" y="21" width="1" height="1" shape-rendering="crispEdges" style="fill:#45283c;opacity:255;"></rect><rect id="11-22" x="10" y="21" width="1" height="1" shape-rendering="crispEdges" style="fill:#45283c;opacity:255;"></rect><rect id="26-22" x="25" y="21" width="1" height="1" shape-rendering="crispEdges" style="fill:#45283c;opacity:255;"></rect><rect id="27-22" x="26" y="21" width="1" height="1" shape-rendering="crispEdges" style="fill:#45283c;opacity:255;"></rect><rect id="28-22" x="27" y="21" width="1" height="1" shape-rendering="crispEdges" style="fill:#45283c;opacity:255;"></rect><rect id="30-22" x="29" y="21" width="1" height="1" shape-rendering="crispEdges" style="fill:#45283c;opacity:255;"></rect><rect id="31-22" x="30" y="21" width="1" height="1" shape-rendering="crispEdges" style="fill:#45283c;opacity:255;"></rect><rect id="33-22" x="32" y="21" width="1" height="1" shape-rendering="crispEdges" style="fill:#45283c;opacity:255;"></rect><rect id="34-22" x="33" y="21" width="1" height="1" shape-rendering="crispEdges" style="fill:#45283c;opacity:255;"></rect><rect id="37-22" x="36" y="21" width="1" height="1" shape-rendering="crispEdges" style="fill:#45283c;opacity:255;"></rect><rect id="38-22" x="37" y="21" width="1" height="1" shape-rendering="crispEdges" style="fill:#45283c;opacity:255;"></rect><rect id="10-23" x="9" y="22" width="1" height="1" shape-rendering="crispEdges" style="fill:#45283c;opacity:255;"></rect><rect id="11-23" x="10" y="22" width="1" height="1" shape-rendering="crispEdges" style="fill:#45283c;opacity:255;"></rect><rect id="12-23" x="11" y="22" width="1" height="1" shape-rendering="crispEdges" style="fill:#45283c;opacity:255;"></rect><rect id="22-23" x="21" y="22" width="1" height="1" shape-rendering="crispEdges" style="fill:#45283c;opacity:255;"></rect><rect id="23-23" x="22" y="22" width="1" height="1" shape-rendering="crispEdges" style="fill:#45283c;opacity:255;"></rect><rect id="24-23" x="23" y="22" width="1" height="1" shape-rendering="crispEdges" style="fill:#45283c;opacity:255;"></rect><rect id="25-23" x="24" y="22" width="1" height="1" shape-rendering="crispEdges" style="fill:#45283c;opacity:255;"></rect><rect id="26-23" x="25" y="22" width="1" height="1" shape-rendering="crispEdges" style="fill:#45283c;opacity:255;"></rect><rect id="27-23" x="26" y="22" width="1" height="1" shape-rendering="crispEdges" style="fill:#45283c;opacity:255;"></rect><rect id="30-23" x="29" y="22" width="1" height="1" shape-rendering="crispEdges" style="fill:#45283c;opacity:255;"></rect><rect id="31-23" x="30" y="22" width="1" height="1" shape-rendering="crispEdges" style="fill:#45283c;opacity:255;"></rect><rect id="32-23" x="31" y="22" width="1" height="1" shape-rendering="crispEdges" style="fill:#45283c;opacity:255;"></rect><rect id="34-23" x="33" y="22" width="1" height="1" shape-rendering="crispEdges" style="fill:#45283c;opacity:255;"></rect><rect id="35-23" x="34" y="22" width="1" height="1" shape-rendering="crispEdges" style="fill:#45283c;opacity:255;"></rect><rect id="36-23" x="35" y="22" width="1" height="1" shape-rendering="crispEdges" style="fill:#45283c;opacity:255;"></rect><rect id="37-23" x="36" y="22" width="1" height="1" shape-rendering="crispEdges" style="fill:#45283c;opacity:255;"></rect><rect id="11-24" x="10" y="23" width="1" height="1" shape-rendering="crispEdges" style="fill:#45283c;opacity:255;"></rect><rect id="12-24" x="11" y="23" width="1" height="1" shape-rendering="crispEdges" style="fill:#45283c;opacity:255;"></rect><rect id="13-24" x="12" y="23" width="1" height="1" shape-rendering="crispEdges" style="fill:#45283c;opacity:255;"></rect><rect id="19-24" x="18" y="23" width="1" height="1" shape-rendering="crispEdges" style="fill:#45283c;opacity:255;"></rect><rect id="20-24" x="19" y="23" width="1" height="1" shape-rendering="crispEdges" style="fill:#45283c;opacity:255;"></rect><rect id="21-24" x="20" y="23" width="1" height="1" shape-rendering="crispEdges" style="fill:#45283c;opacity:255;"></rect><rect id="22-24" x="21" y="23" width="1" height="1" shape-rendering="crispEdges" style="fill:#45283c;opacity:255;"></rect><rect id="23-24" x="22" y="23" width="1" height="1" shape-rendering="crispEdges" style="fill:#45283c;opacity:255;"></rect><rect id="24-24" x="23" y="23" width="1" height="1" shape-rendering="crispEdges" style="fill:#45283c;opacity:255;"></rect><rect id="25-24" x="24" y="23" width="1" height="1" shape-rendering="crispEdges" style="fill:#45283c;opacity:255;"></rect><rect id="26-24" x="25" y="23" width="1" height="1" shape-rendering="crispEdges" style="fill:#45283c;opacity:255;"></rect><rect id="27-24" x="26" y="23" width="1" height="1" shape-rendering="crispEdges" style="fill:#45283c;opacity:255;"></rect><rect id="31-24" x="30" y="23" width="1" height="1" shape-rendering="crispEdges" style="fill:#45283c;opacity:255;"></rect><rect id="32-24" x="31" y="23" width="1" height="1" shape-rendering="crispEdges" style="fill:#45283c;opacity:255;"></rect><rect id="33-24" x="32" y="23" width="1" height="1" shape-rendering="crispEdges" style="fill:#45283c;opacity:255;"></rect><rect id="35-24" x="34" y="23" width="1" height="1" shape-rendering="crispEdges" style="fill:#45283c;opacity:255;"></rect><rect id="36-24" x="35" y="23" width="1" height="1" shape-rendering="crispEdges" style="fill:#45283c;opacity:255;"></rect><rect id="12-25" x="11" y="24" width="1" height="1" shape-rendering="crispEdges" style="fill:#45283c;opacity:255;"></rect><rect id="13-25" x="12" y="24" width="1" height="1" shape-rendering="crispEdges" style="fill:#45283c;opacity:255;"></rect><rect id="14-25" x="13" y="24" width="1" height="1" shape-rendering="crispEdges" style="fill:#45283c;opacity:255;"></rect><rect id="18-25" x="17" y="24" width="1" height="1" shape-rendering="crispEdges" style="fill:#45283c;opacity:255;"></rect><rect id="19-25" x="18" y="24" width="1" height="1" shape-rendering="crispEdges" style="fill:#45283c;opacity:255;"></rect><rect id="20-25" x="19" y="24" width="1" height="1" shape-rendering="crispEdges" style="fill:#45283c;opacity:255;"></rect><rect id="21-25" x="20" y="24" width="1" height="1" shape-rendering="crispEdges" style="fill:#45283c;opacity:255;"></rect><rect id="22-25" x="21" y="24" width="1" height="1" shape-rendering="crispEdges" style="fill:#45283c;opacity:255;"></rect><rect id="24-25" x="23" y="24" width="1" height="1" shape-rendering="crispEdges" style="fill:#45283c;opacity:255;"></rect><rect id="25-25" x="24" y="24" width="1" height="1" shape-rendering="crispEdges" style="fill:#45283c;opacity:255;"></rect><rect id="32-25" x="31" y="24" width="1" height="1" shape-rendering="crispEdges" style="fill:#45283c;opacity:255;"></rect><rect id="33-25" x="32" y="24" width="1" height="1" shape-rendering="crispEdges" style="fill:#45283c;opacity:255;"></rect><rect id="34-25" x="33" y="24" width="1" height="1" shape-rendering="crispEdges" style="fill:#45283c;opacity:255;"></rect><rect id="13-26" x="12" y="25" width="1" height="1" shape-rendering="crispEdges" style="fill:#45283c;opacity:255;"></rect><rect id="14-26" x="13" y="25" width="1" height="1" shape-rendering="crispEdges" style="fill:#45283c;opacity:255;"></rect><rect id="18-26" x="17" y="25" width="1" height="1" shape-rendering="crispEdges" style="fill:#45283c;opacity:255;"></rect><rect id="19-26" x="18" y="25" width="1" height="1" shape-rendering="crispEdges" style="fill:#45283c;opacity:255;"></rect><rect id="33-26" x="32" y="25" width="1" height="1" shape-rendering="crispEdges" style="fill:#45283c;opacity:255;"></rect><rect id="34-26" x="33" y="25" width="1" height="1" shape-rendering="crispEdges" style="fill:#45283c;opacity:255;"></rect><rect id="35-26" x="34" y="25" width="1" height="1" shape-rendering="crispEdges" style="fill:#45283c;opacity:255;"></rect><rect id="13-27" x="12" y="26" width="1" height="1" shape-rendering="crispEdges" style="fill:#45283c;opacity:255;"></rect><rect id="14-27" x="13" y="26" width="1" height="1" shape-rendering="crispEdges" style="fill:#45283c;opacity:255;"></rect><rect id="15-27" x="14" y="26" width="1" height="1" shape-rendering="crispEdges" style="fill:#45283c;opacity:255;"></rect><rect id="28-27" x="27" y="26" width="1" height="1" shape-rendering="crispEdges" style="fill:#45283c;opacity:255;"></rect><rect id="29-27" x="28" y="26" width="1" height="1" shape-rendering="crispEdges" style="fill:#45283c;opacity:255;"></rect><rect id="34-27" x="33" y="26" width="1" height="1" shape-rendering="crispEdges" style="fill:#45283c;opacity:255;"></rect><rect id="35-27" x="34" y="26" width="1" height="1" shape-rendering="crispEdges" style="fill:#45283c;opacity:255;"></rect><rect id="14-28" x="13" y="27" width="1" height="1" shape-rendering="crispEdges" style="fill:#45283c;opacity:255;"></rect><rect id="15-28" x="14" y="27" width="1" height="1" shape-rendering="crispEdges" style="fill:#45283c;opacity:255;"></rect><rect id="26-28" x="25" y="27" width="1" height="1" shape-rendering="crispEdges" style="fill:#45283c;opacity:255;"></rect><rect id="27-28" x="26" y="27" width="1" height="1" shape-rendering="crispEdges" style="fill:#45283c;opacity:255;"></rect><rect id="28-28" x="27" y="27" width="1" height="1" shape-rendering="crispEdges" style="fill:#45283c;opacity:255;"></rect><rect id="29-28" x="28" y="27" width="1" height="1" shape-rendering="crispEdges" style="fill:#45283c;opacity:255;"></rect><rect id="30-28" x="29" y="27" width="1" height="1" shape-rendering="crispEdges" style="fill:#45283c;opacity:255;"></rect><rect id="34-28" x="33" y="27" width="1" height="1" shape-rendering="crispEdges" style="fill:#45283c;opacity:255;"></rect><rect id="35-28" x="34" y="27" width="1" height="1" shape-rendering="crispEdges" style="fill:#45283c;opacity:255;"></rect><rect id="36-28" x="35" y="27" width="1" height="1" shape-rendering="crispEdges" style="fill:#45283c;opacity:255;"></rect><rect id="15-29" x="14" y="28" width="1" height="1" shape-rendering="crispEdges" style="fill:#45283c;opacity:255;"></rect><rect id="16-29" x="15" y="28" width="1" height="1" shape-rendering="crispEdges" style="fill:#45283c;opacity:255;"></rect><rect id="23-29" x="22" y="28" width="1" height="1" shape-rendering="crispEdges" style="fill:#45283c;opacity:255;"></rect><rect id="24-29" x="23" y="28" width="1" height="1" shape-rendering="crispEdges" style="fill:#45283c;opacity:255;"></rect><rect id="25-29" x="24" y="28" width="1" height="1" shape-rendering="crispEdges" style="fill:#45283c;opacity:255;"></rect><rect id="26-29" x="25" y="28" width="1" height="1" shape-rendering="crispEdges" style="fill:#45283c;opacity:255;"></rect><rect id="27-29" x="26" y="28" width="1" height="1" shape-rendering="crispEdges" style="fill:#45283c;opacity:255;"></rect><rect id="28-29" x="27" y="28" width="1" height="1" shape-rendering="crispEdges" style="fill:#45283c;opacity:255;"></rect><rect id="35-29" x="34" y="28" width="1" height="1" shape-rendering="crispEdges" style="fill:#45283c;opacity:255;"></rect><rect id="36-29" x="35" y="28" width="1" height="1" shape-rendering="crispEdges" style="fill:#45283c;opacity:255;"></rect><rect id="15-30" x="14" y="29" width="1" height="1" shape-rendering="crispEdges" style="fill:#45283c;opacity:255;"></rect><rect id="16-30" x="15" y="29" width="1" height="1" shape-rendering="crispEdges" style="fill:#45283c;opacity:255;"></rect><rect id="22-30" x="21" y="29" width="1" height="1" shape-rendering="crispEdges" style="fill:#45283c;opacity:255;"></rect><rect id="23-30" x="22" y="29" width="1" height="1" shape-rendering="crispEdges" style="fill:#45283c;opacity:255;"></rect><rect id="24-30" x="23" y="29" width="1" height="1" shape-rendering="crispEdges" style="fill:#45283c;opacity:255;"></rect><rect id="35-30" x="34" y="29" width="1" height="1" shape-rendering="crispEdges" style="fill:#45283c;opacity:255;"></rect><rect id="36-30" x="35" y="29" width="1" height="1" shape-rendering="crispEdges" style="fill:#45283c;opacity:255;"></rect><rect id="15-31" x="14" y="30" width="1" height="1" shape-rendering="crispEdges" style="fill:#45283c;opacity:255;"></rect><rect id="16-31" x="15" y="30" width="1" height="1" shape-rendering="crispEdges" style="fill:#45283c;opacity:255;"></rect><rect id="17-31" x="16" y="30" width="1" height="1" shape-rendering="crispEdges" style="fill:#45283c;opacity:255;"></rect><rect id="22-31" x="21" y="30" width="1" height="1" shape-rendering="crispEdges" style="fill:#45283c;opacity:255;"></rect><rect id="23-31" x="22" y="30" width="1" height="1" shape-rendering="crispEdges" style="fill:#45283c;opacity:255;"></rect><rect id="35-31" x="34" y="30" width="1" height="1" shape-rendering="crispEdges" style="fill:#45283c;opacity:255;"></rect><rect id="36-31" x="35" y="30" width="1" height="1" shape-rendering="crispEdges" style="fill:#45283c;opacity:255;"></rect><rect id="16-32" x="15" y="31" width="1" height="1" shape-rendering="crispEdges" style="fill:#45283c;opacity:255;"></rect><rect id="17-32" x="16" y="31" width="1" height="1" shape-rendering="crispEdges" style="fill:#45283c;opacity:255;"></rect><rect id="31-32" x="30" y="31" width="1" height="1" shape-rendering="crispEdges" style="fill:#45283c;opacity:255;"></rect><rect id="32-32" x="31" y="31" width="1" height="1" shape-rendering="crispEdges" style="fill:#45283c;opacity:255;"></rect><rect id="35-32" x="34" y="31" width="1" height="1" shape-rendering="crispEdges" style="fill:#45283c;opacity:255;"></rect><rect id="36-32" x="35" y="31" width="1" height="1" shape-rendering="crispEdges" style="fill:#45283c;opacity:255;"></rect><rect id="37-32" x="36" y="31" width="1" height="1" shape-rendering="crispEdges" style="fill:#45283c;opacity:255;"></rect><rect id="16-33" x="15" y="32" width="1" height="1" shape-rendering="crispEdges" style="fill:#45283c;opacity:255;"></rect><rect id="17-33" x="16" y="32" width="1" height="1" shape-rendering="crispEdges" style="fill:#45283c;opacity:255;"></rect><rect id="18-33" x="17" y="32" width="1" height="1" shape-rendering="crispEdges" style="fill:#45283c;opacity:255;"></rect><rect id="29-33" x="28" y="32" width="1" height="1" shape-rendering="crispEdges" style="fill:#45283c;opacity:255;"></rect><rect id="30-33" x="29" y="32" width="1" height="1" shape-rendering="crispEdges" style="fill:#45283c;opacity:255;"></rect><rect id="31-33" x="30" y="32" width="1" height="1" shape-rendering="crispEdges" style="fill:#45283c;opacity:255;"></rect><rect id="32-33" x="31" y="32" width="1" height="1" shape-rendering="crispEdges" style="fill:#45283c;opacity:255;"></rect><rect id="33-33" x="32" y="32" width="1" height="1" shape-rendering="crispEdges" style="fill:#45283c;opacity:255;"></rect><rect id="36-33" x="35" y="32" width="1" height="1" shape-rendering="crispEdges" style="fill:#45283c;opacity:255;"></rect><rect id="37-33" x="36" y="32" width="1" height="1" shape-rendering="crispEdges" style="fill:#45283c;opacity:255;"></rect><rect id="17-34" x="16" y="33" width="1" height="1" shape-rendering="crispEdges" style="fill:#45283c;opacity:255;"></rect><rect id="18-34" x="17" y="33" width="1" height="1" shape-rendering="crispEdges" style="fill:#45283c;opacity:255;"></rect><rect id="26-34" x="25" y="33" width="1" height="1" shape-rendering="crispEdges" style="fill:#45283c;opacity:255;"></rect><rect id="27-34" x="26" y="33" width="1" height="1" shape-rendering="crispEdges" style="fill:#45283c;opacity:255;"></rect><rect id="28-34" x="27" y="33" width="1" height="1" shape-rendering="crispEdges" style="fill:#45283c;opacity:255;"></rect><rect id="29-34" x="28" y="33" width="1" height="1" shape-rendering="crispEdges" style="fill:#45283c;opacity:255;"></rect><rect id="30-34" x="29" y="33" width="1" height="1" shape-rendering="crispEdges" style="fill:#45283c;opacity:255;"></rect><rect id="31-34" x="30" y="33" width="1" height="1" shape-rendering="crispEdges" style="fill:#45283c;opacity:255;"></rect><rect id="36-34" x="35" y="33" width="1" height="1" shape-rendering="crispEdges" style="fill:#45283c;opacity:255;"></rect><rect id="37-34" x="36" y="33" width="1" height="1" shape-rendering="crispEdges" style="fill:#45283c;opacity:255;"></rect><rect id="17-35" x="16" y="34" width="1" height="1" shape-rendering="crispEdges" style="fill:#45283c;opacity:255;"></rect><rect id="18-35" x="17" y="34" width="1" height="1" shape-rendering="crispEdges" style="fill:#45283c;opacity:255;"></rect><rect id="19-35" x="18" y="34" width="1" height="1" shape-rendering="crispEdges" style="fill:#45283c;opacity:255;"></rect><rect id="24-35" x="23" y="34" width="1" height="1" shape-rendering="crispEdges" style="fill:#45283c;opacity:255;"></rect><rect id="25-35" x="24" y="34" width="1" height="1" shape-rendering="crispEdges" style="fill:#45283c;opacity:255;"></rect><rect id="26-35" x="25" y="34" width="1" height="1" shape-rendering="crispEdges" style="fill:#45283c;opacity:255;"></rect><rect id="27-35" x="26" y="34" width="1" height="1" shape-rendering="crispEdges" style="fill:#45283c;opacity:255;"></rect><rect id="28-35" x="27" y="34" width="1" height="1" shape-rendering="crispEdges" style="fill:#45283c;opacity:255;"></rect><rect id="36-35" x="35" y="34" width="1" height="1" shape-rendering="crispEdges" style="fill:#45283c;opacity:255;"></rect><rect id="37-35" x="36" y="34" width="1" height="1" shape-rendering="crispEdges" style="fill:#45283c;opacity:255;"></rect><rect id="18-36" x="17" y="35" width="1" height="1" shape-rendering="crispEdges" style="fill:#45283c;opacity:255;"></rect><rect id="19-36" x="18" y="35" width="1" height="1" shape-rendering="crispEdges" style="fill:#45283c;opacity:255;"></rect><rect id="23-36" x="22" y="35" width="1" height="1" shape-rendering="crispEdges" style="fill:#45283c;opacity:255;"></rect><rect id="24-36" x="23" y="35" width="1" height="1" shape-rendering="crispEdges" style="fill:#45283c;opacity:255;"></rect><rect id="25-36" x="24" y="35" width="1" height="1" shape-rendering="crispEdges" style="fill:#45283c;opacity:255;"></rect><rect id="26-36" x="25" y="35" width="1" height="1" shape-rendering="crispEdges" style="fill:#45283c;opacity:255;"></rect><rect id="36-36" x="35" y="35" width="1" height="1" shape-rendering="crispEdges" style="fill:#45283c;opacity:255;"></rect><rect id="37-36" x="36" y="35" width="1" height="1" shape-rendering="crispEdges" style="fill:#45283c;opacity:255;"></rect><rect id="18-37" x="17" y="36" width="1" height="1" shape-rendering="crispEdges" style="fill:#45283c;opacity:255;"></rect><rect id="19-37" x="18" y="36" width="1" height="1" shape-rendering="crispEdges" style="fill:#45283c;opacity:255;"></rect><rect id="23-37" x="22" y="36" width="1" height="1" shape-rendering="crispEdges" style="fill:#45283c;opacity:255;"></rect><rect id="24-37" x="23" y="36" width="1" height="1" shape-rendering="crispEdges" style="fill:#45283c;opacity:255;"></rect><rect id="36-37" x="35" y="36" width="1" height="1" shape-rendering="crispEdges" style="fill:#45283c;opacity:255;"></rect><rect id="37-37" x="36" y="36" width="1" height="1" shape-rendering="crispEdges" style="fill:#45283c;opacity:255;"></rect><rect id="18-38" x="17" y="37" width="1" height="1" shape-rendering="crispEdges" style="fill:#45283c;opacity:255;"></rect><rect id="19-38" x="18" y="37" width="1" height="1" shape-rendering="crispEdges" style="fill:#45283c;opacity:255;"></rect><rect id="20-38" x="19" y="37" width="1" height="1" shape-rendering="crispEdges" style="fill:#45283c;opacity:255;"></rect><rect id="32-38" x="31" y="37" width="1" height="1" shape-rendering="crispEdges" style="fill:#45283c;opacity:255;"></rect><rect id="33-38" x="32" y="37" width="1" height="1" shape-rendering="crispEdges" style="fill:#45283c;opacity:255;"></rect><rect id="34-38" x="33" y="37" width="1" height="1" shape-rendering="crispEdges" style="fill:#45283c;opacity:255;"></rect><rect id="35-38" x="34" y="37" width="1" height="1" shape-rendering="crispEdges" style="fill:#45283c;opacity:255;"></rect><rect id="36-38" x="35" y="37" width="1" height="1" shape-rendering="crispEdges" style="fill:#45283c;opacity:255;"></rect><rect id="37-38" x="36" y="37" width="1" height="1" shape-rendering="crispEdges" style="fill:#45283c;opacity:255;"></rect><rect id="19-39" x="18" y="38" width="1" height="1" shape-rendering="crispEdges" style="fill:#45283c;opacity:255;"></rect><rect id="20-39" x="19" y="38" width="1" height="1" shape-rendering="crispEdges" style="fill:#45283c;opacity:255;"></rect><rect id="21-39" x="20" y="38" width="1" height="1" shape-rendering="crispEdges" style="fill:#45283c;opacity:255;"></rect><rect id="31-39" x="30" y="38" width="1" height="1" shape-rendering="crispEdges" style="fill:#45283c;opacity:255;"></rect><rect id="32-39" x="31" y="38" width="1" height="1" shape-rendering="crispEdges" style="fill:#45283c;opacity:255;"></rect><rect id="33-39" x="32" y="38" width="1" height="1" shape-rendering="crispEdges" style="fill:#45283c;opacity:255;"></rect><rect id="34-39" x="33" y="38" width="1" height="1" shape-rendering="crispEdges" style="fill:#45283c;opacity:255;"></rect><rect id="35-39" x="34" y="38" width="1" height="1" shape-rendering="crispEdges" style="fill:#45283c;opacity:255;"></rect><rect id="20-40" x="19" y="39" width="1" height="1" shape-rendering="crispEdges" style="fill:#45283c;opacity:255;"></rect><rect id="21-40" x="20" y="39" width="1" height="1" shape-rendering="crispEdges" style="fill:#45283c;opacity:255;"></rect><rect id="26-40" x="25" y="39" width="1" height="1" shape-rendering="crispEdges" style="fill:#45283c;opacity:255;"></rect><rect id="27-40" x="26" y="39" width="1" height="1" shape-rendering="crispEdges" style="fill:#45283c;opacity:255;"></rect><rect id="28-40" x="27" y="39" width="1" height="1" shape-rendering="crispEdges" style="fill:#45283c;opacity:255;"></rect><rect id="29-40" x="28" y="39" width="1" height="1" shape-rendering="crispEdges" style="fill:#45283c;opacity:255;"></rect><rect id="30-40" x="29" y="39" width="1" height="1" shape-rendering="crispEdges" style="fill:#45283c;opacity:255;"></rect><rect id="31-40" x="30" y="39" width="1" height="1" shape-rendering="crispEdges" style="fill:#45283c;opacity:255;"></rect><rect id="32-40" x="31" y="39" width="1" height="1" shape-rendering="crispEdges" style="fill:#45283c;opacity:255;"></rect><rect id="33-40" x="32" y="39" width="1" height="1" shape-rendering="crispEdges" style="fill:#45283c;opacity:255;"></rect><rect id="20-41" x="19" y="40" width="1" height="1" shape-rendering="crispEdges" style="fill:#45283c;opacity:255;"></rect><rect id="21-41" x="20" y="40" width="1" height="1" shape-rendering="crispEdges" style="fill:#45283c;opacity:255;"></rect><rect id="22-41" x="21" y="40" width="1" height="1" shape-rendering="crispEdges" style="fill:#45283c;opacity:255;"></rect><rect id="23-41" x="22" y="40" width="1" height="1" shape-rendering="crispEdges" style="fill:#45283c;opacity:255;"></rect><rect id="24-41" x="23" y="40" width="1" height="1" shape-rendering="crispEdges" style="fill:#45283c;opacity:255;"></rect><rect id="25-41" x="24" y="40" width="1" height="1" shape-rendering="crispEdges" style="fill:#45283c;opacity:255;"></rect><rect id="26-41" x="25" y="40" width="1" height="1" shape-rendering="crispEdges" style="fill:#45283c;opacity:255;"></rect><rect id="27-41" x="26" y="40" width="1" height="1" shape-rendering="crispEdges" style="fill:#45283c;opacity:255;"></rect><rect id="28-41" x="27" y="40" width="1" height="1" shape-rendering="crispEdges" style="fill:#45283c;opacity:255;"></rect><rect id="29-41" x="28" y="40" width="1" height="1" shape-rendering="crispEdges" style="fill:#45283c;opacity:255;"></rect><rect id="30-41" x="29" y="40" width="1" height="1" shape-rendering="crispEdges" style="fill:#45283c;opacity:255;"></rect><rect id="21-42" x="20" y="41" width="1" height="1" shape-rendering="crispEdges" style="fill:#45283c;opacity:255;"></rect><rect id="22-42" x="21" y="41" width="1" height="1" shape-rendering="crispEdges" style="fill:#45283c;opacity:255;"></rect><rect id="23-42" x="22" y="41" width="1" height="1" shape-rendering="crispEdges" style="fill:#45283c;opacity:255;"></rect><rect id="24-42" x="23" y="41" width="1" height="1" shape-rendering="crispEdges" style="fill:#45283c;opacity:255;"></rect><rect id="25-42" x="24" y="41" width="1" height="1" shape-rendering="crispEdges" style="fill:#45283c;opacity:255;"></rect><rect id="26-42" x="25" y="41" width="1" height="1" shape-rendering="crispEdges" style="fill:#45283c;opacity:255;"></rect></g></svg>