<?xml version="1.0" encoding="UTF-8" standalone="no"?><svg xmlns="http://www.w3.org/2000/svg" id="plume-ink" width="32" height="32" viewBox="0 0 32 32" preserveAspectRatio="xMidYMid meet" rendering="crispEdges"><g><rect id="26-2" x="25" y="1" width="1" height="1" shape-rendering="crispEdges" style="fill:#45283c;opacity:255;"></rect><rect id="27-2" x="26" y="1" width="1" height="1" shape-rendering="crispEdges" style="fill:#45283c;opacity:255;"></rect><rect id="28-2" x="27" y="1" width="1" height="1" shape-rendering="crispEdges" style="fill:#45283c;opacity:255;"></rect><rect id="29-2" x="28" y="1" width="1" height="1" shape-rendering="crispEdges" style="fill:#45283c;opacity:255;"></rect><rect id="30-2" x="29" y="1" width="1" height="1" shape-rendering="crispEdges" style="fill:#45283c;opacity:255;"></rect><rect id="31-2" x="30" y="1" width="1" height="1" shape-rendering="crispEdges" style="fill:#45283c;opacity:255;"></rect><rect id="25-3" x="24" y="2" width="1" height="1" shape-rendering="crispEdges" style="fill:#45283c;opacity:255;"></rect><rect id="26-3" x="25" y="2" width="1" height="1" shape-rendering="crispEdges" style="fill:#45283c;opacity:255;"></rect><rect id="30-3" x="29" y="2" width="1" height="1" shape-rendering="crispEdges" style="fill:#45283c;opacity:255;"></rect><rect id="23-4" x="22" y="3" width="1" height="1" shape-rendering="crispEdges" style="fill:#45283c;opacity:255;"></rect><rect id="24-4" x="23" y="3" width="1" height="1" shape-rendering="crispEdges" style="fill:#45283c;opacity:255;"></rect><rect id="29-4" x="28" y="3" width="1" height="1" shape-rendering="crispEdges" style="fill:#45283c;opacity:255;"></rect><rect id="21-5" x="20" y="4" width="1" height="1" shape-rendering="crispEdges" style="fill:#45283c;opacity:255;"></rect><rect id="22-5" x="21" y="4" width="1" height="1" shape-rendering="crispEdges" style="fill:#45283c;opacity:255;"></rect><rect id="23-5" x="22" y="4" width="1" height="1" shape-rendering="crispEdges" style="fill:#45283c;opacity:255;"></rect><rect id="26-5" x="25" y="4" width="1" height="1" shape-rendering="crispEdges" style="fill:#45283c;opacity:255;"></rect><rect id="28-5" x="27" y="4" width="1" height="1" shape-rendering="crispEdges" style="fill:#45283c;opacity:255;"></rect><rect id="20-6" x="19" y="5" width="1" height="1" shape-rendering="crispEdges" style="fill:#45283c;opacity:255;"></rect><rect id="21-6" x="20" y="5" width="1" height="1" shape-rendering="crispEdges" style="fill:#45283c;opacity:255;"></rect><rect id="24-6" x="23" y="5" width="1" height="1" shape-rendering="crispEdges" style="fill:#45283c;opacity:255;"></rect><rect id="25-6" x="24" y="5" width="1" height="1" shape-rendering="crispEdges" style="fill:#45283c;opacity:255;"></rect><rect id="27-6" x="26" y="5" width="1" height="1" shape-rendering="crispEdges" style="fill:#45283c;opacity:255;"></rect><rect id="19-7" x="18" y="6" width="1" height="1" shape-rendering="crispEdges" style="fill:#45283c;opacity:255;"></rect><rect id="23-7" x="22" y="6" width="1" height="1" shape-rendering="crispEdges" style="fill:#45283c;opacity:255;"></rect><rect id="26-7" x="25" y="6" width="1" height="1" shape-rendering="crispEdges" style="fill:#45283c;opacity:255;"></rect><rect id="19-8" x="18" y="7" width="1" height="1" shape-rendering="crispEdges" style="fill:#45283c;opacity:255;"></rect><rect id="22-8" x="21" y="7" width="1" height="1" shape-rendering="crispEdges" style="fill:#45283c;opacity:255;"></rect><rect id="26-8" x="25" y="7" width="1" height="1" shape-rendering="crispEdges" style="fill:#45283c;opacity:255;"></rect><rect id="18-9" x="17" y="8" width="1" height="1" shape-rendering="crispEdges" style="fill:#45283c;opacity:255;"></rect><rect id="20-9" x="19" y="8" width="1" height="1" shape-rendering="crispEdges" style="fill:#45283c;opacity:255;"></rect><rect id="21-9" x="20" y="8" width="1" height="1" shape-rendering="crispEdges" style="fill:#45283c;opacity:255;"></rect><rect id="25-9" x="24" y="8" width="1" height="1" shape-rendering="crispEdges" style="fill:#45283c;opacity:255;"></rect><rect id="18-10" x="17" y="9" width="1" height="1" shape-rendering="crispEdges" style="fill:#45283c;opacity:255;"></rect><rect id="19-10" x="18" y="9" width="1" height="1" shape-rendering="crispEdges" style="fill:#45283c;opacity:255;"></rect><rect id="23-10" x="22" y="9" width="1" height="1" shape-rendering="crispEdges" style="fill:#45283c;opacity:255;"></rect><rect id="24-10" x="23" y="9" width="1" height="1" shape-rendering="crispEdges" style="fill:#45283c;opacity:255;"></rect><rect id="18-11" x="17" y="10" width="1" height="1" shape-rendering="crispEdges" style="fill:#45283c;opacity:255;"></rect><rect id="19-11" x="18" y="10" width="1" height="1" shape-rendering="crispEdges" style="fill:#45283c;opacity:255;"></rect><rect id="20-11" x="19" y="10" width="1" height="1" shape-rendering="crispEdges" style="fill:#45283c;opacity:255;"></rect><rect id="21-11" x="20" y="10" width="1" height="1" shape-rendering="crispEdges" style="fill:#45283c;opacity:255;"></rect><rect id="22-11" x="21" y="10" width="1" height="1" shape-rendering="crispEdges" style="fill:#45283c;opacity:255;"></rect><rect id="17-12" x="16" y="11" width="1" height="1" shape-rendering="crispEdges" style="fill:#45283c;opacity:255;"></rect><rect id="17-13" x="16" y="12" width="1" height="1" shape-rendering="crispEdges" style="fill:#45283c;opacity:255;"></rect><rect id="11-14" x="10" y="13" width="1" height="1" shape-rendering="crispEdges" style="fill:#45283c;opacity:255;"></rect><rect id="12-14" x="11" y="13" width="1" height="1" shape-rendering="crispEdges" style="fill:#45283c;opacity:255;"></rect><rect id="13-14" x="12" y="13" width="1" height="1" shape-rendering="crispEdges" style="fill:#45283c;opacity:255;"></rect><rect id="14-14" x="13" y="13" width="1" height="1" shape-rendering="crispEdges" style="fill:#45283c;opacity:255;"></rect><rect id="15-14" x="14" y="13" width="1" height="1" shape-rendering="crispEdges" style="fill:#45283c;opacity:255;"></rect><rect id="16-14" x="15" y="13" width="1" height="1" shape-rendering="crispEdges" style="fill:#45283c;opacity:255;"></rect><rect id="17-14" x="16" y="13" width="1" height="1" shape-rendering="crispEdges" style="fill:#45283c;opacity:255;"></rect><rect id="18-14" x="17" y="13" width="1" height="1" shape-rendering="crispEdges" style="fill:#45283c;opacity:255;"></rect><rect id="19-14" x="18" y="13" width="1" height="1" shape-rendering="crispEdges" style="fill:#45283c;opacity:255;"></rect><rect id="20-14" x="19" y="13" width="1" height="1" shape-rendering="crispEdges" style="fill:#45283c;opacity:255;"></rect><rect id="10-15" x="9" y="14" width="1" height="1" shape-rendering="crispEdges" style="fill:#45283c;opacity:255;"></rect><rect id="16-15" x="15" y="14" width="1" height="1" shape-rendering="crispEdges" style="fill:#45283c;opacity:255;"></rect><rect id="21-15" x="20" y="14" width="1" height="1" shape-rendering="crispEdges" style="fill:#45283c;opacity:255;"></rect><rect id="11-16" x="10" y="15" width="1" height="1" shape-rendering="crispEdges" style="fill:#45283c;opacity:255;"></rect><rect id="12-16" x="11" y="15" width="1" height="1" shape-rendering="crispEdges" style="fill:#45283c;opacity:255;"></rect><rect id="13-16" x="12" y="15" width="1" height="1" shape-rendering="crispEdges" style="fill:#45283c;opacity:255;"></rect><rect id="14-16" x="13" y="15" width="1" height="1" shape-rendering="crispEdges" style="fill:#45283c;opacity:255;"></rect><rect id="15-16" x="14" y="15" width="1" height="1" shape-rendering="crispEdges" style="fill:#45283c;opacity:255;"></rect><rect id="16-16" x="15" y="15" width="1" height="1" shape-rendering="crispEdges" style="fill:#45283c;opacity:255;"></rect><rect id="17-16" x="16" y="15" width="1" height="1" shape-rendering="crispEdges" style="fill:#45283c;opacity:255;"></rect><rect id="18-16" x="17" y="15" width="1" height="1" shape-rendering="crispEdges" style="fill:#45283c;opacity:255;"></rect><rect id="19-16" x="18" y="15" width="1" height="1" shape-rendering="crispEdges" style="fill:#45283c;opacity:255;"></rect><rect id="20-16" x="19" y="15" width="1" height="1" shape-rendering="crispEdges" style="fill:#45283c;opacity:255;"></rect><rect id="12-17" x="11" y="16" width="1" height="1" shape-rendering="crispEdges" style="fill:#45283c;opacity:255;"></rect><rect id="15-17" x="14" y="16" width="1" height="1" shape-rendering="crispEdges" style="fill:#45283c;opacity:255;"></rect><rect id="19-17" x="18" y="16" width="1" height="1" shape-rendering="crispEdges" style="fill:#45283c;opacity:255;"></rect><rect id="12-18" x="11" y="17" width="1" height="1" shape-rendering="crispEdges" style="fill:#45283c;opacity:255;"></rect><rect id="14-18" x="13" y="17" width="1" height="1" shape-rendering="crispEdges" style="fill:#45283c;opacity:255;"></rect><rect id="19-18" x="18" y="17" width="1" height="1" shape-rendering="crispEdges" style="fill:#45283c;opacity:255;"></rect><rect id="12-19" x="11" y="18" width="1" height="1" shape-rendering="crispEdges" style="fill:#45283c;opacity:255;"></rect><rect id="14-19" x="13" y="18" width="1" height="1" shape-rendering="crispEdges" style="fill:#45283c;opacity:255;"></rect><rect id="19-19" x="18" y="18" width="1" height="1" shape-rendering="crispEdges" style="fill:#45283c;opacity:255;"></rect><rect id="10-20" x="9" y="19" width="1" height="1" shape-rendering="crispEdges" style="fill:#45283c;opacity:255;"></rect><rect id="11-20" x="10" y="19" width="1" height="1" shape-rendering="crispEdges" style="fill:#45283c;opacity:255;"></rect><rect id="13-20" x="12" y="19" width="1" height="1" shape-rendering="crispEdges" style="fill:#45283c;opacity:255;"></rect><rect id="20-20" x="19" y="19" width="1" height="1" shape-rendering="crispEdges" style="fill:#45283c;opacity:255;"></rect><rect id="21-20" x="20" y="19" width="1" height="1" shape-rendering="crispEdges" style="fill:#45283c;opacity:255;"></rect><rect id="8-21" x="7" y="20" width="1" height="1" shape-rendering="crispEdges" style="fill:#45283c;opacity:255;"></rect><rect id="9-21" x="8" y="20" width="1" height="1" shape-rendering="crispEdges" style="fill:#45283c;opacity:255;"></rect><rect id="10-21" x="9" y="20" width="1" height="1" shape-rendering="crispEdges" style="fill:#45283c;opacity:255;"></rect><rect id="12-21" x="11" y="20" width="1" height="1" shape-rendering="crispEdges" style="fill:#45283c;opacity:255;"></rect><rect id="22-21" x="21" y="20" width="1" height="1" shape-rendering="crispEdges" style="fill:#45283c;opacity:255;"></rect><rect id="23-21" x="22" y="20" width="1" height="1" shape-rendering="crispEdges" style="fill:#45283c;opacity:255;"></rect><rect id="7-22" x="6" y="21" width="1" height="1" shape-rendering="crispEdges" style="fill:#45283c;opacity:255;"></rect><rect id="8-22" x="7" y="21" width="1" height="1" shape-rendering="crispEdges" style="fill:#45283c;opacity:255;"></rect><rect id="9-22" x="8" y="21" width="1" height="1" shape-rendering="crispEdges" style="fill:#45283c;opacity:255;"></rect><rect id="10-22" x="9" y="21" width="1" height="1" shape-rendering="crispEdges" style="fill:#45283c;opacity:255;"></rect><rect id="12-22" x="11" y="21" width="1" height="1" shape-rendering="crispEdges" style="fill:#45283c;opacity:255;"></rect><rect id="21-22" x="20" y="21" width="1" height="1" shape-rendering="crispEdges" style="fill:#45283c;opacity:255;"></rect><rect id="22-22" x="21" y="21" width="1" height="1" shape-rendering="crispEdges" style="fill:#45283c;opacity:255;"></rect><rect id="23-22" x="22" y="21" width="1" height="1" shape-rendering="crispEdges" style="fill:#45283c;opacity:255;"></rect><rect id="24-22" x="23" y="21" width="1" height="1" shape-rendering="crispEdges" style="fill:#45283c;opacity:255;"></rect><rect id="7-23" x="6" y="22" width="1" height="1" shape-rendering="crispEdges" style="fill:#45283c;opacity:255;"></rect><rect id="8-23" x="7" y="22" width="1" height="1" shape-rendering="crispEdges" style="fill:#45283c;opacity:255;"></rect><rect id="9-23" x="8" y="22" width="1" height="1" shape-rendering="crispEdges" style="fill:#45283c;opacity:255;"></rect><rect id="10-23" x="9" y="22" width="1" height="1" shape-rendering="crispEdges" style="fill:#45283c;opacity:255;"></rect><rect id="21-23" x="20" y="22" width="1" height="1" shape-rendering="crispEdges" style="fill:#45283c;opacity:255;"></rect><rect id="22-23" x="21" y="22" width="1" height="1" shape-rendering="crispEdges" style="fill:#45283c;opacity:255;"></rect><rect id="23-23" x="22" y="22" width="1" height="1" shape-rendering="crispEdges" style="fill:#45283c;opacity:255;"></rect><rect id="24-23" x="23" y="22" width="1" height="1" shape-rendering="crispEdges" style="fill:#45283c;opacity:255;"></rect><rect id="7-24" x="6" y="23" width="1" height="1" shape-rendering="crispEdges" style="fill:#45283c;opacity:255;"></rect><rect id="8-24" x="7" y="23" width="1" height="1" shape-rendering="crispEdges" style="fill:#45283c;opacity:255;"></rect><rect id="9-24" x="8" y="23" width="1" height="1" shape-rendering="crispEdges" style="fill:#45283c;opacity:255;"></rect><rect id="10-24" x="9" y="23" width="1" height="1" shape-rendering="crispEdges" style="fill:#45283c;opacity:255;"></rect><rect id="20-24" x="19" y="23" width="1" height="1" shape-rendering="crispEdges" style="fill:#45283c;opacity:255;"></rect><rect id="21-24" x="20" y="23" width="1" height="1" shape-rendering="crispEdges" style="fill:#45283c;opacity:255;"></rect><rect id="22-24" x="21" y="23" width="1" height="1" shape-rendering="crispEdges" style="fill:#45283c;opacity:255;"></rect><rect id="23-24" x="22" y="23" width="1" height="1" shape-rendering="crispEdges" style="fill:#45283c;opacity:255;"></rect><rect id="24-24" x="23" y="23" width="1" height="1" shape-rendering="crispEdges" style="fill:#45283c;opacity:255;"></rect><rect id="7-25" x="6" y="24" width="1" height="1" shape-rendering="crispEdges" style="fill:#45283c;opacity:255;"></rect><rect id="8-25" x="7" y="24" width="1" height="1" shape-rendering="crispEdges" style="fill:#45283c;opacity:255;"></rect><rect id="9-25" x="8" y="24" width="1" height="1" shape-rendering="crispEdges" style="fill:#45283c;opacity:255;"></rect><rect id="10-25" x="9" y="24" width="1" height="1" shape-rendering="crispEdges" style="fill:#45283c;opacity:255;"></rect><rect id="15-25" x="14" y="24" width="1" height="1" shape-rendering="crispEdges" style="fill:#45283c;opacity:255;"></rect><rect id="16-25" x="15" y="24" width="1" height="1" shape-rendering="crispEdges" style="fill:#45283c;opacity:255;"></rect><rect id="20-25" x="19" y="24" width="1" height="1" shape-rendering="crispEdges" style="fill:#45283c;opacity:255;"></rect><rect id="21-25" x="20" y="24" width="1" height="1" shape-rendering="crispEdges" style="fill:#45283c;opacity:255;"></rect><rect id="22-25" x="21" y="24" width="1" height="1" shape-rendering="crispEdges" style="fill:#45283c;opacity:255;"></rect><rect id="23-25" x="22" y="24" width="1" height="1" shape-rendering="crispEdges" style="fill:#45283c;opacity:255;"></rect><rect id="24-25" x="23" y="24" width="1" height="1" shape-rendering="crispEdges" style="fill:#45283c;opacity:255;"></rect><rect id="7-26" x="6" y="25" width="1" height="1" shape-rendering="crispEdges" style="fill:#45283c;opacity:255;"></rect><rect id="8-26" x="7" y="25" width="1" height="1" shape-rendering="crispEdges" style="fill:#45283c;opacity:255;"></rect><rect id="9-26" x="8" y="25" width="1" height="1" shape-rendering="crispEdges" style="fill:#45283c;opacity:255;"></rect><rect id="10-26" x="9" y="25" width="1" height="1" shape-rendering="crispEdges" style="fill:#45283c;opacity:255;"></rect><rect id="11-26" x="10" y="25" width="1" height="1" shape-rendering="crispEdges" style="fill:#45283c;opacity:255;"></rect><rect id="13-26" x="12" y="25" width="1" height="1" shape-rendering="crispEdges" style="fill:#45283c;opacity:255;"></rect><rect id="14-26" x="13" y="25" width="1" height="1" shape-rendering="crispEdges" style="fill:#45283c;opacity:255;"></rect><rect id="15-26" x="14" y="25" width="1" height="1" shape-rendering="crispEdges" style="fill:#45283c;opacity:255;"></rect><rect id="16-26" x="15" y="25" width="1" height="1" shape-rendering="crispEdges" style="fill:#45283c;opacity:255;"></rect><rect id="17-26" x="16" y="25" width="1" height="1" shape-rendering="crispEdges" style="fill:#45283c;opacity:255;"></rect><rect id="19-26" x="18" y="25" width="1" height="1" shape-rendering="crispEdges" style="fill:#45283c;opacity:255;"></rect><rect id="20-26" x="19" y="25" width="1" height="1" shape-rendering="crispEdges" style="fill:#45283c;opacity:255;"></rect><rect id="21-26" x="20" y="25" width="1" height="1" shape-rendering="crispEdges" style="fill:#45283c;opacity:255;"></rect><rect id="22-26" x="21" y="25" width="1" height="1" shape-rendering="crispEdges" style="fill:#45283c;opacity:255;"></rect><rect id="23-26" x="22" y="25" width="1" height="1" shape-rendering="crispEdges" style="fill:#45283c;opacity:255;"></rect><rect id="24-26" x="23" y="25" width="1" height="1" shape-rendering="crispEdges" style="fill:#45283c;opacity:255;"></rect><rect id="7-27" x="6" y="26" width="1" height="1" shape-rendering="crispEdges" style="fill:#45283c;opacity:255;"></rect><rect id="8-27" x="7" y="26" width="1" height="1" shape-rendering="crispEdges" style="fill:#45283c;opacity:255;"></rect><rect id="9-27" x="8" y="26" width="1" height="1" shape-rendering="crispEdges" style="fill:#45283c;opacity:255;"></rect><rect id="10-27" x="9" y="26" width="1" height="1" shape-rendering="crispEdges" style="fill:#45283c;opacity:255;"></rect><rect id="11-27" x="10" y="26" width="1" height="1" shape-rendering="crispEdges" style="fill:#45283c;opacity:255;"></rect><rect id="12-27" x="11" y="26" width="1" height="1" shape-rendering="crispEdges" style="fill:#45283c;opacity:255;"></rect><rect id="13-27" x="12" y="26" width="1" height="1" shape-rendering="crispEdges" style="fill:#45283c;opacity:255;"></rect><rect id="14-27" x="13" y="26" width="1" height="1" shape-rendering="crispEdges" style="fill:#45283c;opacity:255;"></rect><rect id="15-27" x="14" y="26" width="1" height="1" shape-rendering="crispEdges" style="fill:#45283c;opacity:255;"></rect><rect id="17-27" x="16" y="26" width="1" height="1" shape-rendering="crispEdges" style="fill:#45283c;opacity:255;"></rect><rect id="18-27" x="17" y="26" width="1" height="1" shape-rendering="crispEdges" style="fill:#45283c;opacity:255;"></rect><rect id="19-27" x="18" y="26" width="1" height="1" shape-rendering="crispEdges" style="fill:#45283c;opacity:255;"></rect><rect id="20-27" x="19" y="26" width="1" height="1" shape-rendering="crispEdges" style="fill:#45283c;opacity:255;"></rect><rect id="22-27" x="21" y="26" width="1" height="1" shape-rendering="crispEdges" style="fill:#45283c;opacity:255;"></rect><rect id="23-27" x="22" y="26" width="1" height="1" shape-rendering="crispEdges" style="fill:#45283c;opacity:255;"></rect><rect id="24-27" x="23" y="26" width="1" height="1" shape-rendering="crispEdges" style="fill:#45283c;opacity:255;"></rect><rect id="8-28" x="7" y="27" width="1" height="1" shape-rendering="crispEdges" style="fill:#45283c;opacity:255;"></rect><rect id="9-28" x="8" y="27" width="1" height="1" shape-rendering="crispEdges" style="fill:#45283c;opacity:255;"></rect><rect id="10-28" x="9" y="27" width="1" height="1" shape-rendering="crispEdges" style="fill:#45283c;opacity:255;"></rect><rect id="11-28" x="10" y="27" width="1" height="1" shape-rendering="crispEdges" style="fill:#45283c;opacity:255;"></rect><rect id="12-28" x="11" y="27" width="1" height="1" shape-rendering="crispEdges" style="fill:#45283c;opacity:255;"></rect><rect id="13-28" x="12" y="27" width="1" height="1" shape-rendering="crispEdges" style="fill:#45283c;opacity:255;"></rect><rect id="14-28" x="13" y="27" width="1" height="1" shape-rendering="crispEdges" style="fill:#45283c;opacity:255;"></rect><rect id="15-28" x="14" y="27" width="1" height="1" shape-rendering="crispEdges" style="fill:#45283c;opacity:255;"></rect><rect id="16-28" x="15" y="27" width="1" height="1" shape-rendering="crispEdges" style="fill:#45283c;opacity:255;"></rect><rect id="17-28" x="16" y="27" width="1" height="1" shape-rendering="crispEdges" style="fill:#45283c;opacity:255;"></rect><rect id="18-28" x="17" y="27" width="1" height="1" shape-rendering="crispEdges" style="fill:#45283c;opacity:255;"></rect><rect id="21-28" x="20" y="27" width="1" height="1" shape-rendering="crispEdges" style="fill:#45283c;opacity:255;"></rect><rect id="22-28" x="21" y="27" width="1" height="1" shape-rendering="crispEdges" style="fill:#45283c;opacity:255;"></rect><rect id="23-28" x="22" y="27" width="1" height="1" shape-rendering="crispEdges" style="fill:#45283c;opacity:255;"></rect><rect id="9-29" x="8" y="28" width="1" height="1" shape-rendering="crispEdges" style="fill:#45283c;opacity:255;"></rect><rect id="10-29" x="9" y="28" width="1" height="1" shape-rendering="crispEdges" style="fill:#45283c;opacity:255;"></rect><rect id="11-29" x="10" y="28" width="1" height="1" shape-rendering="crispEdges" style="fill:#45283c;opacity:255;"></rect><rect id="12-29" x="11" y="28" width="1" height="1" shape-rendering="crispEdges" style="fill:#45283c;opacity:255;"></rect><rect id="13-29" x="12" y="28" width="1" height="1" shape-rendering="crispEdges" style="fill:#45283c;opacity:255;"></rect><rect id="14-29" x="13" y="28" width="1" height="1" shape-rendering="crispEdges" style="fill:#45283c;opacity:255;"></rect><rect id="15-29" x="14" y="28" width="1" height="1" shape-rendering="crispEdges" style="fill:#45283c;opacity:255;"></rect><rect id="16-29" x="15" y="28" width="1" height="1" shape-rendering="crispEdges" style="fill:#45283c;opacity:255;"></rect><rect id="17-29" x="16" y="28" width="1" height="1" shape-rendering="crispEdges" style="fill:#45283c;opacity:255;"></rect><rect id="18-29" x="17" y="28" width="1" height="1" shape-rendering="crispEdges" style="fill:#45283c;opacity:255;"></rect><rect id="19-29" x="18" y="28" width="1" height="1" shape-rendering="crispEdges" style="fill:#45283c;opacity:255;"></rect><rect id="20-29" x="19" y="28" width="1" height="1" shape-rendering="crispEdges" style="fill:#45283c;opacity:255;"></rect><rect id="21-29" x="20" y="28" width="1" height="1" shape-rendering="crispEdges" style="fill:#45283c;opacity:255;"></rect><rect id="22-29" x="21" y="28" width="1" height="1" shape-rendering="crispEdges" style="fill:#45283c;opacity:255;"></rect><rect id="10-30" x="9" y="29" width="1" height="1" shape-rendering="crispEdges" style="fill:#45283c;opacity:255;"></rect><rect id="11-30" x="10" y="29" width="1" height="1" shape-rendering="crispEdges" style="fill:#45283c;opacity:255;"></rect><rect id="12-30" x="11" y="29" width="1" height="1" shape-rendering="crispEdges" style="fill:#45283c;opacity:255;"></rect><rect id="13-30" x="12" y="29" width="1" height="1" shape-rendering="crispEdges" style="fill:#45283c;opacity:255;"></rect><rect id="14-30" x="13" y="29" width="1" height="1" shape-rendering="crispEdges" style="fill:#45283c;opacity:255;"></rect><rect id="15-30" x="14" y="29" width="1" height="1" shape-rendering="crispEdges" style="fill:#45283c;opacity:255;"></rect><rect id="16-30" x="15" y="29" width="1" height="1" shape-rendering="crispEdges" style="fill:#45283c;opacity:255;"></rect><rect id="17-30" x="16" y="29" width="1" height="1" shape-rendering="crispEdges" style="fill:#45283c;opacity:255;"></rect><rect id="18-30" x="17" y="29" width="1" height="1" shape-rendering="crispEdges" style="fill:#45283c;opacity:255;"></rect><rect id="19-30" x="18" y="29" width="1" height="1" shape-rendering="crispEdges" style="fill:#45283c;opacity:255;"></rect><rect id="20-30" x="19" y="29" width="1" height="1" shape-rendering="crispEdges" style="fill:#45283c;opacity:255;"></rect><rect id="21-30" x="20" y="29" width="1" height="1" shape-rendering="crispEdges" style="fill:#45283c;opacity:255;"></rect><rect id="11-31" x="10" y="30" width="1" height="1" shape-rendering="crispEdges" style="fill:#45283c;opacity:255;"></rect><rect id="12-31" x="11" y="30" width="1" height="1" shape-rendering="crispEdges" style="fill:#45283c;opacity:255;"></rect><rect id="13-31" x="12" y="30" width="1" height="1" shape-rendering="crispEdges" style="fill:#45283c;opacity:255;"></rect><rect id="14-31" x="13" y="30" width="1" height="1" shape-rendering="crispEdges" style="fill:#45283c;opacity:255;"></rect><rect id="15-31" x="14" y="30" width="1" height="1" shape-rendering="crispEdges" style="fill:#45283c;opacity:255;"></rect><rect id="16-31" x="15" y="30" width="1" height="1" shape-rendering="crispEdges" style="fill:#45283c;opacity:255;"></rect><rect id="17-31" x="16" y="30" width="1" height="1" shape-rendering="crispEdges" style="fill:#45283c;opacity:255;"></rect><rect id="18-31" x="17" y="30" width="1" height="1" shape-rendering="crispEdges" style="fill:#45283c;opacity:255;"></rect><rect id="19-31" x="18" y="30" width="1" height="1" shape-rendering="crispEdges" style="fill:#45283c;opacity:255;"></rect><rect id="20-31" x="19" y="30" width="1" height="1" shape-rendering="crispEdges" style="fill:#45283c;opacity:255;"></rect></g></svg>