<?xml version="1.0" encoding="UTF-8" standalone="no"?><svg xmlns="http://www.w3.org/2000/svg" id="straight-arrow-right" width="32" height="32" viewBox="0 0 32 32" preserveAspectRatio="xMidYMid meet" rendering="crispEdges"><rect id="16-4" x="15" y="3" width="1" height="1" shape-rendering="crispEdges" style="fill:#2c0f30;opacity:255;"></rect><rect id="17-4" x="16" y="3" width="1" height="1" shape-rendering="crispEdges" style="fill:#2c0f30;opacity:255;"></rect><rect id="18-4" x="17" y="3" width="1" height="1" shape-rendering="crispEdges" style="fill:#2c0f30;opacity:255;"></rect><rect id="16-5" x="15" y="4" width="1" height="1" shape-rendering="crispEdges" style="fill:#2c0f30;opacity:255;"></rect><rect id="17-5" x="16" y="4" width="1" height="1" shape-rendering="crispEdges" style="fill:#2c0f30;opacity:255;"></rect><rect id="18-5" x="17" y="4" width="1" height="1" shape-rendering="crispEdges" style="fill:#2c0f30;opacity:255;"></rect><rect id="16-6" x="15" y="5" width="1" height="1" shape-rendering="crispEdges" style="fill:#2c0f30;opacity:255;"></rect><rect id="17-6" x="16" y="5" width="1" height="1" shape-rendering="crispEdges" style="fill:#2c0f30;opacity:255;"></rect><rect id="18-6" x="17" y="5" width="1" height="1" shape-rendering="crispEdges" style="fill:#2c0f30;opacity:255;"></rect><rect id="19-6" x="18" y="5" width="1" height="1" shape-rendering="crispEdges" style="fill:#2c0f30;opacity:255;"></rect><rect id="20-6" x="19" y="5" width="1" height="1" shape-rendering="crispEdges" style="fill:#2c0f30;opacity:255;"></rect><rect id="16-7" x="15" y="6" width="1" height="1" shape-rendering="crispEdges" style="fill:#2c0f30;opacity:255;"></rect><rect id="17-7" x="16" y="6" width="1" height="1" shape-rendering="crispEdges" style="fill:#2c0f30;opacity:255;"></rect><rect id="18-7" x="17" y="6" width="1" height="1" shape-rendering="crispEdges" style="fill:#2c0f30;opacity:255;"></rect><rect id="19-7" x="18" y="6" width="1" height="1" shape-rendering="crispEdges" style="fill:#2c0f30;opacity:255;"></rect><rect id="20-7" x="19" y="6" width="1" height="1" shape-rendering="crispEdges" style="fill:#2c0f30;opacity:255;"></rect><rect id="16-8" x="15" y="7" width="1" height="1" shape-rendering="crispEdges" style="fill:#2c0f30;opacity:255;"></rect><rect id="17-8" x="16" y="7" width="1" height="1" shape-rendering="crispEdges" style="fill:#2c0f30;opacity:255;"></rect><rect id="18-8" x="17" y="7" width="1" height="1" shape-rendering="crispEdges" style="fill:#2c0f30;opacity:255;"></rect><rect id="19-8" x="18" y="7" width="1" height="1" shape-rendering="crispEdges" style="fill:#2c0f30;opacity:255;"></rect><rect id="20-8" x="19" y="7" width="1" height="1" shape-rendering="crispEdges" style="fill:#2c0f30;opacity:255;"></rect><rect id="16-9" x="15" y="8" width="1" height="1" shape-rendering="crispEdges" style="fill:#2c0f30;opacity:255;"></rect><rect id="17-9" x="16" y="8" width="1" height="1" shape-rendering="crispEdges" style="fill:#2c0f30;opacity:255;"></rect><rect id="18-9" x="17" y="8" width="1" height="1" shape-rendering="crispEdges" style="fill:#2c0f30;opacity:255;"></rect><rect id="19-9" x="18" y="8" width="1" height="1" shape-rendering="crispEdges" style="fill:#2c0f30;opacity:255;"></rect><rect id="20-9" x="19" y="8" width="1" height="1" shape-rendering="crispEdges" style="fill:#2c0f30;opacity:255;"></rect><rect id="21-9" x="20" y="8" width="1" height="1" shape-rendering="crispEdges" style="fill:#2c0f30;opacity:255;"></rect><rect id="22-9" x="21" y="8" width="1" height="1" shape-rendering="crispEdges" style="fill:#2c0f30;opacity:255;"></rect><rect id="23-9" x="22" y="8" width="1" height="1" shape-rendering="crispEdges" style="fill:#2c0f30;opacity:255;"></rect><rect id="16-10" x="15" y="9" width="1" height="1" shape-rendering="crispEdges" style="fill:#2c0f30;opacity:255;"></rect><rect id="17-10" x="16" y="9" width="1" height="1" shape-rendering="crispEdges" style="fill:#2c0f30;opacity:255;"></rect><rect id="18-10" x="17" y="9" width="1" height="1" shape-rendering="crispEdges" style="fill:#2c0f30;opacity:255;"></rect><rect id="19-10" x="18" y="9" width="1" height="1" shape-rendering="crispEdges" style="fill:#2c0f30;opacity:255;"></rect><rect id="20-10" x="19" y="9" width="1" height="1" shape-rendering="crispEdges" style="fill:#2c0f30;opacity:255;"></rect><rect id="21-10" x="20" y="9" width="1" height="1" shape-rendering="crispEdges" style="fill:#2c0f30;opacity:255;"></rect><rect id="22-10" x="21" y="9" width="1" height="1" shape-rendering="crispEdges" style="fill:#2c0f30;opacity:255;"></rect><rect id="23-10" x="22" y="9" width="1" height="1" shape-rendering="crispEdges" style="fill:#2c0f30;opacity:255;"></rect><rect id="16-11" x="15" y="10" width="1" height="1" shape-rendering="crispEdges" style="fill:#2c0f30;opacity:255;"></rect><rect id="17-11" x="16" y="10" width="1" height="1" shape-rendering="crispEdges" style="fill:#2c0f30;opacity:255;"></rect><rect id="18-11" x="17" y="10" width="1" height="1" shape-rendering="crispEdges" style="fill:#2c0f30;opacity:255;"></rect><rect id="19-11" x="18" y="10" width="1" height="1" shape-rendering="crispEdges" style="fill:#2c0f30;opacity:255;"></rect><rect id="20-11" x="19" y="10" width="1" height="1" shape-rendering="crispEdges" style="fill:#2c0f30;opacity:255;"></rect><rect id="21-11" x="20" y="10" width="1" height="1" shape-rendering="crispEdges" style="fill:#2c0f30;opacity:255;"></rect><rect id="22-11" x="21" y="10" width="1" height="1" shape-rendering="crispEdges" style="fill:#2c0f30;opacity:255;"></rect><rect id="23-11" x="22" y="10" width="1" height="1" shape-rendering="crispEdges" style="fill:#2c0f30;opacity:255;"></rect><rect id="24-11" x="23" y="10" width="1" height="1" shape-rendering="crispEdges" style="fill:#2c0f30;opacity:255;"></rect><rect id="25-11" x="24" y="10" width="1" height="1" shape-rendering="crispEdges" style="fill:#2c0f30;opacity:255;"></rect><rect id="16-12" x="15" y="11" width="1" height="1" shape-rendering="crispEdges" style="fill:#2c0f30;opacity:255;"></rect><rect id="17-12" x="16" y="11" width="1" height="1" shape-rendering="crispEdges" style="fill:#2c0f30;opacity:255;"></rect><rect id="18-12" x="17" y="11" width="1" height="1" shape-rendering="crispEdges" style="fill:#2c0f30;opacity:255;"></rect><rect id="19-12" x="18" y="11" width="1" height="1" shape-rendering="crispEdges" style="fill:#2c0f30;opacity:255;"></rect><rect id="20-12" x="19" y="11" width="1" height="1" shape-rendering="crispEdges" style="fill:#2c0f30;opacity:255;"></rect><rect id="21-12" x="20" y="11" width="1" height="1" shape-rendering="crispEdges" style="fill:#2c0f30;opacity:255;"></rect><rect id="22-12" x="21" y="11" width="1" height="1" shape-rendering="crispEdges" style="fill:#2c0f30;opacity:255;"></rect><rect id="23-12" x="22" y="11" width="1" height="1" shape-rendering="crispEdges" style="fill:#2c0f30;opacity:255;"></rect><rect id="24-12" x="23" y="11" width="1" height="1" shape-rendering="crispEdges" style="fill:#2c0f30;opacity:255;"></rect><rect id="25-12" x="24" y="11" width="1" height="1" shape-rendering="crispEdges" style="fill:#2c0f30;opacity:255;"></rect><rect id="2-13" x="1" y="12" width="1" height="1" shape-rendering="crispEdges" style="fill:#2c0f30;opacity:255;"></rect><rect id="3-13" x="2" y="12" width="1" height="1" shape-rendering="crispEdges" style="fill:#2c0f30;opacity:255;"></rect><rect id="4-13" x="3" y="12" width="1" height="1" shape-rendering="crispEdges" style="fill:#2c0f30;opacity:255;"></rect><rect id="5-13" x="4" y="12" width="1" height="1" shape-rendering="crispEdges" style="fill:#2c0f30;opacity:255;"></rect><rect id="6-13" x="5" y="12" width="1" height="1" shape-rendering="crispEdges" style="fill:#2c0f30;opacity:255;"></rect><rect id="7-13" x="6" y="12" width="1" height="1" shape-rendering="crispEdges" style="fill:#2c0f30;opacity:255;"></rect><rect id="8-13" x="7" y="12" width="1" height="1" shape-rendering="crispEdges" style="fill:#2c0f30;opacity:255;"></rect><rect id="9-13" x="8" y="12" width="1" height="1" shape-rendering="crispEdges" style="fill:#2c0f30;opacity:255;"></rect><rect id="10-13" x="9" y="12" width="1" height="1" shape-rendering="crispEdges" style="fill:#2c0f30;opacity:255;"></rect><rect id="11-13" x="10" y="12" width="1" height="1" shape-rendering="crispEdges" style="fill:#2c0f30;opacity:255;"></rect><rect id="12-13" x="11" y="12" width="1" height="1" shape-rendering="crispEdges" style="fill:#2c0f30;opacity:255;"></rect><rect id="13-13" x="12" y="12" width="1" height="1" shape-rendering="crispEdges" style="fill:#2c0f30;opacity:255;"></rect><rect id="14-13" x="13" y="12" width="1" height="1" shape-rendering="crispEdges" style="fill:#2c0f30;opacity:255;"></rect><rect id="15-13" x="14" y="12" width="1" height="1" shape-rendering="crispEdges" style="fill:#2c0f30;opacity:255;"></rect><rect id="16-13" x="15" y="12" width="1" height="1" shape-rendering="crispEdges" style="fill:#2c0f30;opacity:255;"></rect><rect id="17-13" x="16" y="12" width="1" height="1" shape-rendering="crispEdges" style="fill:#2c0f30;opacity:255;"></rect><rect id="18-13" x="17" y="12" width="1" height="1" shape-rendering="crispEdges" style="fill:#2c0f30;opacity:255;"></rect><rect id="19-13" x="18" y="12" width="1" height="1" shape-rendering="crispEdges" style="fill:#2c0f30;opacity:255;"></rect><rect id="20-13" x="19" y="12" width="1" height="1" shape-rendering="crispEdges" style="fill:#2c0f30;opacity:255;"></rect><rect id="21-13" x="20" y="12" width="1" height="1" shape-rendering="crispEdges" style="fill:#2c0f30;opacity:255;"></rect><rect id="22-13" x="21" y="12" width="1" height="1" shape-rendering="crispEdges" style="fill:#2c0f30;opacity:255;"></rect><rect id="23-13" x="22" y="12" width="1" height="1" shape-rendering="crispEdges" style="fill:#2c0f30;opacity:255;"></rect><rect id="24-13" x="23" y="12" width="1" height="1" shape-rendering="crispEdges" style="fill:#2c0f30;opacity:255;"></rect><rect id="25-13" x="24" y="12" width="1" height="1" shape-rendering="crispEdges" style="fill:#2c0f30;opacity:255;"></rect><rect id="26-13" x="25" y="12" width="1" height="1" shape-rendering="crispEdges" style="fill:#2c0f30;opacity:255;"></rect><rect id="27-13" x="26" y="12" width="1" height="1" shape-rendering="crispEdges" style="fill:#2c0f30;opacity:255;"></rect><rect id="28-13" x="27" y="12" width="1" height="1" shape-rendering="crispEdges" style="fill:#2c0f30;opacity:255;"></rect><rect id="2-14" x="1" y="13" width="1" height="1" shape-rendering="crispEdges" style="fill:#2c0f30;opacity:255;"></rect><rect id="3-14" x="2" y="13" width="1" height="1" shape-rendering="crispEdges" style="fill:#2c0f30;opacity:255;"></rect><rect id="4-14" x="3" y="13" width="1" height="1" shape-rendering="crispEdges" style="fill:#2c0f30;opacity:255;"></rect><rect id="5-14" x="4" y="13" width="1" height="1" shape-rendering="crispEdges" style="fill:#2c0f30;opacity:255;"></rect><rect id="6-14" x="5" y="13" width="1" height="1" shape-rendering="crispEdges" style="fill:#2c0f30;opacity:255;"></rect><rect id="7-14" x="6" y="13" width="1" height="1" shape-rendering="crispEdges" style="fill:#2c0f30;opacity:255;"></rect><rect id="8-14" x="7" y="13" width="1" height="1" shape-rendering="crispEdges" style="fill:#2c0f30;opacity:255;"></rect><rect id="9-14" x="8" y="13" width="1" height="1" shape-rendering="crispEdges" style="fill:#2c0f30;opacity:255;"></rect><rect id="10-14" x="9" y="13" width="1" height="1" shape-rendering="crispEdges" style="fill:#2c0f30;opacity:255;"></rect><rect id="11-14" x="10" y="13" width="1" height="1" shape-rendering="crispEdges" style="fill:#2c0f30;opacity:255;"></rect><rect id="12-14" x="11" y="13" width="1" height="1" shape-rendering="crispEdges" style="fill:#2c0f30;opacity:255;"></rect><rect id="13-14" x="12" y="13" width="1" height="1" shape-rendering="crispEdges" style="fill:#2c0f30;opacity:255;"></rect><rect id="14-14" x="13" y="13" width="1" height="1" shape-rendering="crispEdges" style="fill:#2c0f30;opacity:255;"></rect><rect id="15-14" x="14" y="13" width="1" height="1" shape-rendering="crispEdges" style="fill:#2c0f30;opacity:255;"></rect><rect id="16-14" x="15" y="13" width="1" height="1" shape-rendering="crispEdges" style="fill:#2c0f30;opacity:255;"></rect><rect id="17-14" x="16" y="13" width="1" height="1" shape-rendering="crispEdges" style="fill:#2c0f30;opacity:255;"></rect><rect id="18-14" x="17" y="13" width="1" height="1" shape-rendering="crispEdges" style="fill:#2c0f30;opacity:255;"></rect><rect id="19-14" x="18" y="13" width="1" height="1" shape-rendering="crispEdges" style="fill:#2c0f30;opacity:255;"></rect><rect id="20-14" x="19" y="13" width="1" height="1" shape-rendering="crispEdges" style="fill:#2c0f30;opacity:255;"></rect><rect id="21-14" x="20" y="13" width="1" height="1" shape-rendering="crispEdges" style="fill:#2c0f30;opacity:255;"></rect><rect id="22-14" x="21" y="13" width="1" height="1" shape-rendering="crispEdges" style="fill:#2c0f30;opacity:255;"></rect><rect id="23-14" x="22" y="13" width="1" height="1" shape-rendering="crispEdges" style="fill:#2c0f30;opacity:255;"></rect><rect id="24-14" x="23" y="13" width="1" height="1" shape-rendering="crispEdges" style="fill:#2c0f30;opacity:255;"></rect><rect id="25-14" x="24" y="13" width="1" height="1" shape-rendering="crispEdges" style="fill:#2c0f30;opacity:255;"></rect><rect id="26-14" x="25" y="13" width="1" height="1" shape-rendering="crispEdges" style="fill:#2c0f30;opacity:255;"></rect><rect id="27-14" x="26" y="13" width="1" height="1" shape-rendering="crispEdges" style="fill:#2c0f30;opacity:255;"></rect><rect id="28-14" x="27" y="13" width="1" height="1" shape-rendering="crispEdges" style="fill:#2c0f30;opacity:255;"></rect><rect id="2-15" x="1" y="14" width="1" height="1" shape-rendering="crispEdges" style="fill:#2c0f30;opacity:255;"></rect><rect id="3-15" x="2" y="14" width="1" height="1" shape-rendering="crispEdges" style="fill:#2c0f30;opacity:255;"></rect><rect id="4-15" x="3" y="14" width="1" height="1" shape-rendering="crispEdges" style="fill:#2c0f30;opacity:255;"></rect><rect id="5-15" x="4" y="14" width="1" height="1" shape-rendering="crispEdges" style="fill:#2c0f30;opacity:255;"></rect><rect id="6-15" x="5" y="14" width="1" height="1" shape-rendering="crispEdges" style="fill:#2c0f30;opacity:255;"></rect><rect id="7-15" x="6" y="14" width="1" height="1" shape-rendering="crispEdges" style="fill:#2c0f30;opacity:255;"></rect><rect id="8-15" x="7" y="14" width="1" height="1" shape-rendering="crispEdges" style="fill:#2c0f30;opacity:255;"></rect><rect id="9-15" x="8" y="14" width="1" height="1" shape-rendering="crispEdges" style="fill:#2c0f30;opacity:255;"></rect><rect id="10-15" x="9" y="14" width="1" height="1" shape-rendering="crispEdges" style="fill:#2c0f30;opacity:255;"></rect><rect id="11-15" x="10" y="14" width="1" height="1" shape-rendering="crispEdges" style="fill:#2c0f30;opacity:255;"></rect><rect id="12-15" x="11" y="14" width="1" height="1" shape-rendering="crispEdges" style="fill:#2c0f30;opacity:255;"></rect><rect id="13-15" x="12" y="14" width="1" height="1" shape-rendering="crispEdges" style="fill:#2c0f30;opacity:255;"></rect><rect id="14-15" x="13" y="14" width="1" height="1" shape-rendering="crispEdges" style="fill:#2c0f30;opacity:255;"></rect><rect id="15-15" x="14" y="14" width="1" height="1" shape-rendering="crispEdges" style="fill:#2c0f30;opacity:255;"></rect><rect id="16-15" x="15" y="14" width="1" height="1" shape-rendering="crispEdges" style="fill:#2c0f30;opacity:255;"></rect><rect id="17-15" x="16" y="14" width="1" height="1" shape-rendering="crispEdges" style="fill:#2c0f30;opacity:255;"></rect><rect id="18-15" x="17" y="14" width="1" height="1" shape-rendering="crispEdges" style="fill:#2c0f30;opacity:255;"></rect><rect id="19-15" x="18" y="14" width="1" height="1" shape-rendering="crispEdges" style="fill:#2c0f30;opacity:255;"></rect><rect id="20-15" x="19" y="14" width="1" height="1" shape-rendering="crispEdges" style="fill:#2c0f30;opacity:255;"></rect><rect id="21-15" x="20" y="14" width="1" height="1" shape-rendering="crispEdges" style="fill:#2c0f30;opacity:255;"></rect><rect id="22-15" x="21" y="14" width="1" height="1" shape-rendering="crispEdges" style="fill:#2c0f30;opacity:255;"></rect><rect id="23-15" x="22" y="14" width="1" height="1" shape-rendering="crispEdges" style="fill:#2c0f30;opacity:255;"></rect><rect id="24-15" x="23" y="14" width="1" height="1" shape-rendering="crispEdges" style="fill:#2c0f30;opacity:255;"></rect><rect id="25-15" x="24" y="14" width="1" height="1" shape-rendering="crispEdges" style="fill:#2c0f30;opacity:255;"></rect><rect id="26-15" x="25" y="14" width="1" height="1" shape-rendering="crispEdges" style="fill:#2c0f30;opacity:255;"></rect><rect id="27-15" x="26" y="14" width="1" height="1" shape-rendering="crispEdges" style="fill:#2c0f30;opacity:255;"></rect><rect id="28-15" x="27" y="14" width="1" height="1" shape-rendering="crispEdges" style="fill:#2c0f30;opacity:255;"></rect><rect id="2-16" x="1" y="15" width="1" height="1" shape-rendering="crispEdges" style="fill:#2c0f30;opacity:255;"></rect><rect id="3-16" x="2" y="15" width="1" height="1" shape-rendering="crispEdges" style="fill:#2c0f30;opacity:255;"></rect><rect id="4-16" x="3" y="15" width="1" height="1" shape-rendering="crispEdges" style="fill:#2c0f30;opacity:255;"></rect><rect id="5-16" x="4" y="15" width="1" height="1" shape-rendering="crispEdges" style="fill:#2c0f30;opacity:255;"></rect><rect id="6-16" x="5" y="15" width="1" height="1" shape-rendering="crispEdges" style="fill:#2c0f30;opacity:255;"></rect><rect id="7-16" x="6" y="15" width="1" height="1" shape-rendering="crispEdges" style="fill:#2c0f30;opacity:255;"></rect><rect id="8-16" x="7" y="15" width="1" height="1" shape-rendering="crispEdges" style="fill:#2c0f30;opacity:255;"></rect><rect id="9-16" x="8" y="15" width="1" height="1" shape-rendering="crispEdges" style="fill:#2c0f30;opacity:255;"></rect><rect id="10-16" x="9" y="15" width="1" height="1" shape-rendering="crispEdges" style="fill:#2c0f30;opacity:255;"></rect><rect id="11-16" x="10" y="15" width="1" height="1" shape-rendering="crispEdges" style="fill:#2c0f30;opacity:255;"></rect><rect id="12-16" x="11" y="15" width="1" height="1" shape-rendering="crispEdges" style="fill:#2c0f30;opacity:255;"></rect><rect id="13-16" x="12" y="15" width="1" height="1" shape-rendering="crispEdges" style="fill:#2c0f30;opacity:255;"></rect><rect id="14-16" x="13" y="15" width="1" height="1" shape-rendering="crispEdges" style="fill:#2c0f30;opacity:255;"></rect><rect id="15-16" x="14" y="15" width="1" height="1" shape-rendering="crispEdges" style="fill:#2c0f30;opacity:255;"></rect><rect id="16-16" x="15" y="15" width="1" height="1" shape-rendering="crispEdges" style="fill:#2c0f30;opacity:255;"></rect><rect id="17-16" x="16" y="15" width="1" height="1" shape-rendering="crispEdges" style="fill:#2c0f30;opacity:255;"></rect><rect id="18-16" x="17" y="15" width="1" height="1" shape-rendering="crispEdges" style="fill:#2c0f30;opacity:255;"></rect><rect id="19-16" x="18" y="15" width="1" height="1" shape-rendering="crispEdges" style="fill:#2c0f30;opacity:255;"></rect><rect id="20-16" x="19" y="15" width="1" height="1" shape-rendering="crispEdges" style="fill:#2c0f30;opacity:255;"></rect><rect id="21-16" x="20" y="15" width="1" height="1" shape-rendering="crispEdges" style="fill:#2c0f30;opacity:255;"></rect><rect id="22-16" x="21" y="15" width="1" height="1" shape-rendering="crispEdges" style="fill:#2c0f30;opacity:255;"></rect><rect id="23-16" x="22" y="15" width="1" height="1" shape-rendering="crispEdges" style="fill:#2c0f30;opacity:255;"></rect><rect id="24-16" x="23" y="15" width="1" height="1" shape-rendering="crispEdges" style="fill:#2c0f30;opacity:255;"></rect><rect id="25-16" x="24" y="15" width="1" height="1" shape-rendering="crispEdges" style="fill:#2c0f30;opacity:255;"></rect><rect id="26-16" x="25" y="15" width="1" height="1" shape-rendering="crispEdges" style="fill:#2c0f30;opacity:255;"></rect><rect id="27-16" x="26" y="15" width="1" height="1" shape-rendering="crispEdges" style="fill:#2c0f30;opacity:255;"></rect><rect id="28-16" x="27" y="15" width="1" height="1" shape-rendering="crispEdges" style="fill:#2c0f30;opacity:255;"></rect><rect id="29-16" x="28" y="15" width="1" height="1" shape-rendering="crispEdges" style="fill:#2c0f30;opacity:255;"></rect><rect id="30-16" x="29" y="15" width="1" height="1" shape-rendering="crispEdges" style="fill:#2c0f30;opacity:255;"></rect><rect id="2-17" x="1" y="16" width="1" height="1" shape-rendering="crispEdges" style="fill:#2c0f30;opacity:255;"></rect><rect id="3-17" x="2" y="16" width="1" height="1" shape-rendering="crispEdges" style="fill:#2c0f30;opacity:255;"></rect><rect id="4-17" x="3" y="16" width="1" height="1" shape-rendering="crispEdges" style="fill:#2c0f30;opacity:255;"></rect><rect id="5-17" x="4" y="16" width="1" height="1" shape-rendering="crispEdges" style="fill:#2c0f30;opacity:255;"></rect><rect id="6-17" x="5" y="16" width="1" height="1" shape-rendering="crispEdges" style="fill:#2c0f30;opacity:255;"></rect><rect id="7-17" x="6" y="16" width="1" height="1" shape-rendering="crispEdges" style="fill:#2c0f30;opacity:255;"></rect><rect id="8-17" x="7" y="16" width="1" height="1" shape-rendering="crispEdges" style="fill:#2c0f30;opacity:255;"></rect><rect id="9-17" x="8" y="16" width="1" height="1" shape-rendering="crispEdges" style="fill:#2c0f30;opacity:255;"></rect><rect id="10-17" x="9" y="16" width="1" height="1" shape-rendering="crispEdges" style="fill:#2c0f30;opacity:255;"></rect><rect id="11-17" x="10" y="16" width="1" height="1" shape-rendering="crispEdges" style="fill:#2c0f30;opacity:255;"></rect><rect id="12-17" x="11" y="16" width="1" height="1" shape-rendering="crispEdges" style="fill:#2c0f30;opacity:255;"></rect><rect id="13-17" x="12" y="16" width="1" height="1" shape-rendering="crispEdges" style="fill:#2c0f30;opacity:255;"></rect><rect id="14-17" x="13" y="16" width="1" height="1" shape-rendering="crispEdges" style="fill:#2c0f30;opacity:255;"></rect><rect id="15-17" x="14" y="16" width="1" height="1" shape-rendering="crispEdges" style="fill:#2c0f30;opacity:255;"></rect><rect id="16-17" x="15" y="16" width="1" height="1" shape-rendering="crispEdges" style="fill:#2c0f30;opacity:255;"></rect><rect id="17-17" x="16" y="16" width="1" height="1" shape-rendering="crispEdges" style="fill:#2c0f30;opacity:255;"></rect><rect id="18-17" x="17" y="16" width="1" height="1" shape-rendering="crispEdges" style="fill:#2c0f30;opacity:255;"></rect><rect id="19-17" x="18" y="16" width="1" height="1" shape-rendering="crispEdges" style="fill:#2c0f30;opacity:255;"></rect><rect id="20-17" x="19" y="16" width="1" height="1" shape-rendering="crispEdges" style="fill:#2c0f30;opacity:255;"></rect><rect id="21-17" x="20" y="16" width="1" height="1" shape-rendering="crispEdges" style="fill:#2c0f30;opacity:255;"></rect><rect id="22-17" x="21" y="16" width="1" height="1" shape-rendering="crispEdges" style="fill:#2c0f30;opacity:255;"></rect><rect id="23-17" x="22" y="16" width="1" height="1" shape-rendering="crispEdges" style="fill:#2c0f30;opacity:255;"></rect><rect id="24-17" x="23" y="16" width="1" height="1" shape-rendering="crispEdges" style="fill:#2c0f30;opacity:255;"></rect><rect id="25-17" x="24" y="16" width="1" height="1" shape-rendering="crispEdges" style="fill:#2c0f30;opacity:255;"></rect><rect id="26-17" x="25" y="16" width="1" height="1" shape-rendering="crispEdges" style="fill:#2c0f30;opacity:255;"></rect><rect id="27-17" x="26" y="16" width="1" height="1" shape-rendering="crispEdges" style="fill:#2c0f30;opacity:255;"></rect><rect id="28-17" x="27" y="16" width="1" height="1" shape-rendering="crispEdges" style="fill:#2c0f30;opacity:255;"></rect><rect id="29-17" x="28" y="16" width="1" height="1" shape-rendering="crispEdges" style="fill:#2c0f30;opacity:255;"></rect><rect id="30-17" x="29" y="16" width="1" height="1" shape-rendering="crispEdges" style="fill:#2c0f30;opacity:255;"></rect><rect id="2-18" x="1" y="17" width="1" height="1" shape-rendering="crispEdges" style="fill:#2c0f30;opacity:255;"></rect><rect id="3-18" x="2" y="17" width="1" height="1" shape-rendering="crispEdges" style="fill:#2c0f30;opacity:255;"></rect><rect id="4-18" x="3" y="17" width="1" height="1" shape-rendering="crispEdges" style="fill:#2c0f30;opacity:255;"></rect><rect id="5-18" x="4" y="17" width="1" height="1" shape-rendering="crispEdges" style="fill:#2c0f30;opacity:255;"></rect><rect id="6-18" x="5" y="17" width="1" height="1" shape-rendering="crispEdges" style="fill:#2c0f30;opacity:255;"></rect><rect id="7-18" x="6" y="17" width="1" height="1" shape-rendering="crispEdges" style="fill:#2c0f30;opacity:255;"></rect><rect id="8-18" x="7" y="17" width="1" height="1" shape-rendering="crispEdges" style="fill:#2c0f30;opacity:255;"></rect><rect id="9-18" x="8" y="17" width="1" height="1" shape-rendering="crispEdges" style="fill:#2c0f30;opacity:255;"></rect><rect id="10-18" x="9" y="17" width="1" height="1" shape-rendering="crispEdges" style="fill:#2c0f30;opacity:255;"></rect><rect id="11-18" x="10" y="17" width="1" height="1" shape-rendering="crispEdges" style="fill:#2c0f30;opacity:255;"></rect><rect id="12-18" x="11" y="17" width="1" height="1" shape-rendering="crispEdges" style="fill:#2c0f30;opacity:255;"></rect><rect id="13-18" x="12" y="17" width="1" height="1" shape-rendering="crispEdges" style="fill:#2c0f30;opacity:255;"></rect><rect id="14-18" x="13" y="17" width="1" height="1" shape-rendering="crispEdges" style="fill:#2c0f30;opacity:255;"></rect><rect id="15-18" x="14" y="17" width="1" height="1" shape-rendering="crispEdges" style="fill:#2c0f30;opacity:255;"></rect><rect id="16-18" x="15" y="17" width="1" height="1" shape-rendering="crispEdges" style="fill:#2c0f30;opacity:255;"></rect><rect id="17-18" x="16" y="17" width="1" height="1" shape-rendering="crispEdges" style="fill:#2c0f30;opacity:255;"></rect><rect id="18-18" x="17" y="17" width="1" height="1" shape-rendering="crispEdges" style="fill:#2c0f30;opacity:255;"></rect><rect id="19-18" x="18" y="17" width="1" height="1" shape-rendering="crispEdges" style="fill:#2c0f30;opacity:255;"></rect><rect id="20-18" x="19" y="17" width="1" height="1" shape-rendering="crispEdges" style="fill:#2c0f30;opacity:255;"></rect><rect id="21-18" x="20" y="17" width="1" height="1" shape-rendering="crispEdges" style="fill:#2c0f30;opacity:255;"></rect><rect id="22-18" x="21" y="17" width="1" height="1" shape-rendering="crispEdges" style="fill:#2c0f30;opacity:255;"></rect><rect id="23-18" x="22" y="17" width="1" height="1" shape-rendering="crispEdges" style="fill:#2c0f30;opacity:255;"></rect><rect id="24-18" x="23" y="17" width="1" height="1" shape-rendering="crispEdges" style="fill:#2c0f30;opacity:255;"></rect><rect id="25-18" x="24" y="17" width="1" height="1" shape-rendering="crispEdges" style="fill:#2c0f30;opacity:255;"></rect><rect id="26-18" x="25" y="17" width="1" height="1" shape-rendering="crispEdges" style="fill:#2c0f30;opacity:255;"></rect><rect id="27-18" x="26" y="17" width="1" height="1" shape-rendering="crispEdges" style="fill:#2c0f30;opacity:255;"></rect><rect id="28-18" x="27" y="17" width="1" height="1" shape-rendering="crispEdges" style="fill:#2c0f30;opacity:255;"></rect><rect id="2-19" x="1" y="18" width="1" height="1" shape-rendering="crispEdges" style="fill:#2c0f30;opacity:255;"></rect><rect id="3-19" x="2" y="18" width="1" height="1" shape-rendering="crispEdges" style="fill:#2c0f30;opacity:255;"></rect><rect id="4-19" x="3" y="18" width="1" height="1" shape-rendering="crispEdges" style="fill:#2c0f30;opacity:255;"></rect><rect id="5-19" x="4" y="18" width="1" height="1" shape-rendering="crispEdges" style="fill:#2c0f30;opacity:255;"></rect><rect id="6-19" x="5" y="18" width="1" height="1" shape-rendering="crispEdges" style="fill:#2c0f30;opacity:255;"></rect><rect id="7-19" x="6" y="18" width="1" height="1" shape-rendering="crispEdges" style="fill:#2c0f30;opacity:255;"></rect><rect id="8-19" x="7" y="18" width="1" height="1" shape-rendering="crispEdges" style="fill:#2c0f30;opacity:255;"></rect><rect id="9-19" x="8" y="18" width="1" height="1" shape-rendering="crispEdges" style="fill:#2c0f30;opacity:255;"></rect><rect id="10-19" x="9" y="18" width="1" height="1" shape-rendering="crispEdges" style="fill:#2c0f30;opacity:255;"></rect><rect id="11-19" x="10" y="18" width="1" height="1" shape-rendering="crispEdges" style="fill:#2c0f30;opacity:255;"></rect><rect id="12-19" x="11" y="18" width="1" height="1" shape-rendering="crispEdges" style="fill:#2c0f30;opacity:255;"></rect><rect id="13-19" x="12" y="18" width="1" height="1" shape-rendering="crispEdges" style="fill:#2c0f30;opacity:255;"></rect><rect id="14-19" x="13" y="18" width="1" height="1" shape-rendering="crispEdges" style="fill:#2c0f30;opacity:255;"></rect><rect id="15-19" x="14" y="18" width="1" height="1" shape-rendering="crispEdges" style="fill:#2c0f30;opacity:255;"></rect><rect id="16-19" x="15" y="18" width="1" height="1" shape-rendering="crispEdges" style="fill:#2c0f30;opacity:255;"></rect><rect id="17-19" x="16" y="18" width="1" height="1" shape-rendering="crispEdges" style="fill:#2c0f30;opacity:255;"></rect><rect id="18-19" x="17" y="18" width="1" height="1" shape-rendering="crispEdges" style="fill:#2c0f30;opacity:255;"></rect><rect id="19-19" x="18" y="18" width="1" height="1" shape-rendering="crispEdges" style="fill:#2c0f30;opacity:255;"></rect><rect id="20-19" x="19" y="18" width="1" height="1" shape-rendering="crispEdges" style="fill:#2c0f30;opacity:255;"></rect><rect id="21-19" x="20" y="18" width="1" height="1" shape-rendering="crispEdges" style="fill:#2c0f30;opacity:255;"></rect><rect id="22-19" x="21" y="18" width="1" height="1" shape-rendering="crispEdges" style="fill:#2c0f30;opacity:255;"></rect><rect id="23-19" x="22" y="18" width="1" height="1" shape-rendering="crispEdges" style="fill:#2c0f30;opacity:255;"></rect><rect id="24-19" x="23" y="18" width="1" height="1" shape-rendering="crispEdges" style="fill:#2c0f30;opacity:255;"></rect><rect id="25-19" x="24" y="18" width="1" height="1" shape-rendering="crispEdges" style="fill:#2c0f30;opacity:255;"></rect><rect id="26-19" x="25" y="18" width="1" height="1" shape-rendering="crispEdges" style="fill:#2c0f30;opacity:255;"></rect><rect id="27-19" x="26" y="18" width="1" height="1" shape-rendering="crispEdges" style="fill:#2c0f30;opacity:255;"></rect><rect id="28-19" x="27" y="18" width="1" height="1" shape-rendering="crispEdges" style="fill:#2c0f30;opacity:255;"></rect><rect id="2-20" x="1" y="19" width="1" height="1" shape-rendering="crispEdges" style="fill:#2c0f30;opacity:255;"></rect><rect id="3-20" x="2" y="19" width="1" height="1" shape-rendering="crispEdges" style="fill:#2c0f30;opacity:255;"></rect><rect id="4-20" x="3" y="19" width="1" height="1" shape-rendering="crispEdges" style="fill:#2c0f30;opacity:255;"></rect><rect id="5-20" x="4" y="19" width="1" height="1" shape-rendering="crispEdges" style="fill:#2c0f30;opacity:255;"></rect><rect id="6-20" x="5" y="19" width="1" height="1" shape-rendering="crispEdges" style="fill:#2c0f30;opacity:255;"></rect><rect id="7-20" x="6" y="19" width="1" height="1" shape-rendering="crispEdges" style="fill:#2c0f30;opacity:255;"></rect><rect id="8-20" x="7" y="19" width="1" height="1" shape-rendering="crispEdges" style="fill:#2c0f30;opacity:255;"></rect><rect id="9-20" x="8" y="19" width="1" height="1" shape-rendering="crispEdges" style="fill:#2c0f30;opacity:255;"></rect><rect id="10-20" x="9" y="19" width="1" height="1" shape-rendering="crispEdges" style="fill:#2c0f30;opacity:255;"></rect><rect id="11-20" x="10" y="19" width="1" height="1" shape-rendering="crispEdges" style="fill:#2c0f30;opacity:255;"></rect><rect id="12-20" x="11" y="19" width="1" height="1" shape-rendering="crispEdges" style="fill:#2c0f30;opacity:255;"></rect><rect id="13-20" x="12" y="19" width="1" height="1" shape-rendering="crispEdges" style="fill:#2c0f30;opacity:255;"></rect><rect id="14-20" x="13" y="19" width="1" height="1" shape-rendering="crispEdges" style="fill:#2c0f30;opacity:255;"></rect><rect id="15-20" x="14" y="19" width="1" height="1" shape-rendering="crispEdges" style="fill:#2c0f30;opacity:255;"></rect><rect id="16-20" x="15" y="19" width="1" height="1" shape-rendering="crispEdges" style="fill:#2c0f30;opacity:255;"></rect><rect id="17-20" x="16" y="19" width="1" height="1" shape-rendering="crispEdges" style="fill:#2c0f30;opacity:255;"></rect><rect id="18-20" x="17" y="19" width="1" height="1" shape-rendering="crispEdges" style="fill:#2c0f30;opacity:255;"></rect><rect id="19-20" x="18" y="19" width="1" height="1" shape-rendering="crispEdges" style="fill:#2c0f30;opacity:255;"></rect><rect id="20-20" x="19" y="19" width="1" height="1" shape-rendering="crispEdges" style="fill:#2c0f30;opacity:255;"></rect><rect id="21-20" x="20" y="19" width="1" height="1" shape-rendering="crispEdges" style="fill:#2c0f30;opacity:255;"></rect><rect id="22-20" x="21" y="19" width="1" height="1" shape-rendering="crispEdges" style="fill:#2c0f30;opacity:255;"></rect><rect id="23-20" x="22" y="19" width="1" height="1" shape-rendering="crispEdges" style="fill:#2c0f30;opacity:255;"></rect><rect id="24-20" x="23" y="19" width="1" height="1" shape-rendering="crispEdges" style="fill:#2c0f30;opacity:255;"></rect><rect id="25-20" x="24" y="19" width="1" height="1" shape-rendering="crispEdges" style="fill:#2c0f30;opacity:255;"></rect><rect id="26-20" x="25" y="19" width="1" height="1" shape-rendering="crispEdges" style="fill:#2c0f30;opacity:255;"></rect><rect id="27-20" x="26" y="19" width="1" height="1" shape-rendering="crispEdges" style="fill:#2c0f30;opacity:255;"></rect><rect id="28-20" x="27" y="19" width="1" height="1" shape-rendering="crispEdges" style="fill:#2c0f30;opacity:255;"></rect><rect id="16-21" x="15" y="20" width="1" height="1" shape-rendering="crispEdges" style="fill:#2c0f30;opacity:255;"></rect><rect id="17-21" x="16" y="20" width="1" height="1" shape-rendering="crispEdges" style="fill:#2c0f30;opacity:255;"></rect><rect id="18-21" x="17" y="20" width="1" height="1" shape-rendering="crispEdges" style="fill:#2c0f30;opacity:255;"></rect><rect id="19-21" x="18" y="20" width="1" height="1" shape-rendering="crispEdges" style="fill:#2c0f30;opacity:255;"></rect><rect id="20-21" x="19" y="20" width="1" height="1" shape-rendering="crispEdges" style="fill:#2c0f30;opacity:255;"></rect><rect id="21-21" x="20" y="20" width="1" height="1" shape-rendering="crispEdges" style="fill:#2c0f30;opacity:255;"></rect><rect id="22-21" x="21" y="20" width="1" height="1" shape-rendering="crispEdges" style="fill:#2c0f30;opacity:255;"></rect><rect id="23-21" x="22" y="20" width="1" height="1" shape-rendering="crispEdges" style="fill:#2c0f30;opacity:255;"></rect><rect id="24-21" x="23" y="20" width="1" height="1" shape-rendering="crispEdges" style="fill:#2c0f30;opacity:255;"></rect><rect id="25-21" x="24" y="20" width="1" height="1" shape-rendering="crispEdges" style="fill:#2c0f30;opacity:255;"></rect><rect id="16-22" x="15" y="21" width="1" height="1" shape-rendering="crispEdges" style="fill:#2c0f30;opacity:255;"></rect><rect id="17-22" x="16" y="21" width="1" height="1" shape-rendering="crispEdges" style="fill:#2c0f30;opacity:255;"></rect><rect id="18-22" x="17" y="21" width="1" height="1" shape-rendering="crispEdges" style="fill:#2c0f30;opacity:255;"></rect><rect id="19-22" x="18" y="21" width="1" height="1" shape-rendering="crispEdges" style="fill:#2c0f30;opacity:255;"></rect><rect id="20-22" x="19" y="21" width="1" height="1" shape-rendering="crispEdges" style="fill:#2c0f30;opacity:255;"></rect><rect id="21-22" x="20" y="21" width="1" height="1" shape-rendering="crispEdges" style="fill:#2c0f30;opacity:255;"></rect><rect id="22-22" x="21" y="21" width="1" height="1" shape-rendering="crispEdges" style="fill:#2c0f30;opacity:255;"></rect><rect id="23-22" x="22" y="21" width="1" height="1" shape-rendering="crispEdges" style="fill:#2c0f30;opacity:255;"></rect><rect id="24-22" x="23" y="21" width="1" height="1" shape-rendering="crispEdges" style="fill:#2c0f30;opacity:255;"></rect><rect id="25-22" x="24" y="21" width="1" height="1" shape-rendering="crispEdges" style="fill:#2c0f30;opacity:255;"></rect><rect id="16-23" x="15" y="22" width="1" height="1" shape-rendering="crispEdges" style="fill:#2c0f30;opacity:255;"></rect><rect id="17-23" x="16" y="22" width="1" height="1" shape-rendering="crispEdges" style="fill:#2c0f30;opacity:255;"></rect><rect id="18-23" x="17" y="22" width="1" height="1" shape-rendering="crispEdges" style="fill:#2c0f30;opacity:255;"></rect><rect id="19-23" x="18" y="22" width="1" height="1" shape-rendering="crispEdges" style="fill:#2c0f30;opacity:255;"></rect><rect id="20-23" x="19" y="22" width="1" height="1" shape-rendering="crispEdges" style="fill:#2c0f30;opacity:255;"></rect><rect id="21-23" x="20" y="22" width="1" height="1" shape-rendering="crispEdges" style="fill:#2c0f30;opacity:255;"></rect><rect id="22-23" x="21" y="22" width="1" height="1" shape-rendering="crispEdges" style="fill:#2c0f30;opacity:255;"></rect><rect id="23-23" x="22" y="22" width="1" height="1" shape-rendering="crispEdges" style="fill:#2c0f30;opacity:255;"></rect><rect id="16-24" x="15" y="23" width="1" height="1" shape-rendering="crispEdges" style="fill:#2c0f30;opacity:255;"></rect><rect id="17-24" x="16" y="23" width="1" height="1" shape-rendering="crispEdges" style="fill:#2c0f30;opacity:255;"></rect><rect id="18-24" x="17" y="23" width="1" height="1" shape-rendering="crispEdges" style="fill:#2c0f30;opacity:255;"></rect><rect id="19-24" x="18" y="23" width="1" height="1" shape-rendering="crispEdges" style="fill:#2c0f30;opacity:255;"></rect><rect id="20-24" x="19" y="23" width="1" height="1" shape-rendering="crispEdges" style="fill:#2c0f30;opacity:255;"></rect><rect id="21-24" x="20" y="23" width="1" height="1" shape-rendering="crispEdges" style="fill:#2c0f30;opacity:255;"></rect><rect id="22-24" x="21" y="23" width="1" height="1" shape-rendering="crispEdges" style="fill:#2c0f30;opacity:255;"></rect><rect id="23-24" x="22" y="23" width="1" height="1" shape-rendering="crispEdges" style="fill:#2c0f30;opacity:255;"></rect><rect id="16-25" x="15" y="24" width="1" height="1" shape-rendering="crispEdges" style="fill:#2c0f30;opacity:255;"></rect><rect id="17-25" x="16" y="24" width="1" height="1" shape-rendering="crispEdges" style="fill:#2c0f30;opacity:255;"></rect><rect id="18-25" x="17" y="24" width="1" height="1" shape-rendering="crispEdges" style="fill:#2c0f30;opacity:255;"></rect><rect id="19-25" x="18" y="24" width="1" height="1" shape-rendering="crispEdges" style="fill:#2c0f30;opacity:255;"></rect><rect id="20-25" x="19" y="24" width="1" height="1" shape-rendering="crispEdges" style="fill:#2c0f30;opacity:255;"></rect><rect id="16-26" x="15" y="25" width="1" height="1" shape-rendering="crispEdges" style="fill:#2c0f30;opacity:255;"></rect><rect id="17-26" x="16" y="25" width="1" height="1" shape-rendering="crispEdges" style="fill:#2c0f30;opacity:255;"></rect><rect id="18-26" x="17" y="25" width="1" height="1" shape-rendering="crispEdges" style="fill:#2c0f30;opacity:255;"></rect><rect id="19-26" x="18" y="25" width="1" height="1" shape-rendering="crispEdges" style="fill:#2c0f30;opacity:255;"></rect><rect id="20-26" x="19" y="25" width="1" height="1" shape-rendering="crispEdges" style="fill:#2c0f30;opacity:255;"></rect><rect id="16-27" x="15" y="26" width="1" height="1" shape-rendering="crispEdges" style="fill:#2c0f30;opacity:255;"></rect><rect id="17-27" x="16" y="26" width="1" height="1" shape-rendering="crispEdges" style="fill:#2c0f30;opacity:255;"></rect><rect id="18-27" x="17" y="26" width="1" height="1" shape-rendering="crispEdges" style="fill:#2c0f30;opacity:255;"></rect><rect id="19-27" x="18" y="26" width="1" height="1" shape-rendering="crispEdges" style="fill:#2c0f30;opacity:255;"></rect><rect id="20-27" x="19" y="26" width="1" height="1" shape-rendering="crispEdges" style="fill:#2c0f30;opacity:255;"></rect><rect id="16-28" x="15" y="27" width="1" height="1" shape-rendering="crispEdges" style="fill:#2c0f30;opacity:255;"></rect><rect id="17-28" x="16" y="27" width="1" height="1" shape-rendering="crispEdges" style="fill:#2c0f30;opacity:255;"></rect><rect id="18-28" x="17" y="27" width="1" height="1" shape-rendering="crispEdges" style="fill:#2c0f30;opacity:255;"></rect><rect id="16-29" x="15" y="28" width="1" height="1" shape-rendering="crispEdges" style="fill:#2c0f30;opacity:255;"></rect><rect id="17-29" x="16" y="28" width="1" height="1" shape-rendering="crispEdges" style="fill:#2c0f30;opacity:255;"></rect><rect id="18-29" x="17" y="28" width="1" height="1" shape-rendering="crispEdges" style="fill:#2c0f30;opacity:255;"></rect></svg>