<svg width="194" height="66" viewBox="0 0 194 66" fill="none" xmlns="http://www.w3.org/2000/svg">
<path d="M2.44 42.44V16.48H14.6V19.92H18.12V23.32H21.68V35.6H18.12V39.04H14.6V42.44H2.44ZM7.52 37H13.04V33.56H16.56V25.36H13.04V21.96H7.52V37ZM30.0616 42.44V39.04H26.5416V26.76H30.0616V23.32H42.2216V26.76H45.7816V37H49.3416V42.44H44.2216V39.04H42.2216V42.44H30.0616ZM31.6216 37H40.6616V28.76H31.6216V37ZM53.0259 42.44V23.32H58.1059V42.44H53.0259ZM53.0259 21.96V16.48H58.1059V21.96H53.0259ZM62.9869 42.44V16.48H68.0669V42.44H62.9869ZM75.6866 49.28V45.88H72.1666V40.44H77.2466V43.84H86.3266V39.04H75.6866V35.6H72.1666V23.32H77.2466V33.56H86.3266V23.32H91.4066V45.88H87.8866V49.28H75.6866ZM96.2681 42.44V37H110.388V35.6H99.7881V32.16H96.2681V26.76H99.7881V23.32H115.508V28.76H101.348V30.12H111.948V33.56H115.508V39.04H111.948V42.44H96.2681ZM127.41 42.44V39.04H123.89V28.76H120.37V23.32H123.89V16.48H128.97V23.32H139.61V28.76H128.97V37H138.05V33.56H143.17V39.04H139.61V42.44H127.41Z" fill="url(#paint0_linear_56_6)"/>
<path d="M183.043 0H181.217V1.90909H183.043V0Z" fill="#D65A7C"/>
<path d="M184.87 0H183.043V1.90909H184.87V0Z" fill="#D65A7C"/>
<path d="M181.217 1.90909H179.391V3.81818H181.217V1.90909Z" fill="#E892AA"/>
<path d="M183.043 1.90909H181.217V3.81818H183.043V1.90909Z" fill="#D65A7C"/>
<path d="M184.87 1.90909H183.043V3.81818H184.87V1.90909Z" fill="#D65A7C"/>
<path d="M186.696 1.90909H184.87V3.81818H186.696V1.90909Z" fill="#D65A7C"/>
<path d="M179.391 3.81818H177.565V5.72727H179.391V3.81818Z" fill="#E892AA"/>
<path d="M181.217 3.81818H179.391V5.72727H181.217V3.81818Z" fill="#E892AA"/>
<path d="M183.043 3.81818H181.217V5.72727H183.043V3.81818Z" fill="#E892AA"/>
<path d="M184.87 3.81818H183.043V5.72727H184.87V3.81818Z" fill="#D65A7C"/>
<path d="M186.696 3.81818H184.87V5.72727H186.696V3.81818Z" fill="#D65A7C"/>
<path d="M188.522 3.81818H186.696V5.72727H188.522V3.81818Z" fill="#D65A7C"/>
<path d="M175.739 5.72727H173.913V7.63636H175.739V5.72727Z" fill="black"/>
<path d="M177.565 5.72727H175.739V7.63636H177.565V5.72727Z" fill="black"/>
<path d="M179.391 5.72727H177.565V7.63636H179.391V5.72727Z" fill="#E892AA"/>
<path d="M181.217 5.72727H179.391V7.63636H181.217V5.72727Z" fill="#E892AA"/>
<path d="M183.043 5.72727H181.217V7.63636H183.043V5.72727Z" fill="#E892AA"/>
<path d="M184.87 5.72727H183.043V7.63636H184.87V5.72727Z" fill="#EE7596"/>
<path d="M186.696 5.72727H184.87V7.63636H186.696V5.72727Z" fill="#D65A7C"/>
<path d="M188.522 5.72727H186.696V7.63636H188.522V5.72727Z" fill="#D65A7C"/>
<path d="M190.348 5.72727H188.522V7.63636H190.348V5.72727Z" fill="#D65A7C"/>
<path d="M173.913 7.63637H172.087V9.54546H173.913V7.63637Z" fill="#F3B35A"/>
<path d="M175.739 7.63637H173.913V9.54546H175.739V7.63637Z" fill="#F3B35A"/>
<path d="M177.565 7.63637H175.739V9.54546H177.565V7.63637Z" fill="#F3B35A"/>
<path d="M179.391 7.63637H177.565V9.54546H179.391V7.63637Z" fill="black"/>
<path d="M181.217 7.63637H179.391V9.54546H181.217V7.63637Z" fill="#E892AA"/>
<path d="M183.043 7.63637H181.217V9.54546H183.043V7.63637Z" fill="#EE7596"/>
<path d="M184.87 7.63637H183.043V9.54546H184.87V7.63637Z" fill="#EE7596"/>
<path d="M186.696 7.63637H184.87V9.54546H186.696V7.63637Z" fill="#EE7596"/>
<path d="M188.522 7.63637H186.696V9.54546H188.522V7.63637Z" fill="#D65A7C"/>
<path d="M190.348 7.63637H188.522V9.54546H190.348V7.63637Z" fill="#D65A7C"/>
<path d="M192.174 7.63637H190.348V9.54546H192.174V7.63637Z" fill="#D65A7C"/>
<path d="M172.087 9.54546H170.261V11.4545H172.087V9.54546Z" fill="#F3B35A"/>
<path d="M173.913 9.54546H172.087V11.4545H173.913V9.54546Z" fill="#F3B35A"/>
<path d="M175.739 9.54546H173.913V11.4545H175.739V9.54546Z" fill="#F3B35A"/>
<path d="M177.565 9.54546H175.739V11.4545H177.565V9.54546Z" fill="#F3B35A"/>
<path d="M179.391 9.54546H177.565V11.4545H179.391V9.54546Z" fill="black"/>
<path d="M181.217 9.54546H179.391V11.4545H181.217V9.54546Z" fill="#EE7596"/>
<path d="M183.043 9.54546H181.217V11.4545H183.043V9.54546Z" fill="#EE7596"/>
<path d="M184.87 9.54546H183.043V11.4545H184.87V9.54546Z" fill="#EE7596"/>
<path d="M186.696 9.54546H184.87V11.4545H186.696V9.54546Z" fill="#EE7596"/>
<path d="M188.522 9.54546H186.696V11.4545H188.522V9.54546Z" fill="#EE7596"/>
<path d="M190.348 9.54546H188.522V11.4545H190.348V9.54546Z" fill="#D65A7C"/>
<path d="M192.174 9.54546H190.348V11.4545H192.174V9.54546Z" fill="#D65A7C"/>
<path d="M194 9.54546H192.174V11.4545H194V9.54546Z" fill="#D65A7C"/>
<path d="M170.261 11.4545H168.435V13.3636H170.261V11.4545Z" fill="#F3B35A"/>
<path d="M172.087 11.4545H170.261V13.3636H172.087V11.4545Z" fill="#F3B35A"/>
<path d="M173.913 11.4545H172.087V13.3636H173.913V11.4545Z" fill="#F3B35A"/>
<path d="M175.739 11.4545H173.913V13.3636H175.739V11.4545Z" fill="#F3B35A"/>
<path d="M177.565 11.4545H175.739V13.3636H177.565V11.4545Z" fill="#FF9F1A"/>
<path d="M179.391 11.4545H177.565V13.3636H179.391V11.4545Z" fill="#FF9F1A"/>
<path d="M181.217 11.4545H179.391V13.3636H181.217V11.4545Z" fill="black"/>
<path d="M183.043 11.4545H181.217V13.3636H183.043V11.4545Z" fill="#EE7596"/>
<path d="M184.87 11.4545H183.043V13.3636H184.87V11.4545Z" fill="#EE7596"/>
<path d="M186.696 11.4545H184.87V13.3636H186.696V11.4545Z" fill="#EE7596"/>
<path d="M188.522 11.4545H186.696V13.3636H188.522V11.4545Z" fill="#EE537D"/>
<path d="M190.348 11.4545H188.522V13.3636H190.348V11.4545Z" fill="#EE537D"/>
<path d="M192.174 11.4545H190.348V13.3636H192.174V11.4545Z" fill="#D65A7C"/>
<path d="M194 11.4545H192.174V13.3636H194V11.4545Z" fill="#D65A7C"/>
<path d="M168.435 13.3636H166.609V15.2727H168.435V13.3636Z" fill="#F3B35A"/>
<path d="M170.261 13.3636H168.435V15.2727H170.261V13.3636Z" fill="#F3B35A"/>
<path d="M172.087 13.3636H170.261V15.2727H172.087V13.3636Z" fill="#F3B35A"/>
<path d="M173.913 13.3636H172.087V15.2727H173.913V13.3636Z" fill="#F3B35A"/>
<path d="M175.739 13.3636H173.913V15.2727H175.739V13.3636Z" fill="#FF9F1A"/>
<path d="M177.565 13.3636H175.739V15.2727H177.565V13.3636Z" fill="#FF9F1A"/>
<path d="M179.391 13.3636H177.565V15.2727H179.391V13.3636Z" fill="#FF9F1A"/>
<path d="M181.217 13.3636H179.391V15.2727H181.217V13.3636Z" fill="#FF9F1A"/>
<path d="M183.043 13.3636H181.217V15.2727H183.043V13.3636Z" fill="black"/>
<path d="M184.87 13.3636H183.043V15.2727H184.87V13.3636Z" fill="#EE7596"/>
<path d="M186.696 13.3636H184.87V15.2727H186.696V13.3636Z" fill="#EE537D"/>
<path d="M188.522 13.3636H186.696V15.2727H188.522V13.3636Z" fill="#EE537D"/>
<path d="M190.348 13.3636H188.522V15.2727H190.348V13.3636Z" fill="#EE537D"/>
<path d="M192.174 13.3636H190.348V15.2727H192.174V13.3636Z" fill="#EE537D"/>
<path d="M166.609 15.2727H164.783V17.1818H166.609V15.2727Z" fill="#F3B35A"/>
<path d="M168.435 15.2727H166.609V17.1818H168.435V15.2727Z" fill="#F3B35A"/>
<path d="M170.261 15.2727H168.435V17.1818H170.261V15.2727Z" fill="#F3B35A"/>
<path d="M172.087 15.2727H170.261V17.1818H172.087V15.2727Z" fill="#F3B35A"/>
<path d="M173.913 15.2727H172.087V17.1818H173.913V15.2727Z" fill="#FF9F1A"/>
<path d="M175.739 15.2727H173.913V17.1818H175.739V15.2727Z" fill="#FF9F1A"/>
<path d="M177.565 15.2727H175.739V17.1818H177.565V15.2727Z" fill="#FF9F1A"/>
<path d="M179.391 15.2727H177.565V17.1818H179.391V15.2727Z" fill="#FF9F1A"/>
<path d="M181.217 15.2727H179.391V17.1818H181.217V15.2727Z" fill="#FF9F1A"/>
<path d="M183.043 15.2727H181.217V17.1818H183.043V15.2727Z" fill="black"/>
<path d="M184.87 15.2727H183.043V17.1818H184.87V15.2727Z" fill="black"/>
<path d="M186.696 15.2727H184.87V17.1818H186.696V15.2727Z" fill="#EE537D"/>
<path d="M188.522 15.2727H186.696V17.1818H188.522V15.2727Z" fill="#EE537D"/>
<path d="M190.348 15.2727H188.522V17.1818H190.348V15.2727Z" fill="#EE537D"/>
<path d="M164.783 17.1818H162.957V19.0909H164.783V17.1818Z" fill="#F3B35A"/>
<path d="M166.609 17.1818H164.783V19.0909H166.609V17.1818Z" fill="#F3B35A"/>
<path d="M168.435 17.1818H166.609V19.0909H168.435V17.1818Z" fill="#F3B35A"/>
<path d="M170.261 17.1818H168.435V19.0909H170.261V17.1818Z" fill="#F3B35A"/>
<path d="M172.087 17.1818H170.261V19.0909H172.087V17.1818Z" fill="#FF9F1A"/>
<path d="M173.913 17.1818H172.087V19.0909H173.913V17.1818Z" fill="#FF9F1A"/>
<path d="M175.739 17.1818H173.913V19.0909H175.739V17.1818Z" fill="#FF9F1A"/>
<path d="M177.565 17.1818H175.739V19.0909H177.565V17.1818Z" fill="#FF9F1A"/>
<path d="M179.391 17.1818H177.565V19.0909H179.391V17.1818Z" fill="#FF9F1A"/>
<path d="M181.217 17.1818H179.391V19.0909H181.217V17.1818Z" fill="#E28300"/>
<path d="M183.043 17.1818H181.217V19.0909H183.043V17.1818Z" fill="#E28300"/>
<path d="M184.87 17.1818H183.043V19.0909H184.87V17.1818Z" fill="#E28300"/>
<path d="M186.696 17.1818H184.87V19.0909H186.696V17.1818Z" fill="black"/>
<path d="M188.522 17.1818H186.696V19.0909H188.522V17.1818Z" fill="#EE537D"/>
<path d="M162.957 19.0909H161.13V21H162.957V19.0909Z" fill="#F3B35A"/>
<path d="M164.783 19.0909H162.957V21H164.783V19.0909Z" fill="#F3B35A"/>
<path d="M166.609 19.0909H164.783V21H166.609V19.0909Z" fill="#F3B35A"/>
<path d="M168.435 19.0909H166.609V21H168.435V19.0909Z" fill="#F3B35A"/>
<path d="M170.261 19.0909H168.435V21H170.261V19.0909Z" fill="#FF9F1A"/>
<path d="M172.087 19.0909H170.261V21H172.087V19.0909Z" fill="#FF9F1A"/>
<path d="M173.913 19.0909H172.087V21H173.913V19.0909Z" fill="#FF9F1A"/>
<path d="M175.739 19.0909H173.913V21H175.739V19.0909Z" fill="#FF9F1A"/>
<path d="M177.565 19.0909H175.739V21H177.565V19.0909Z" fill="#FF9F1A"/>
<path d="M179.391 19.0909H177.565V21H179.391V19.0909Z" fill="#E28300"/>
<path d="M181.217 19.0909H179.391V21H181.217V19.0909Z" fill="#E28300"/>
<path d="M183.043 19.0909H181.217V21H183.043V19.0909Z" fill="#E28300"/>
<path d="M184.87 19.0909H183.043V21H184.87V19.0909Z" fill="#E28300"/>
<path d="M186.696 19.0909H184.87V21H186.696V19.0909Z" fill="black"/>
<path d="M161.13 21H159.304V22.9091H161.13V21Z" fill="#F3B35A"/>
<path d="M162.957 21H161.13V22.9091H162.957V21Z" fill="#F3B35A"/>
<path d="M164.783 21H162.957V22.9091H164.783V21Z" fill="#F3B35A"/>
<path d="M166.609 21H164.783V22.9091H166.609V21Z" fill="#F3B35A"/>
<path d="M168.435 21H166.609V22.9091H168.435V21Z" fill="#FF9F1A"/>
<path d="M170.261 21H168.435V22.9091H170.261V21Z" fill="#FF9F1A"/>
<path d="M172.087 21H170.261V22.9091H172.087V21Z" fill="#FF9F1A"/>
<path d="M173.913 21H172.087V22.9091H173.913V21Z" fill="#FF9F1A"/>
<path d="M175.739 21H173.913V22.9091H175.739V21Z" fill="#FF9F1A"/>
<path d="M177.565 21H175.739V22.9091H177.565V21Z" fill="#E28300"/>
<path d="M179.391 21H177.565V22.9091H179.391V21Z" fill="#E28300"/>
<path d="M181.217 21H179.391V22.9091H181.217V21Z" fill="#E28300"/>
<path d="M183.043 21H181.217V22.9091H183.043V21Z" fill="#E28300"/>
<path d="M184.87 21H183.043V22.9091H184.87V21Z" fill="#E28300"/>
<path d="M159.304 22.9091H157.478V24.8182H159.304V22.9091Z" fill="#F3B35A"/>
<path d="M161.13 22.9091H159.304V24.8182H161.13V22.9091Z" fill="#F3B35A"/>
<path d="M162.957 22.9091H161.13V24.8182H162.957V22.9091Z" fill="#F3B35A"/>
<path d="M164.783 22.9091H162.957V24.8182H164.783V22.9091Z" fill="#F3B35A"/>
<path d="M166.609 22.9091H164.783V24.8182H166.609V22.9091Z" fill="#FF9F1A"/>
<path d="M168.435 22.9091H166.609V24.8182H168.435V22.9091Z" fill="#FF9F1A"/>
<path d="M170.261 22.9091H168.435V24.8182H170.261V22.9091Z" fill="#FF9F1A"/>
<path d="M172.087 22.9091H170.261V24.8182H172.087V22.9091Z" fill="#FF9F1A"/>
<path d="M173.913 22.9091H172.087V24.8182H173.913V22.9091Z" fill="#FF9F1A"/>
<path d="M175.739 22.9091H173.913V24.8182H175.739V22.9091Z" fill="#E28300"/>
<path d="M177.565 22.9091H175.739V24.8182H177.565V22.9091Z" fill="#E28300"/>
<path d="M179.391 22.9091H177.565V24.8182H179.391V22.9091Z" fill="#E28300"/>
<path d="M181.217 22.9091H179.391V24.8182H181.217V22.9091Z" fill="#E28300"/>
<path d="M183.043 22.9091H181.217V24.8182H183.043V22.9091Z" fill="#E28300"/>
<path d="M157.478 24.8182H155.652V26.7273H157.478V24.8182Z" fill="#F3B35A"/>
<path d="M159.304 24.8182H157.478V26.7273H159.304V24.8182Z" fill="#F3B35A"/>
<path d="M161.13 24.8182H159.304V26.7273H161.13V24.8182Z" fill="#F3B35A"/>
<path d="M162.957 24.8182H161.13V26.7273H162.957V24.8182Z" fill="#F3B35A"/>
<path d="M164.783 24.8182H162.957V26.7273H164.783V24.8182Z" fill="#FF9F1A"/>
<path d="M166.609 24.8182H164.783V26.7273H166.609V24.8182Z" fill="#FF9F1A"/>
<path d="M168.435 24.8182H166.609V26.7273H168.435V24.8182Z" fill="#FF9F1A"/>
<path d="M170.261 24.8182H168.435V26.7273H170.261V24.8182Z" fill="#FF9F1A"/>
<path d="M172.087 24.8182H170.261V26.7273H172.087V24.8182Z" fill="#FF9F1A"/>
<path d="M173.913 24.8182H172.087V26.7273H173.913V24.8182Z" fill="#E28300"/>
<path d="M175.739 24.8182H173.913V26.7273H175.739V24.8182Z" fill="#E28300"/>
<path d="M177.565 24.8182H175.739V26.7273H177.565V24.8182Z" fill="#E28300"/>
<path d="M179.391 24.8182H177.565V26.7273H179.391V24.8182Z" fill="#E28300"/>
<path d="M181.217 24.8182H179.391V26.7273H181.217V24.8182Z" fill="#E28300"/>
<path d="M155.652 26.7273H153.826V28.6364H155.652V26.7273Z" fill="#F3B35A"/>
<path d="M157.478 26.7273H155.652V28.6364H157.478V26.7273Z" fill="#F3B35A"/>
<path d="M159.304 26.7273H157.478V28.6364H159.304V26.7273Z" fill="#F3B35A"/>
<path d="M161.13 26.7273H159.304V28.6364H161.13V26.7273Z" fill="#F3B35A"/>
<path d="M162.957 26.7273H161.13V28.6364H162.957V26.7273Z" fill="#FF9F1A"/>
<path d="M164.783 26.7273H162.957V28.6364H164.783V26.7273Z" fill="#FF9F1A"/>
<path d="M166.609 26.7273H164.783V28.6364H166.609V26.7273Z" fill="#FF9F1A"/>
<path d="M168.435 26.7273H166.609V28.6364H168.435V26.7273Z" fill="#FF9F1A"/>
<path d="M170.261 26.7273H168.435V28.6364H170.261V26.7273Z" fill="#FF9F1A"/>
<path d="M172.087 26.7273H170.261V28.6364H172.087V26.7273Z" fill="#E28300"/>
<path d="M173.913 26.7273H172.087V28.6364H173.913V26.7273Z" fill="#E28300"/>
<path d="M175.739 26.7273H173.913V28.6364H175.739V26.7273Z" fill="#E28300"/>
<path d="M177.565 26.7273H175.739V28.6364H177.565V26.7273Z" fill="#E28300"/>
<path d="M179.391 26.7273H177.565V28.6364H179.391V26.7273Z" fill="#E28300"/>
<path d="M153.826 28.6364H152V30.5455H153.826V28.6364Z" fill="black"/>
<path d="M155.652 28.6364H153.826V30.5455H155.652V28.6364Z" fill="black"/>
<path d="M157.478 28.6364H155.652V30.5455H157.478V28.6364Z" fill="black"/>
<path d="M159.304 28.6364H157.478V30.5455H159.304V28.6364Z" fill="#F3B35A"/>
<path d="M161.13 28.6364H159.304V30.5455H161.13V28.6364Z" fill="#FF9F1A"/>
<path d="M162.957 28.6364H161.13V30.5455H162.957V28.6364Z" fill="#FF9F1A"/>
<path d="M164.783 28.6364H162.957V30.5455H164.783V28.6364Z" fill="#FF9F1A"/>
<path d="M166.609 28.6364H164.783V30.5455H166.609V28.6364Z" fill="#FF9F1A"/>
<path d="M168.435 28.6364H166.609V30.5455H168.435V28.6364Z" fill="#FF9F1A"/>
<path d="M170.261 28.6364H168.435V30.5455H170.261V28.6364Z" fill="#E28300"/>
<path d="M172.087 28.6364H170.261V30.5455H172.087V28.6364Z" fill="#E28300"/>
<path d="M173.913 28.6364H172.087V30.5455H173.913V28.6364Z" fill="#E28300"/>
<path d="M175.739 28.6364H173.913V30.5455H175.739V28.6364Z" fill="#E28300"/>
<path d="M177.565 28.6364H175.739V30.5455H177.565V28.6364Z" fill="#E28300"/>
<path d="M153.826 30.5455H152V32.4545H153.826V30.5455Z" fill="#F3B35A"/>
<path d="M155.652 30.5455H153.826V32.4545H155.652V30.5455Z" fill="#F3B35A"/>
<path d="M157.478 30.5455H155.652V32.4545H157.478V30.5455Z" fill="black"/>
<path d="M159.304 30.5455H157.478V32.4545H159.304V30.5455Z" fill="black"/>
<path d="M161.13 30.5455H159.304V32.4545H161.13V30.5455Z" fill="#FF9F1A"/>
<path d="M162.957 30.5455H161.13V32.4545H162.957V30.5455Z" fill="#FF9F1A"/>
<path d="M164.783 30.5455H162.957V32.4545H164.783V30.5455Z" fill="#FF9F1A"/>
<path d="M166.609 30.5455H164.783V32.4545H166.609V30.5455Z" fill="#FF9F1A"/>
<path d="M168.435 30.5455H166.609V32.4545H168.435V30.5455Z" fill="#E28300"/>
<path d="M170.261 30.5455H168.435V32.4545H170.261V30.5455Z" fill="#E28300"/>
<path d="M172.087 30.5455H170.261V32.4545H172.087V30.5455Z" fill="#E28300"/>
<path d="M173.913 30.5455H172.087V32.4545H173.913V30.5455Z" fill="#E28300"/>
<path d="M175.739 30.5455H173.913V32.4545H175.739V30.5455Z" fill="#E28300"/>
<path d="M153.826 32.4545H152V34.3636H153.826V32.4545Z" fill="#F3B35A"/>
<path d="M155.652 32.4545H153.826V34.3636H155.652V32.4545Z" fill="#F3B35A"/>
<path d="M157.478 32.4545H155.652V34.3636H157.478V32.4545Z" fill="#FF9F1A"/>
<path d="M159.304 32.4545H157.478V34.3636H159.304V32.4545Z" fill="black"/>
<path d="M161.13 32.4545H159.304V34.3636H161.13V32.4545Z" fill="black"/>
<path d="M162.957 32.4545H161.13V34.3636H162.957V32.4545Z" fill="#FF9F1A"/>
<path d="M164.783 32.4545H162.957V34.3636H164.783V32.4545Z" fill="#FF9F1A"/>
<path d="M166.609 32.4545H164.783V34.3636H166.609V32.4545Z" fill="#E28300"/>
<path d="M168.435 32.4545H166.609V34.3636H168.435V32.4545Z" fill="#E28300"/>
<path d="M170.261 32.4545H168.435V34.3636H170.261V32.4545Z" fill="#E28300"/>
<path d="M172.087 32.4545H170.261V34.3636H172.087V32.4545Z" fill="#E28300"/>
<path d="M173.913 32.4545H172.087V34.3636H173.913V32.4545Z" fill="#E28300"/>
<path d="M153.826 34.3636H152V36.2727H153.826V34.3636Z" fill="#F3B35A"/>
<path d="M155.652 34.3636H153.826V36.2727H155.652V34.3636Z" fill="#F3B35A"/>
<path d="M157.478 34.3636H155.652V36.2727H157.478V34.3636Z" fill="#FF9F1A"/>
<path d="M159.304 34.3636H157.478V36.2727H159.304V34.3636Z" fill="#FF9F1A"/>
<path d="M161.13 34.3636H159.304V36.2727H161.13V34.3636Z" fill="black"/>
<path d="M162.957 34.3636H161.13V36.2727H162.957V34.3636Z" fill="black"/>
<path d="M164.783 34.3636H162.957V36.2727H164.783V34.3636Z" fill="#E28300"/>
<path d="M166.609 34.3636H164.783V36.2727H166.609V34.3636Z" fill="#E28300"/>
<path d="M168.435 34.3636H166.609V36.2727H168.435V34.3636Z" fill="#E28300"/>
<path d="M170.261 34.3636H168.435V36.2727H170.261V34.3636Z" fill="#E28300"/>
<path d="M172.087 34.3636H170.261V36.2727H172.087V34.3636Z" fill="#E28300"/>
<path d="M153.826 36.2727H152V38.1818H153.826V36.2727Z" fill="#6E4260"/>
<path d="M155.652 36.2727H153.826V38.1818H155.652V36.2727Z" fill="#FF9F1A"/>
<path d="M157.478 36.2727H155.652V38.1818H157.478V36.2727Z" fill="#FF9F1A"/>
<path d="M159.304 36.2727H157.478V38.1818H159.304V36.2727Z" fill="#FF9F1A"/>
<path d="M161.13 36.2727H159.304V38.1818H161.13V36.2727Z" fill="#E28300"/>
<path d="M162.957 36.2727H161.13V38.1818H162.957V36.2727Z" fill="black"/>
<path d="M164.783 36.2727H162.957V38.1818H164.783V36.2727Z" fill="black"/>
<path d="M166.609 36.2727H164.783V38.1818H166.609V36.2727Z" fill="#E28300"/>
<path d="M168.435 36.2727H166.609V38.1818H168.435V36.2727Z" fill="#E28300"/>
<path d="M170.261 36.2727H168.435V38.1818H170.261V36.2727Z" fill="#E28300"/>
<path d="M153.826 38.1818H152V40.0909H153.826V38.1818Z" fill="#6E4260"/>
<path d="M155.652 38.1818H153.826V40.0909H155.652V38.1818Z" fill="#45283C"/>
<path d="M157.478 38.1818H155.652V40.0909H157.478V38.1818Z" fill="#E28300"/>
<path d="M159.304 38.1818H157.478V40.0909H159.304V38.1818Z" fill="#E28300"/>
<path d="M161.13 38.1818H159.304V40.0909H161.13V38.1818Z" fill="#E28300"/>
<path d="M162.957 38.1818H161.13V40.0909H162.957V38.1818Z" fill="#E28300"/>
<path d="M164.783 38.1818H162.957V40.0909H164.783V38.1818Z" fill="black"/>
<path d="M166.609 38.1818H164.783V40.0909H166.609V38.1818Z" fill="#E28300"/>
<path d="M168.435 38.1818H166.609V40.0909H168.435V38.1818Z" fill="#E28300"/>
<path d="M153.826 40.0909H152V42H153.826V40.0909Z" fill="#45283C"/>
<path d="M155.652 40.0909H153.826V42H155.652V40.0909Z" fill="#45283C"/>
<path d="M157.478 40.0909H155.652V42H157.478V40.0909Z" fill="#45283C"/>
<path d="M159.304 40.0909H157.478V42H159.304V40.0909Z" fill="#E28300"/>
<path d="M161.13 40.0909H159.304V42H161.13V40.0909Z" fill="#E28300"/>
<path d="M162.957 40.0909H161.13V42H162.957V40.0909Z" fill="#E28300"/>
<path d="M164.783 40.0909H162.957V42H164.783V40.0909Z" fill="black"/>
<path d="M166.609 40.0909H164.783V42H166.609V40.0909Z" fill="black"/>
<path d="M144.517 44H140.034V48.4H144.517V44Z" fill="#D95763"/>
<path d="M149 44H144.517V48.4H149V44Z" fill="#D95763"/>
<path d="M108.655 48.4H104.172V52.8H108.655V48.4Z" fill="#D95763"/>
<path d="M113.138 48.4H108.655V52.8H113.138V48.4Z" fill="#D95763"/>
<path d="M117.621 48.4H113.138V52.8H117.621V48.4Z" fill="#D95763"/>
<path d="M126.586 48.4H122.103V52.8H126.586V48.4Z" fill="#D95763"/>
<path d="M131.069 48.4H126.586V52.8H131.069V48.4Z" fill="#D95763"/>
<path d="M135.552 48.4H131.069V52.8H135.552V48.4Z" fill="#D95763"/>
<path d="M140.034 48.4H135.552V52.8H140.034V48.4Z" fill="#D95763"/>
<path d="M144.517 48.4H140.034V52.8H144.517V48.4Z" fill="#D95763"/>
<path d="M23.4828 52.8H19V57.2H23.4828V52.8Z" fill="#D95763"/>
<path d="M27.9655 52.8H23.4828V57.2H27.9655V52.8Z" fill="#D95763"/>
<path d="M32.4483 52.8H27.9655V57.2H32.4483V52.8Z" fill="#D95763"/>
<path d="M50.3793 52.8H45.8965V57.2H50.3793V52.8Z" fill="#D95763"/>
<path d="M54.8621 52.8H50.3793V57.2H54.8621V52.8Z" fill="#D95763"/>
<path d="M59.3448 52.8H54.8621V57.2H59.3448V52.8Z" fill="#D95763"/>
<path d="M63.8276 52.8H59.3448V57.2H63.8276V52.8Z" fill="#D95763"/>
<path d="M68.3103 52.8H63.8276V57.2H68.3103V52.8Z" fill="#D95763"/>
<path d="M72.7931 52.8H68.3103V57.2H72.7931V52.8Z" fill="#D95763"/>
<path d="M95.2069 52.8H90.7241V57.2H95.2069V52.8Z" fill="#D95763"/>
<path d="M99.6897 52.8H95.2069V57.2H99.6897V52.8Z" fill="#D95763"/>
<path d="M104.172 52.8H99.6896V57.2H104.172V52.8Z" fill="#D95763"/>
<path d="M108.655 52.8H104.172V57.2H108.655V52.8Z" fill="#D95763"/>
<path d="M117.621 52.8H113.138V57.2H117.621V52.8Z" fill="#D95763"/>
<path d="M122.103 52.8H117.621V57.2H122.103V52.8Z" fill="#D95763"/>
<path d="M126.586 52.8H122.103V57.2H126.586V52.8Z" fill="#D95763"/>
<path d="M32.4483 57.2H27.9655V61.6H32.4483V57.2Z" fill="#D95763"/>
<path d="M36.931 57.2H32.4483V61.6H36.931V57.2Z" fill="#D95763"/>
<path d="M41.4138 57.2H36.931V61.6H41.4138V57.2Z" fill="#D95763"/>
<path d="M45.8965 57.2H41.4138V61.6H45.8965V57.2Z" fill="#D95763"/>
<path d="M50.3793 57.2H45.8965V61.6H50.3793V57.2Z" fill="#D95763"/>
<path d="M72.7931 57.2H68.3103V61.6H72.7931V57.2Z" fill="#D95763"/>
<path d="M77.2758 57.2H72.7931V61.6H77.2758V57.2Z" fill="#D95763"/>
<path d="M90.7242 57.2H86.2414V61.6H90.7242V57.2Z" fill="#D95763"/>
<path d="M95.2069 57.2H90.7241V61.6H95.2069V57.2Z" fill="#D95763"/>
<path d="M77.2758 61.6H72.7931V66H77.2758V61.6Z" fill="#D95763"/>
<path d="M81.7586 61.6H77.2759V66H81.7586V61.6Z" fill="#D95763"/>
<path d="M86.2414 61.6H81.7586V66H86.2414V61.6Z" fill="#D95763"/>
<path d="M90.7242 61.6H86.2414V66H90.7242V61.6Z" fill="#D95763"/>
<defs>
<linearGradient id="paint0_linear_56_6" x1="69.6818" y1="29" x2="146" y2="29" gradientUnits="userSpaceOnUse">
<stop stop-color="#E44E76"/>
<stop offset="0.908654" stop-color="#FFA600"/>
</linearGradient>
</defs>
</svg>
